<?xml version="1.0" encoding="iso-8859-1"?>
<!-- Generator: Adobe Illustrator 19.0.0, SVG Export Plug-In . SVG Version: 6.00 Build 0)  -->
<svg version="1.1" id="Capa_1" xmlns="http://www.w3.org/2000/svg" xmlns:xlink="http://www.w3.org/1999/xlink" x="0px" y="0px"
	 viewBox="0 0 512 512" style="enable-background:new 0 0 512 512;" xml:space="preserve">
<path style="fill:#97BAFF;" d="M466.003,501.975L466.003,501.975c-19.88,0-35.996-16.116-35.996-35.996V128.012h71.993v337.967
	C501.999,485.86,485.883,501.975,466.003,501.975z"/>
<path style="fill:#FFFFFF;" d="M462.955,501.976H45.996c-19.88,0-35.996-16.116-35.996-35.996V30.022
	c0-11.045,8.953-19.998,19.998-19.998h380.011c11.045,0,19.998,8.953,19.998,19.998v439.006
	C430.006,487.225,444.758,501.976,462.955,501.976L462.955,501.976z"/>
<rect x="63.994" y="64.014" style="fill:#FF5D5D;" width="312.02" height="47.995"/>
<rect x="63.994" y="176.333" style="fill:#ADF7ED;" width="312.02" height="179.982"/>
<path d="M502.001,307.564c-2.63,0-5.209,1.07-7.069,2.93c-1.86,1.86-2.93,4.44-2.93,7.069c0,2.63,1.07,5.209,2.93,7.069
	c1.86,1.86,4.43,2.93,7.069,2.93c2.63,0,5.209-1.07,7.069-2.93c1.86-1.86,2.93-4.44,2.93-7.069c0-2.63-1.07-5.21-2.93-7.069
	C507.21,308.634,504.631,307.564,502.001,307.564z"/>
<path d="M501.999,348.991c-5.522,0-9.999,4.477-9.999,9.999v106.99c0,14.335-11.663,25.997-25.997,25.997
	s-25.997-11.663-25.997-25.997V150.071v-12.06H492v135.654c0,5.522,4.477,9.999,9.999,9.999s9.999-4.477,9.999-9.999V128.012
	c0-5.522-4.477-9.999-9.999-9.999h-61.994V30.022c0-16.54-13.457-29.997-29.997-29.997H29.997C13.457,0.024,0,13.481,0,30.022
	V465.98c0,25.363,20.634,45.996,45.996,45.996h416.959c0.347,0,0.689-0.018,1.027-0.052c0.671,0.029,1.344,0.051,2.021,0.051
	c25.362,0,45.995-20.634,45.995-45.996v-106.99C511.998,353.468,507.521,348.991,501.999,348.991z M19.998,465.98V30.022
	c0-5.513,4.486-9.999,9.999-9.999h380.011c5.513,0,9.999,4.486,9.999,9.999v97.99v22.059v315.908c0,9.642,2.989,18.597,8.079,25.998
	H45.996C31.661,491.977,19.998,480.316,19.998,465.98z"/>
<path d="M376.011,54.019H63.994c-5.522,0-9.999,4.477-9.999,9.999v47.995c0,5.522,4.477,9.999,9.999,9.999h312.018
	c5.522,0,9.999-4.477,9.999-9.999V64.018C386.01,58.496,381.534,54.019,376.011,54.019z M366.012,102.015H73.993V74.017h292.02
	V102.015z"/>
<path d="M376.011,166.338H63.994c-5.522,0-9.999,4.477-9.999,9.999V356.32c0,5.522,4.477,9.999,9.999,9.999h312.018
	c5.522,0,9.999-4.477,9.999-9.999V176.337C386.01,170.815,381.534,166.338,376.011,166.338z M73.993,346.321V186.336h277.548
	l-21.879,21.879H308.47c-5.522,0-9.999,4.477-9.999,9.999s4.477,9.999,9.999,9.999h1.194l-41.171,41.172l-33.829-33.828
	c-3.904-3.905-10.236-3.905-14.141,0l-38.922,38.922c-3.905,3.905-3.906,10.236,0,14.141c3.906,3.906,10.237,3.906,14.141,0
	l31.852-31.852l33.829,33.828c1.953,1.953,4.512,2.929,7.07,2.929s5.118-0.976,7.07-2.929l48.242-48.242v1.195
	c0,5.522,4.477,9.999,9.999,9.999s9.999-4.477,9.999-9.999v-21.193l22.209-22.209V346.32H73.993V346.321z"/>
<path d="M127.087,254.248c5.484,0,9.947,3.635,9.947,8.103c0,5.522,4.477,9.999,9.999,9.999s9.999-4.477,9.999-9.999
	c0-12.208-8.341-22.618-19.954-26.487c-0.088-5.446-4.524-9.837-9.991-9.837s-9.903,4.391-9.991,9.837
	c-11.613,3.87-19.954,14.279-19.954,26.487c0,15.496,13.434,28.101,29.945,28.101c5.484,0,9.947,3.635,9.947,8.103
	c0,4.469-4.463,8.103-9.947,8.103s-9.947-3.635-9.947-8.103c0-5.522-4.477-9.999-9.999-9.999c-5.522,0-9.999,4.477-9.999,9.999
	c0,12.221,8.358,22.639,19.989,26.498c0.44,5.116,4.726,9.133,9.955,9.133c5.229,0,9.515-4.017,9.955-9.133
	c11.632-3.86,19.99-14.278,19.99-26.498c0-15.495-13.434-28.101-29.945-28.101c-5.484,0-9.947-3.635-9.947-8.103
	C117.139,257.882,121.602,254.248,127.087,254.248z"/>
<path d="M371.821,411.016H112.989c-5.522,0-9.999,4.477-9.999,9.999c0,5.522,4.477,9.999,9.999,9.999h258.832
	c5.522,0,9.999-4.477,9.999-9.999C381.82,415.493,377.343,411.016,371.821,411.016z"/>
<path d="M66.823,411.014c-2.63,0-5.209,1.07-7.069,2.93c-1.86,1.86-2.93,4.44-2.93,7.069c0,2.63,1.07,5.209,2.93,7.069
	c1.86,1.86,4.44,2.93,7.069,2.93c2.63,0,5.209-1.07,7.069-2.93c1.86-1.86,2.93-4.44,2.93-7.069c0-2.63-1.07-5.21-2.93-7.069
	C72.033,412.084,69.453,411.014,66.823,411.014z"/>
<g>
</g>
<g>
</g>
<g>
</g>
<g>
</g>
<g>
</g>
<g>
</g>
<g>
</g>
<g>
</g>
<g>
</g>
<g>
</g>
<g>
</g>
<g>
</g>
<g>
</g>
<g>
</g>
<g>
</g>
</svg>
