<?xml version="1.0" encoding="iso-8859-1"?>
<!-- Generator: Adobe Illustrator 19.0.0, SVG Export Plug-In . SVG Version: 6.00 Build 0)  -->
<svg version="1.1" id="Capa_1" xmlns="http://www.w3.org/2000/svg" xmlns:xlink="http://www.w3.org/1999/xlink" x="0px" y="0px"
	 viewBox="0 0 512.001 512.001" style="enable-background:new 0 0 512.001 512.001;" xml:space="preserve">
<path style="fill:#FD9727;" d="M337.071,289.064h-162.14c-26.124,0-47.302-21.178-47.302-47.302V100.889
	C127.629,45.17,172.798,0,228.518,0h54.967c55.72,0,100.889,45.17,100.889,100.889v140.872
	C384.373,267.886,363.195,289.064,337.071,289.064z"/>
<path style="fill:#FF6D1D;" d="M283.484,0h-8.971C304.108,0,328.1,23.992,328.1,53.587v235.477h8.971
	c26.124,0,47.302-21.178,47.302-47.302V100.889C384.373,45.17,339.204,0,283.484,0z"/>
<path style="fill:#FFD9A0;" d="M319.457,321.892c-9.829-1.976-16.9-10.609-16.9-20.635v-47.443h-46.556l0,0h-46.556v47.443
	c0,10.025-7.071,18.659-16.9,20.635l-11.344,2.28v76.188h74.8l0,0h74.8v-76.188L319.457,321.892z"/>
<path style="fill:#F4CE9E;" d="M330.801,388.338v-64.166l-11.344-2.28c-9.829-1.975-16.9-10.609-16.9-20.635v-47.443h-46.556l0,0
	h-9.702v48.465c0,14.966,7.113,29.041,19.162,37.918L330.801,388.338z"/>
<path style="fill:#FC502A;" d="M416.39,347.472l-93.381-29.116c-2.899-0.904-6.06-0.17-8.264,1.919l-58.744,55.672l-58.745-55.671
	c-2.204-2.089-5.365-2.823-8.264-1.919l-93.381,29.116c-41.401,12.19-69.827,50.192-69.827,93.351v62.21
	c0,4.952,4.015,8.967,8.967,8.967H477.25c4.952,0,8.967-4.015,8.967-8.967v-62.21C486.217,397.665,457.791,359.662,416.39,347.472z"
	/>
<path style="fill:#E60D28;" d="M416.39,347.472l-93.381-29.116c-2.899-0.904-6.06-0.17-8.264,1.919l-10.362,9.82l55.733,17.377
	c41.401,12.19,69.827,50.192,69.827,93.351V512h47.306c4.952,0,8.967-4.015,8.967-8.967v-62.21
	C486.217,397.665,457.791,359.662,416.39,347.472z"/>
<g>
	<path style="fill:#F4CE9E;" d="M380.466,202.174H360.59v-57.642h19.876c10.242,0,18.546,8.303,18.546,18.546v20.551
		C399.011,193.871,390.708,202.174,380.466,202.174z"/>
	<path style="fill:#F4CE9E;" d="M131.536,202.174h19.876v-57.642h-19.876c-10.242,0-18.546,8.303-18.546,18.546v20.551
		C112.991,193.871,121.294,202.174,131.536,202.174z"/>
</g>
<path style="fill:#FFD9A0;" d="M256.001,293.261L256.001,293.261c-64.092,0-116.048-51.957-116.048-116.048V144.6
	c0-64.092,51.957-116.048,116.048-116.048l0,0c64.092,0,116.048,51.957,116.048,116.048v32.613
	C372.049,241.305,320.093,293.261,256.001,293.261z"/>
<path style="fill:#F4CE9E;" d="M256.001,28.552L256.001,28.552c-9.704,0-19.127,1.198-28.137,3.442
	c50.495,12.577,87.911,58.218,87.911,112.606v32.614c0,54.388-37.417,100.029-87.911,112.606c9.009,2.244,18.432,3.442,28.136,3.442
	l0,0c64.092,0,116.048-51.957,116.048-116.048V144.6C372.049,80.508,320.093,28.552,256.001,28.552z"/>
<g>
	<path style="fill:#FED130;" d="M197.256,320.276l58.745,55.671l-35.84,12.209c-9.112,3.104-19.196,0.406-25.54-6.834L150.08,330.49
		l38.913-12.133C191.891,317.453,195.052,318.187,197.256,320.276z"/>
	<path style="fill:#FED130;" d="M314.746,320.276l-58.745,55.671l35.84,12.209c9.112,3.104,19.196,0.406,25.54-6.834l44.541-50.832
		l-38.913-12.133C320.111,317.453,316.95,318.187,314.746,320.276z"/>
</g>
<path style="fill:#FCA629;" d="M361.922,330.49l-18.637-5.811l-20.275-6.322c-1.065-0.332-2.165-0.439-3.241-0.343
	c-0.142,0.013-0.282,0.041-0.423,0.061c-1.697,0.239-3.313,0.981-4.6,2.201l-7.262,6.883l-3.099,2.937l45.463,14.175L361.922,330.49
	z"/>
<path style="fill:#B0EFFE;" d="M357.489,456.634h-44.094c-2.448,0-4.433-1.985-4.433-4.433v-19.53c0-2.448,1.985-4.433,4.433-4.433
	h44.094c2.448,0,4.433,1.985,4.433,4.433v19.53C361.922,454.649,359.938,456.634,357.489,456.634z"/>
<path style="fill:#FD9727;" d="M384.367,100.384C384.094,44.897,339.035,0,283.484,0h-54.966
	c-55.551,0-100.61,44.897-100.883,100.384H384.367z"/>
<path style="fill:#FF6D1D;" d="M364.161,40.305c-0.005-0.007-0.01-0.013-0.015-0.02c-0.478-0.636-0.964-1.266-1.457-1.89
	c-0.015-0.019-0.03-0.037-0.045-0.056c-0.484-0.612-0.975-1.219-1.473-1.82c-0.02-0.024-0.04-0.047-0.06-0.071
	c-0.494-0.594-0.994-1.183-1.501-1.766c-0.029-0.033-0.059-0.066-0.088-0.099c-0.5-0.572-1.004-1.14-1.516-1.7
	c-0.037-0.041-0.076-0.081-0.113-0.121c-0.506-0.552-1.016-1.099-1.534-1.64c-0.045-0.047-0.092-0.093-0.137-0.14
	c-0.511-0.532-1.027-1.06-1.55-1.58c-0.058-0.058-0.117-0.114-0.175-0.171c-0.512-0.508-1.028-1.011-1.551-1.508
	c-0.073-0.07-0.148-0.137-0.222-0.207c-0.512-0.483-1.026-0.962-1.548-1.435c-0.078-0.071-0.158-0.139-0.236-0.209
	c-0.519-0.468-1.042-0.932-1.571-1.388c-0.09-0.077-0.181-0.152-0.271-0.23c-0.52-0.446-1.043-0.888-1.572-1.324
	c-0.106-0.087-0.214-0.171-0.321-0.258c-0.517-0.422-1.037-0.842-1.563-1.254c-0.116-0.091-0.235-0.179-0.351-0.269
	c-0.519-0.403-1.04-0.804-1.567-1.197c-0.134-0.1-0.27-0.196-0.404-0.294c-0.514-0.379-1.029-0.757-1.55-1.126
	c-0.153-0.108-0.308-0.212-0.461-0.32c-0.507-0.356-1.015-0.71-1.529-1.056c-0.166-0.112-0.335-0.219-0.502-0.33
	c-0.505-0.336-1.011-0.671-1.523-0.998c-0.184-0.118-0.371-0.23-0.555-0.347c-0.498-0.314-0.997-0.628-1.502-0.934
	c-0.203-0.123-0.409-0.241-0.613-0.362c-0.491-0.293-0.982-0.586-1.479-0.871c-0.213-0.122-0.43-0.239-0.644-0.36
	c-0.492-0.277-0.984-0.555-1.481-0.825c-0.224-0.121-0.451-0.237-0.676-0.357c-0.491-0.261-0.981-0.523-1.476-0.776
	c-0.249-0.127-0.502-0.249-0.752-0.374c-0.476-0.238-0.951-0.478-1.432-0.709c-0.265-0.128-0.534-0.249-0.8-0.374
	c-0.471-0.221-0.941-0.445-1.416-0.659c-0.28-0.126-0.563-0.246-0.844-0.369c-0.465-0.205-0.929-0.412-1.398-0.61
	c-0.299-0.126-0.601-0.245-0.901-0.368c-0.457-0.188-0.913-0.378-1.373-0.559c-0.307-0.121-0.617-0.234-0.925-0.352
	c-0.457-0.175-0.913-0.352-1.374-0.52c-0.325-0.119-0.655-0.23-0.982-0.346c-0.448-0.158-0.894-0.32-1.344-0.472
	c-0.339-0.115-0.683-0.221-1.024-0.333c-0.443-0.144-0.884-0.292-1.329-0.43c-0.362-0.112-0.728-0.216-1.092-0.325
	c-0.427-0.127-0.853-0.258-1.282-0.38c-0.393-0.111-0.79-0.214-1.185-0.321c-0.406-0.11-0.809-0.223-1.217-0.328
	c-0.406-0.104-0.815-0.199-1.223-0.299c-0.401-0.098-0.8-0.2-1.202-0.292c-0.411-0.095-0.826-0.18-1.24-0.27
	c-0.403-0.088-0.804-0.18-1.209-0.263c-0.44-0.09-0.884-0.17-1.326-0.254c-0.38-0.072-0.759-0.15-1.141-0.218
	c-0.467-0.083-0.937-0.156-1.406-0.233c-0.362-0.059-0.723-0.124-1.087-0.18c-0.474-0.072-0.951-0.134-1.427-0.2
	c-0.361-0.05-0.721-0.105-1.084-0.151c-0.549-0.07-1.101-0.128-1.652-0.189c-0.292-0.032-0.582-0.07-0.875-0.1
	c-0.545-0.055-1.094-0.099-1.642-0.146c-0.304-0.026-0.606-0.057-0.911-0.081c-0.562-0.043-1.128-0.074-1.693-0.107
	c-0.291-0.017-0.581-0.04-0.873-0.055c-0.728-0.037-1.46-0.062-2.192-0.083c-0.131-0.004-0.26-0.011-0.391-0.015
	C285.222,0.011,284.354,0,283.484,0h-8.971C304.108,0,328.1,23.992,328.1,53.587v46.797h56.267
	c-0.106-21.674-7.047-41.732-18.776-58.13c-0.002-0.003-0.005-0.007-0.007-0.01C365.117,41.592,364.643,40.946,364.161,40.305z"/>
<path style="fill:#FC502A;" d="M127.629,61.941v73.208h256.745V61.941c0-6.722-5.449-12.171-12.171-12.171H139.799
	C133.078,49.77,127.629,55.219,127.629,61.941z"/>
<g>
	<path style="fill:#E60D28;" d="M372.203,49.77H328.1v85.378h56.273V61.941C384.373,55.219,378.924,49.77,372.203,49.77z"/>
	<path style="fill:#E60D28;" d="M398.625,147.592H113.377c-2.956,0-5.352-2.396-5.352-5.352v-1.44
		c0-18.435,14.945-33.38,33.38-33.38h229.193c18.435,0,33.38,14.945,33.38,33.38v1.441
		C403.977,145.196,401.581,147.592,398.625,147.592z"/>
</g>
<path style="fill:#C40C34;" d="M370.597,107.42h-22.894v40.172h50.922c2.956,0,5.352-2.396,5.352-5.351V140.8
	C403.977,122.365,389.032,107.42,370.597,107.42z"/>
<g>
</g>
<g>
</g>
<g>
</g>
<g>
</g>
<g>
</g>
<g>
</g>
<g>
</g>
<g>
</g>
<g>
</g>
<g>
</g>
<g>
</g>
<g>
</g>
<g>
</g>
<g>
</g>
<g>
</g>
</svg>
