<?xml version="1.0" encoding="iso-8859-1"?>
<!-- Generator: Adobe Illustrator 21.0.0, SVG Export Plug-In . SVG Version: 6.00 Build 0)  -->
<svg version="1.1" id="Capa_1" xmlns="http://www.w3.org/2000/svg" xmlns:xlink="http://www.w3.org/1999/xlink" x="0px" y="0px"
	 viewBox="0 0 512.001 512.001" style="enable-background:new 0 0 512.001 512.001;" xml:space="preserve">
<linearGradient id="SVGID_1_" gradientUnits="userSpaceOnUse" x1="28.6836" y1="278.4788" x2="56.1336" y2="261.6988" gradientTransform="matrix(1.0039 0 0 -1.0039 0.1922 516.5689)">
	<stop  offset="0" style="stop-color:#C3C3C3"/>
	<stop  offset="1" style="stop-color:#777777"/>
</linearGradient>
<circle style="fill:url(#SVGID_1_);" cx="23.687" cy="233.757" r="18.005"/>
<linearGradient id="SVGID_2_" gradientUnits="userSpaceOnUse" x1="16.272" y1="288.6772" x2="518.202" y2="268.2272" gradientTransform="matrix(1.0039 0 0 -1.0039 0.1922 516.5689)">
	<stop  offset="0" style="stop-color:#C3C3C3"/>
	<stop  offset="1" style="stop-color:#777777"/>
</linearGradient>
<path style="fill:url(#SVGID_2_);" d="M495.104,381.361l-348.049,0.279c-13.83,0.011-25.091-11.232-25.102-25.062l-0.231-196.763
	c-0.031-38.157-14.918-74.018-41.921-100.977l-8.572-8.558c-6.433-6.423-16.904-7.006-23.623-0.882
	c-7.173,6.538-7.361,17.66-0.571,24.438l8.911,8.897c19.484,19.454,30.703,44.979,31.9,72.316H26.781
	c-10.201,0-18.864,8.348-18.673,18.546c0.186,9.891,8.261,17.851,18.195,17.851h49.654c6.651,0,12.045,5.388,12.053,12.039l0,0
	c0.008,6.662-5.391,12.067-12.053,12.067h-9.273c-10.051,0-18.199,8.148-18.199,18.199l0,0c0,10.051,8.148,18.199,18.199,18.199
	h10.226c6.164,0,11.164,4.993,11.171,11.158l0,0c0.007,6.174-4.997,11.184-11.171,11.184H66.683
	c-10.051,0-18.199,8.148-18.199,18.199l0,0c0,10.051,8.148,18.199,18.199,18.199h21.452l0.054,45.916
	c0.026,32.448,26.445,58.825,58.894,58.8l348.049-0.279c9.323-0.007,16.876-7.572,16.869-16.896
	C511.992,388.906,504.427,381.354,495.104,381.361z"/>
<linearGradient id="SVGID_3_" gradientUnits="userSpaceOnUse" x1="87.2897" y1="419.2682" x2="49.8497" y2="456.6512" gradientTransform="matrix(1.0039 0 0 -1.0039 0.1922 516.5689)">
	<stop  offset="0" style="stop-color:#C3C3C3;stop-opacity:0"/>
	<stop  offset="0.267" style="stop-color:#A4A4A4;stop-opacity:0.267"/>
	<stop  offset="0.542" style="stop-color:#8B8B8B;stop-opacity:0.542"/>
	<stop  offset="0.794" style="stop-color:#7C7C7C;stop-opacity:0.794"/>
	<stop  offset="1" style="stop-color:#777777"/>
</linearGradient>
<path style="fill:url(#SVGID_3_);" d="M79.803,58.839l-8.911-8.897c-6.598-6.587-17.288-6.579-23.875,0.019
	c-6.589,6.598-6.58,17.288,0.019,23.875l8.911,8.897c9.487,9.472,17.01,20.387,22.376,32.245l25.094-25.134
	C97.079,78.622,89.172,68.193,79.803,58.839z"/>
<linearGradient id="SVGID_4_" gradientUnits="userSpaceOnUse" x1="55.977" y1="492.8195" x2="18.373" y2="455.1575" gradientTransform="matrix(1.0039 0 0 -1.0039 0.1922 516.5689)">
	<stop  offset="0" style="stop-color:#62E1FB"/>
	<stop  offset="1" style="stop-color:#00A2F3"/>
</linearGradient>
<path style="fill:url(#SVGID_4_);" d="M7.81,11.15L7.81,11.15c10.425-10.441,27.339-10.455,37.78-0.03l21.513,21.479
	c10.441,10.425,10.455,27.339,0.03,37.78l0,0c-10.425,10.441-27.339,10.455-37.78,0.03L7.84,48.93
	C-2.601,38.505-2.615,21.591,7.81,11.15z"/>
<linearGradient id="SVGID_5_" gradientUnits="userSpaceOnUse" x1="146.0835" y1="103.7662" x2="225.4235" y2="42.0362" gradientTransform="matrix(1.0039 0 0 -1.0039 0.1922 516.5689)">
	<stop  offset="0" style="stop-color:#777777"/>
	<stop  offset="1" style="stop-color:#3B4041"/>
</linearGradient>
<circle style="fill:url(#SVGID_5_);" cx="187.492" cy="444.018" r="64.673"/>
<linearGradient id="SVGID_6_" gradientUnits="userSpaceOnUse" x1="190.954" y1="37.1377" x2="182.384" y2="105.7877" gradientTransform="matrix(1.0039 0 0 -1.0039 0.1922 516.5689)">
	<stop  offset="0" style="stop-color:#777777"/>
	<stop  offset="1" style="stop-color:#3B4041"/>
</linearGradient>
<circle style="fill:url(#SVGID_6_);" cx="187.492" cy="444.018" r="44.514"/>
<linearGradient id="SVGID_7_" gradientUnits="userSpaceOnUse" x1="173.1756" y1="82.6889" x2="199.4556" y2="62.2389" gradientTransform="matrix(1.0039 0 0 -1.0039 0.1922 516.5689)">
	<stop  offset="0" style="stop-color:#C3C3C3"/>
	<stop  offset="1" style="stop-color:#777777"/>
</linearGradient>
<circle style="fill:url(#SVGID_7_);" cx="187.492" cy="444.018" r="21.428"/>
<linearGradient id="SVGID_8_" gradientUnits="userSpaceOnUse" x1="366.2092" y1="103.7606" x2="445.5392" y2="42.0406" gradientTransform="matrix(1.0039 0 0 -1.0039 0.1922 516.5689)">
	<stop  offset="0" style="stop-color:#777777"/>
	<stop  offset="1" style="stop-color:#3B4041"/>
</linearGradient>
<circle style="fill:url(#SVGID_8_);" cx="408.476" cy="444.018" r="64.673"/>
<linearGradient id="SVGID_9_" gradientUnits="userSpaceOnUse" x1="411.0743" y1="37.1352" x2="402.5043" y2="105.7852" gradientTransform="matrix(1.0039 0 0 -1.0039 0.1922 516.5689)">
	<stop  offset="0" style="stop-color:#777777"/>
	<stop  offset="1" style="stop-color:#3B4041"/>
</linearGradient>
<circle style="fill:url(#SVGID_9_);" cx="408.476" cy="444.018" r="44.514"/>
<linearGradient id="SVGID_10_" gradientUnits="userSpaceOnUse" x1="393.297" y1="82.6878" x2="419.577" y2="62.2378" gradientTransform="matrix(1.0039 0 0 -1.0039 0.1922 516.5689)">
	<stop  offset="0" style="stop-color:#C3C3C3"/>
	<stop  offset="1" style="stop-color:#777777"/>
</linearGradient>
<circle style="fill:url(#SVGID_10_);" cx="408.476" cy="444.018" r="21.428"/>
<linearGradient id="SVGID_11_" gradientUnits="userSpaceOnUse" x1="347.232" y1="244.9538" x2="347.232" y2="130.9638" gradientTransform="matrix(1.0039 0 0.1936 -1.0102 -100.5947 519.8657)">
	<stop  offset="0" style="stop-color:#FF4C54"/>
	<stop  offset="1" style="stop-color:#BE3F45"/>
</linearGradient>
<path style="fill:url(#SVGID_11_);" d="M391.164,372.5H161.316c-9.857,0-17.007-6.993-17.092-16.717l-1.713-197.556h349.549
	l-77.4,197.556C410.851,365.507,401.022,372.5,391.164,372.5z"/>
<linearGradient id="SVGID_12_" gradientUnits="userSpaceOnUse" x1="438.5969" y1="251.813" x2="482.4469" y2="137.823" gradientTransform="matrix(1.0039 0 0.1936 -1.0102 -100.5947 519.8657)">
	<stop  offset="0" style="stop-color:#FF4C54"/>
	<stop  offset="1" style="stop-color:#BE3F45"/>
</linearGradient>
<path style="fill:url(#SVGID_12_);" d="M367.405,349.856c-0.642,0-1.281-0.047-1.914-0.147c-6.886-1.071-10.498-7.724-8.067-14.86
	l41.249-121.073c2.431-7.136,9.986-12.054,16.871-10.982c6.886,1.071,10.498,7.724,8.066,14.86l-41.249,121.073
	C380.154,345.206,373.725,349.856,367.405,349.856z"/>
<linearGradient id="SVGID_13_" gradientUnits="userSpaceOnUse" x1="247.666" y1="251.8127" x2="291.516" y2="137.8227" gradientTransform="matrix(1.0039 0 0.1936 -1.0102 -100.5947 519.8657)">
	<stop  offset="0" style="stop-color:#FF4C54"/>
	<stop  offset="1" style="stop-color:#BE3F45"/>
</linearGradient>
<path style="fill:url(#SVGID_13_);" d="M193.751,349.856c-6.32,0-10.968-4.649-10.693-11.128l5.136-121.073
	c0.302-7.136,6.463-13.789,13.76-14.86c7.294-1.07,12.967,3.846,12.663,10.982l-5.136,121.073
	c-0.302,7.136-6.463,13.789-13.76,14.86C195.05,349.807,194.391,349.856,193.751,349.856z"/>
<linearGradient id="SVGID_14_" gradientUnits="userSpaceOnUse" x1="377.636" y1="248.8419" x2="409.636" y2="134.8519" gradientTransform="matrix(1.0039 0 0.1936 -1.0102 -100.5947 519.8657)">
	<stop  offset="0" style="stop-color:#FF4C54"/>
	<stop  offset="1" style="stop-color:#BE3F45"/>
</linearGradient>
<path style="fill:url(#SVGID_14_);" d="M310.202,349.855c-0.224,0-0.448-0.006-0.671-0.017c-7.091-0.368-11.424-6.509-9.677-13.716
	l29.347-121.073c1.747-7.206,8.92-12.736,16.001-12.381c7.091,0.368,11.424,6.509,9.677,13.716l-29.347,121.073
	C323.841,344.435,317.068,349.855,310.202,349.855z"/>
<linearGradient id="SVGID_15_" gradientUnits="userSpaceOnUse" x1="312.5132" y1="248.8411" x2="344.5132" y2="134.8511" gradientTransform="matrix(1.0039 0 0.1936 -1.0102 -100.5947 519.8657)">
	<stop  offset="0" style="stop-color:#FF4C54"/>
	<stop  offset="1" style="stop-color:#BE3F45"/>
</linearGradient>
<path style="fill:url(#SVGID_15_);" d="M250.955,349.855c-6.867,0-11.563-5.419-10.581-12.398l17.039-121.073
	c1.014-7.206,7.699-13.347,14.931-13.716c7.23-0.365,12.273,5.174,11.259,12.381l-17.039,121.073
	c-1.014,7.206-7.699,13.347-14.931,13.716C251.405,349.849,251.178,349.855,250.955,349.855z"/>
<linearGradient id="SVGID_16_" gradientUnits="userSpaceOnUse" x1="347.2315" y1="180.6438" x2="347.2315" y2="447.7138" gradientTransform="matrix(1.0039 0 0.1936 -1.0102 -100.5947 519.8657)">
	<stop  offset="0" style="stop-color:#BE3F45;stop-opacity:0"/>
	<stop  offset="1" style="stop-color:#BE3F45"/>
</linearGradient>
<path style="fill:url(#SVGID_16_);" d="M142.777,188.867L290.089,372.5h101.074c9.858,0,19.687-6.993,23.497-16.717l77.4-197.556
	H142.512L142.777,188.867z"/>
<linearGradient id="SVGID_17_" gradientUnits="userSpaceOnUse" x1="315.8561" y1="349.927" x2="315.8561" y2="315.167" gradientTransform="matrix(1.0039 0 0 -1.0039 0.1922 516.5689)">
	<stop  offset="0" style="stop-color:#FFB92D"/>
	<stop  offset="1" style="stop-color:#F59500"/>
</linearGradient>
<path style="fill:url(#SVGID_17_);" d="M490.522,190.207H144.051c-10.135,0-18.351-8.216-18.351-18.351l0,0
	c0-10.135,8.216-18.351,18.351-18.351h346.472c10.135,0,18.351,8.216,18.351,18.351l0,0
	C508.873,181.992,500.657,190.207,490.522,190.207z"/>
<g>
</g>
<g>
</g>
<g>
</g>
<g>
</g>
<g>
</g>
<g>
</g>
<g>
</g>
<g>
</g>
<g>
</g>
<g>
</g>
<g>
</g>
<g>
</g>
<g>
</g>
<g>
</g>
<g>
</g>
</svg>
