<?xml version="1.0" encoding="iso-8859-1"?>
<!-- Generator: Adobe Illustrator 19.0.0, SVG Export Plug-In . SVG Version: 6.00 Build 0)  -->
<svg version="1.1" id="Layer_1" xmlns="http://www.w3.org/2000/svg" xmlns:xlink="http://www.w3.org/1999/xlink" x="0px" y="0px"
	 viewBox="0 0 511.993 511.993" style="enable-background:new 0 0 511.993 511.993;" xml:space="preserve">
<path style="fill:#434A54;" d="M460.414,407.572l-1.828-0.516c-26.484-7.125-35.436-13.953-47.248-18.438
	c-41.844-15.953-52.719-27.438-55.5-32.859c-0.094-0.188-0.188-0.406-0.281-0.609l-0.344-48.592l-99.217-1.124l-99.217,1.125
	l-0.344,48.592c-0.094,0.203-0.188,0.422-0.281,0.609c-2.781,5.422-13.656,16.906-55.499,32.859
	c-11.796,4.484-20.765,11.312-47.249,18.438l-1.828,0.516c-24.109,7.984-40.343,30.344-40.343,55.592v48.828h244.761h244.762
	v-48.828C500.758,437.916,484.523,415.557,460.414,407.572z"/>
<polygon style="fill:#CCD1D9;" points="255.934,373.228 195.559,424.103 256.808,511.992 312.918,419.947 "/>
<polygon style="fill:#E6E9ED;" points="156.544,320.074 204.809,434.494 256.808,395.728 310.465,435.728 355.307,318.98 "/>
<path style="fill:#EAC6BB;" d="M393.682,212.903c0,89.452-85.279,171.778-137.686,171.778c-52.405,0-137.685-82.326-137.685-171.778
	c0-89.467,61.655-148.497,137.685-148.497C332.025,64.406,393.682,123.436,393.682,212.903z"/>
<g>
	<polygon style="fill:#656D78;" points="256.808,511.992 156.544,320.074 128.685,388.963 161.279,413.978 155.435,438.01 	"/>
	<polygon style="fill:#656D78;" points="256.808,511.992 355.307,318.98 384.713,388.963 352.119,413.978 357.963,438.01 	"/>
</g>
<path style="fill:#DA4453;" d="M368.15,31.938C337.057,11.344,297.215,0,255.996,0c-41.218,0-81.061,11.344-112.154,31.938
	C112.811,52.484,95.03,79.531,95.03,106.14c0,26.14,18.875,50.046,53.124,67.295c29.984,15.109,69.28,23.766,107.842,23.766
	s77.857-8.656,107.842-23.766c34.25-17.25,53.125-41.155,53.125-67.295C416.963,79.531,399.182,52.484,368.15,31.938z"/>
<path style="fill:#ED5564;" d="M384.932,165.17H128.685c-3.281,0-6.375-1.5-8.406-4.078c-2.016-2.562-2.75-5.938-1.969-9.109
	c0.625-2.625,16.906-64.061,137.685-64.061c120.561,0,138.529,61.171,139.248,63.78c0.859,3.203,0.188,6.641-1.844,9.281
	C391.385,163.623,388.244,165.17,384.932,165.17z"/>
<path style="fill:#656D78;" d="M395.057,151.123c-1.453-4.359-5.531-7.312-10.125-7.312H128.685c-4.593,0-8.687,2.953-10.125,7.312
	c-1.469,4.359,0.031,9.156,3.719,11.906l42.702,32.031c1.859,1.391,4.094,2.141,6.406,2.141h170.825c2.312,0,4.562-0.75,6.406-2.141
	l42.719-32.031C395.01,160.279,396.51,155.482,395.057,151.123z"/>
<path style="fill:#FFCE54;" d="M278.152,58.406c0,11.781-9.562,21.344-21.344,21.344c-11.797,0-21.359-9.562-21.359-21.344
	c0-11.796,9.562-21.358,21.359-21.358C268.59,37.047,278.152,46.609,278.152,58.406z"/>
<path style="fill:#656D78;" d="M267.48,434.775c0,5.906-4.781,10.688-10.672,10.688c-5.906,0-10.688-4.781-10.688-10.688
	c0-5.891,4.781-10.672,10.688-10.672C262.699,424.103,267.48,428.885,267.48,434.775z"/>
<path style="fill:#E9573F;" d="M170.466,293.496c-5.328,10.359-9.031,20.734-9.031,29.578c0,31.498,75.155,82.42,94.561,82.748
	c19.406-0.328,94.561-51.25,94.561-82.748c0-9.047-3.875-19.672-9.406-30.25C327.353,266.402,184.216,266.84,170.466,293.496z"/>
<g>
	<path style="fill:#FC6E51;" d="M334.057,250.95c15.031-4.609,28.438,6.171,11.156,15.5c-34.873,18.812-61.123-51.937-90.654-14.968
		c-29.531,36.968,17.531,74.234,59.656,70.359c114.623-10.531,66.139-89.265,44.42-88.593
		C342.041,233.746,334.057,250.95,334.057,250.95z"/>
	<path style="fill:#FC6E51;" d="M177.935,250.95c-15.031-4.609-28.437,6.171-11.156,15.5c34.875,18.812,61.124-51.937,90.655-14.968
		c29.531,36.968-17.531,74.234-59.655,70.359c-114.623-10.531-66.14-89.265-44.406-88.593
		C169.966,233.746,177.935,250.95,177.935,250.95z"/>
</g>
<g>
</g>
<g>
</g>
<g>
</g>
<g>
</g>
<g>
</g>
<g>
</g>
<g>
</g>
<g>
</g>
<g>
</g>
<g>
</g>
<g>
</g>
<g>
</g>
<g>
</g>
<g>
</g>
<g>
</g>
</svg>
