<?xml version="1.0" encoding="iso-8859-1"?>
<!-- Generator: Adobe Illustrator 19.0.0, SVG Export Plug-In . SVG Version: 6.00 Build 0)  -->
<svg version="1.1" id="Layer_1" xmlns="http://www.w3.org/2000/svg" xmlns:xlink="http://www.w3.org/1999/xlink" x="0px" y="0px"
	 viewBox="0 0 512 512" style="enable-background:new 0 0 512 512;" xml:space="preserve">
<path style="fill:#F85A55;" d="M412.522,248.336c19.913,21.741,20.761,54.165,1.487,73.439
	c-11.267,11.267-23.217,22.226-35.607,32.766l-15.937-15.937c-4.306-4.295-11.278-4.295-15.584,0
	c-4.295,4.306-4.295,11.278,0,15.573l14.406,14.406c-14.604,11.553-29.693,22.446-44.991,32.457l-16.73-16.73
	c-4.295-4.306-11.267-4.306-15.573,0c-4.295,4.295-4.295,11.278,0,15.573l13.161,13.172c-6.663,3.998-13.338,7.831-20.001,11.443
	c-38.845,21.058-64.023,28.294-73.847,29.23c0.639-6.663,4.174-20.375,12.93-40.607c0.121-0.253,0.22-0.496,0.319-0.749
	c2.346-5.364,5.055-11.19,8.172-17.457l12.368,12.368c2.148,2.148,4.967,3.227,7.787,3.227s5.639-1.079,7.787-3.227
	c4.306-4.306,4.306-11.278,0-15.573l-17.17-17.17c8.91-15.97,18.911-31.951,29.814-47.634l14.042,14.042
	c2.159,2.159,4.978,3.227,7.798,3.227c2.808,0,5.628-1.068,7.787-3.227c4.295-4.295,4.295-11.267,0-15.573l-16.576-16.565
	c11.003-14.67,22.699-28.944,34.902-42.546l14.78,14.78c2.148,2.148,4.967,3.227,7.787,3.227c2.819,0,5.639-1.079,7.787-3.227
	c4.306-4.295,4.306-11.278,0-15.573l-15.331-15.342c2.302-2.39,4.626-4.769,6.972-7.104c9.351-9.351,21.796-13.965,34.616-13.965
	c14.406,0,29.296,5.826,40.784,17.314c0.606,0.617,1.201,1.234,1.773,1.872C412.467,248.27,412.489,248.303,412.522,248.336z"/>
<path style="fill:#80D0B5;" d="M150.165,103.616l-15.97-15.959c-4.295-4.306-11.267-4.306-15.573,0
	c-4.295,4.295-4.295,11.267,0,15.573l15.959,15.959c-11.069-1.751-21.521-6.917-29.66-15.045
	c-11.939-11.939-17.49-28.867-15.21-45.409c16.543-2.28,33.46,3.271,45.398,15.221c4.064,4.064,7.39,8.712,9.923,13.734
	C147.566,92.701,149.284,98.087,150.165,103.616z"/>
<path style="fill:#FDC656;" d="M215.223,177.683c35.64,8.481,57.547,55.399,51.665,109.795
	c-28.525,36.885-47.359,69.518-57.734,89.464c-4.174,8.018-7.952,15.816-11.289,23.283c-12.346,5.551-24.924,7.038-36.532,4.284
	l-0.187-0.044c-10.551-2.544-21.719-2.555-32.303-0.022c-0.077,0.022-0.154,0.033-0.198,0.055
	c-19.263,4.582-40.321-2.324-59.309-19.417c-20.111-18.118-35.244-45.167-42.623-76.16c-7.368-31.004-6.036-61.963,3.767-87.195
	c9.251-23.823,24.957-39.462,44.209-44.044c14.692-3.491,30.541-0.297,45.85,9.24c15.067,9.362,33.779,9.362,48.846-0.011
	C184.671,177.386,200.52,174.192,215.223,177.683z M83.477,214.59c5.914-1.41,9.571-7.346,8.161-13.26
	c-1.41-5.914-7.346-9.582-13.26-8.161c-8.117,1.927-23.217,8.954-33.063,34.319c-3.601,9.263-5.903,19.626-6.851,30.805
	c-0.518,6.058,3.976,11.388,10.044,11.895c0.308,0.033,0.628,0.044,0.936,0.044c5.661,0,10.474-4.339,10.959-10.089
	c0.771-9.075,2.599-17.38,5.441-24.682C72.287,218.874,80.316,215.339,83.477,214.59z M55.458,313.405
	c5.914-1.41,9.571-7.346,8.161-13.26c-0.672-2.82-1.256-5.694-1.74-8.547c-1.024-5.991-6.718-10.022-12.71-8.998
	c-6.002,1.024-10.033,6.707-9.009,12.71c0.573,3.304,1.256,6.652,2.027,9.923c1.212,5.066,5.727,8.47,10.705,8.47
	C53.74,313.702,54.599,313.603,55.458,313.405z"/>
<path d="M504.872,224.26c5.694,2.148,8.569,8.503,6.41,14.197c-2.148,5.694-8.503,8.558-14.186,6.41
	c-19.406-7.335-40.552-7.28-59.683-0.143c18.922,29.616,16.565,68.23-7.831,92.625c-59.364,59.375-119.146,94.729-149.489,110.533
	c-20.981,10.915-40.453,19.153-56.324,23.823c-9.229,2.72-16.686,4.086-22.655,4.086c-6.641,0-11.432-1.674-14.813-5.055
	c-6.421-6.421-6.718-17.974-0.98-37.48c0.65-2.17,1.366-4.427,2.137-6.74c-10.551,2.004-21.102,1.828-31.279-0.595l-0.209-0.044
	c-7.192-1.729-14.835-1.729-22.06,0.011c-0.066,0.011-0.176,0.033-0.253,0.055c-5.617,1.322-11.289,1.971-16.994,1.971
	c-21.245,0.011-42.766-9.086-62.062-26.466c-23.404-21.08-40.916-52.128-49.319-87.427c-8.392-35.31-6.74-70.917,4.67-100.28
	c11.95-30.761,33.14-51.181,59.65-57.48c20.53-4.89,42.171-0.76,62.58,11.961c0.187,0.11,0.374,0.209,0.573,0.33
	c0.253-9.24,2.214-18.305,5.826-26.818c-18.305-1.079-35.949-8.734-49.231-22.016c-19.043-19.054-26.565-47.084-19.615-73.153
	c1.013-3.811,3.987-6.795,7.798-7.809c26.069-6.95,54.099,0.562,73.153,19.626c12.622,12.611,20.177,29.164,21.829,46.467
	c6.3-3.293,13.117-5.705,20.309-7.115c5.969-1.167,11.752,2.72,12.919,8.69c1.167,5.969-2.72,11.763-8.69,12.93
	c-13.745,2.687-25.607,10.562-33.405,22.16c-5.716,8.503-8.734,18.261-8.899,28.283c1.024-0.452,2.027-0.98,2.996-1.586
	c20.386-12.71,42.028-16.84,62.569-11.95c23.856,5.672,43.812,23.217,56.181,49.407c7.522,15.926,11.939,34.484,13.073,54.132
	c9.263-10.683,19.285-21.521,30.111-32.347c24.406-24.395,63.02-26.752,92.636-7.831c7.137-19.12,7.192-40.277-0.143-59.683
	c-2.159-5.694,0.716-12.049,6.41-14.197c5.683-2.148,12.038,0.716,14.186,6.41c6.895,18.228,8.613,37.678,5.309,56.39
	c13.613-10.309,27.876-19.714,42.667-28.096c5.287-3.007,12.005-1.145,15.012,4.141c2.996,5.287,1.145,12.016-4.152,15.012
	c-9.67,5.485-19.098,11.443-28.261,17.809C477.327,216.925,491.435,219.183,504.872,224.26z M414.009,321.775
	c19.274-19.274,18.426-51.698-1.487-73.439c-0.033-0.033-0.055-0.066-0.088-0.088c-0.573-0.639-1.167-1.256-1.773-1.872
	c-11.487-11.487-26.378-17.314-40.784-17.314c-12.82,0-25.265,4.615-34.616,13.965c-2.346,2.335-4.67,4.714-6.972,7.104
	l15.331,15.342c4.306,4.295,4.306,11.278,0,15.573c-2.148,2.148-4.967,3.227-7.787,3.227c-2.819,0-5.639-1.079-7.787-3.227
	l-14.78-14.78c-12.203,13.602-23.9,27.876-34.902,42.546l16.576,16.565c4.295,4.306,4.295,11.278,0,15.573
	c-2.159,2.159-4.978,3.227-7.787,3.227c-2.82,0-5.639-1.068-7.798-3.227l-14.042-14.042c-10.904,15.684-20.904,31.664-29.814,47.634
	l17.17,17.17c4.306,4.295,4.306,11.267,0,15.573c-2.148,2.148-4.967,3.227-7.787,3.227s-5.639-1.079-7.787-3.227l-12.368-12.368
	c-3.117,6.267-5.826,12.093-8.172,17.457c-0.099,0.253-0.198,0.496-0.319,0.749c-8.756,20.232-12.291,33.944-12.93,40.607
	c9.824-0.936,35.002-8.172,73.847-29.23c6.663-3.612,13.338-7.445,20.001-11.443l-13.161-13.172c-4.295-4.295-4.295-11.278,0-15.573
	c4.306-4.306,11.278-4.306,15.573,0l16.73,16.73c15.298-10.011,30.387-20.904,44.991-32.457l-14.406-14.406
	c-4.295-4.295-4.295-11.267,0-15.573c4.306-4.295,11.278-4.295,15.584,0l15.937,15.937
	C390.792,344.001,402.742,333.042,414.009,321.775z M266.888,287.478c5.881-54.397-16.025-101.315-51.665-109.795
	c-14.703-3.491-30.552-0.297-45.839,9.229c-15.067,9.373-33.779,9.373-48.846,0.011c-15.309-9.538-31.158-12.732-45.85-9.24
	c-19.252,4.582-34.957,20.221-44.209,44.044c-9.802,25.232-11.135,56.192-3.767,87.195c7.379,30.993,22.512,58.042,42.623,76.16
	c18.988,17.093,40.046,23.999,59.309,19.417c0.044-0.022,0.121-0.033,0.198-0.055c10.584-2.533,21.752-2.522,32.303,0.022
	l0.187,0.044c11.608,2.753,24.186,1.267,36.532-4.284c3.337-7.467,7.115-15.265,11.289-23.283
	C219.529,356.997,238.363,324.363,266.888,287.478z M134.195,87.657l15.97,15.959c-0.881-5.529-2.599-10.915-5.132-15.926
	c-2.533-5.022-5.859-9.67-9.923-13.734c-11.939-11.95-28.856-17.501-45.398-15.221c-2.28,16.543,3.271,33.471,15.21,45.409
	c8.139,8.128,18.591,13.294,29.66,15.045l-15.959-15.959c-4.295-4.306-4.295-11.278,0-15.573
	C122.928,83.351,129.9,83.351,134.195,87.657z"/>
<path d="M91.638,201.329c1.41,5.914-2.247,11.851-8.161,13.26c-3.161,0.749-11.19,4.284-17.633,20.871
	c-2.842,7.302-4.67,15.606-5.441,24.682c-0.485,5.749-5.298,10.089-10.959,10.089c-0.308,0-0.628-0.011-0.936-0.044
	c-6.069-0.507-10.562-5.837-10.044-11.895c0.947-11.179,3.249-21.543,6.851-30.805c9.846-25.365,24.946-32.391,33.063-34.319
	C84.292,191.747,90.229,195.415,91.638,201.329z"/>
<path d="M63.62,300.144c1.41,5.914-2.247,11.851-8.161,13.26c-0.859,0.198-1.718,0.297-2.566,0.297
	c-4.978,0-9.494-3.403-10.705-8.47c-0.771-3.271-1.454-6.619-2.027-9.923c-1.024-6.002,3.007-11.686,9.009-12.71
	c5.991-1.024,11.686,3.007,12.71,8.998C62.364,294.45,62.948,297.325,63.62,300.144z"/>
<g>
</g>
<g>
</g>
<g>
</g>
<g>
</g>
<g>
</g>
<g>
</g>
<g>
</g>
<g>
</g>
<g>
</g>
<g>
</g>
<g>
</g>
<g>
</g>
<g>
</g>
<g>
</g>
<g>
</g>
</svg>
