<svg height="512pt" viewBox="-66 0 512 512" width="512pt" xmlns="http://www.w3.org/2000/svg"><path d="m10 242h360v260h-360zm0 0" fill="#ffa545"/><path d="m310 282v180h60c0-36.039062 0-144.089844 0-180zm0 0" fill="#ffea91"/><path d="m330 150v92h-60v-92c0-44.109375-35.890625-80-80-80s-80 35.890625-80 80v92h-60v-92c0-77.199219 62.800781-140 140-140s140 62.800781 140 140zm0 0" fill="#ffea91"/><path d="m207.269531 356.539062 22.730469 65.460938h-80l22.730469-65.460938c-7.699219-5.4375-12.730469-14.398437-12.730469-24.539062 0-16.570312 13.429688-30 30-30s30 13.429688 30 30c0 10.140625-5.03125 19.101562-12.730469 24.539062zm0 0" fill="#3a5576"/><path d="m10 282v180h60c0-36.039062 0-144.089844 0-180zm0 0" fill="#ffea91"/><path d="m110 452c-5.519531 0-10 4.480469-10 10s4.480469 10 10 10 10-4.480469 10-10-4.480469-10-10-10zm0 0"/><path d="m190 0c-82.710938 0-150 67.289062-150 150v82h-30c-5.523438 0-10 4.476562-10 10v260c0 5.523438 4.476562 10 10 10h360c5.523438 0 10-4.476562 10-10v-260c0-5.523438-4.476562-10-10-10h-30v-82c0-82.710938-67.289062-150-150-150zm-130 150c0-71.683594 58.316406-130 130-130s130 58.316406 130 130v82h-40v-82c0-49.625-40.375-90-90-90s-90 40.375-90 90v82h-40zm60 82v-82c0-38.597656 31.402344-70 70-70s70 31.402344 70 70v82zm-60 160h-40v-40h40zm-40 20h40v40h-40zm40-80h-40v-40h40zm260 20h40v40h-40zm40-20h-40v-40h40zm-40 80h40v40h-40zm40-140h-50c-5.523438 0-10 4.476562-10 10v180c0 5.523438 4.476562 10 10 10h50v20h-340v-20h50c5.523438 0 10-4.476562 10-10v-180c0-5.523438-4.476562-10-10-10h-50v-20h340zm0 0"/><path d="m250 452h-100.011719c-5.519531 0-10 4.476562-10 10s4.480469 10 10 10h100.011719c5.523438 0 10-4.476562 10-10s-4.476562-10-10-10zm0 0"/><path d="m150 432h80c3.234375 0 6.273438-1.566406 8.148438-4.203125 1.875-2.640625 2.359374-6.019531 1.296874-9.078125l-20.519531-59.097656c7.035157-7.378906 11.074219-17.261719 11.074219-27.621094 0-22.054688-17.945312-40-40-40s-40 17.945312-40 40c0 10.359375 4.039062 20.242188 11.074219 27.625l-20.519531 59.09375c-1.0625 3.058594-.578126 6.441406 1.296874 9.078125s4.914063 4.203125 8.148438 4.203125zm28.5-83.628906c-5.320312-3.757813-8.5-9.878906-8.5-16.371094 0-11.027344 8.972656-20 20-20s20 8.972656 20 20c0 6.492188-3.179688 12.613281-8.5 16.371094-3.640625 2.574218-5.136719 7.242187-3.675781 11.449218l18.117187 52.179688h-51.882812l18.117187-52.179688c1.460938-4.210937-.035156-8.878906-3.675781-11.449218zm0 0"/></svg>