<svg xmlns="http://www.w3.org/2000/svg" xmlns:xlink="http://www.w3.org/1999/xlink" xmlns:fi="http://pattern.flaticon.com/" x="0" y="0" width="1900" height="200" viewBox="0 0 3325 350"><rect x="0px" y="0px" width="100%" height="100%" opacity="1" fill="#dbf5ff"/><defs><g transform="matrix(0.2360432783996811 0.06324760582598922 -0.06324760582598922 0.2360432783996811 318.1629651879624 294.9455000054788)" id="L1_351"><path d="M176.163,102.619c-7.147-28.385-18.406-50.87-32.919-66.111c-1.555-1.272-3.135-2.483-4.751-3.604    c-13.2-9.152-24.588-10.526-27.496-10.731c-8.617,2.304-14.023,11.019-12.136,19.839c0.35,1.634,0.953,3.164,1.735,4.577    c2.319,1.105,4.881,1.739,7.563,1.667c3.125-0.055,5.927,1.754,7.126,4.613c0.338,0.806,0.511,1.647,0.557,2.488    c3.093-0.023,5.858,1.774,7.047,4.609c1.198,2.858,0.518,6.159-1.711,8.314c-4.231,4.088-6.022,9.953-4.795,15.69    c0.35,1.636,0.953,3.166,1.735,4.579c2.195,1.044,4.607,1.676,7.144,1.676c1.186,0,2.383-0.127,3.557-0.379    c1.955-0.417,3.793-1.163,5.467-2.219c1.233-0.777,2.624-1.158,4.007-1.158c1.878,0,3.562,0.702,4.998,2.065    c1.431,1.358,2.129,3.175,2.129,5.042c0,0,0-0.002,0-0.002c0-0.001,0.257-0.008,0.296-0.008c1.878,0,3.832,0.702,5.268,2.065    c2.495,2.367,3.111,6.124,1.433,9.126c-2.003,3.58-2.61,7.758-1.752,11.763c0.35,1.637,0.965,3.168,1.747,4.582    c2.196,1.044,4.613,1.676,7.15,1.676c1.186,0,2.386-0.127,3.561-0.379c4.567-0.977,8.601-3.807,11.064-7.765    C176.483,110.949,177.185,106.682,176.163,102.619z" fill="#84bd93"/><g><path d="M237.401,25.563c13.193-9.147,24.577-10.975,27.491-10.975c-0.002,0-0.004,0-0.007,0    c-2.82,0-14.243,1.793-27.488,10.975c-0.185,0.128-0.362,0.274-0.545,0.404C237.036,25.836,237.215,25.691,237.401,25.563z" fill="#84bd93"/><path d="M269.429,42.012c1.887-8.82-3.519-17.535-12.136-19.839c-2.908,0.205-14.296,1.579-27.496,10.731    c-1.621,1.123-3.206,2.338-4.765,3.614c-14.507,15.242-25.763,37.723-32.907,66.103c-1.022,4.061-0.322,8.328,1.971,12.013    c2.463,3.957,6.495,6.787,11.065,7.766c1.174,0.252,2.371,0.379,3.556,0.379c2.539,0,4.952-0.633,7.149-1.678    c0.781-1.413,1.384-2.943,1.734-4.579c0.858-4.005,0.228-8.183-1.774-11.763c-1.678-3.001-1.107-6.759,1.388-9.126    c1.436-1.363,3.3-2.065,5.178-2.065c0.037,0,0.075,0.007,0.112,0.007c0.104-1.866,0.878-3.681,2.308-5.038    c2.493-2.369,6.274-2.743,9.185-0.909c1.676,1.056,3.515,1.802,5.466,2.218c1.177,0.253,2.374,0.38,3.56,0.38    c2.539,0,4.952-0.632,7.148-1.678c0.781-1.413,1.384-2.942,1.734-4.577c1.227-5.736-0.565-11.602-4.795-15.69    c-2.229-2.155-2.908-5.456-1.711-8.314c1.188-2.834,3.952-4.629,7.043-4.609c0.046-0.841,0.219-1.682,0.557-2.488    c1.198-2.859,4.011-4.66,7.126-4.613c2.687,0.076,5.246-0.553,7.559-1.651C268.473,45.188,269.078,43.653,269.429,42.012z" fill="#84bd93"/><path d="M252.421,56.955c0-0.002,0-0.003,0-0.005C252.421,56.952,252.421,56.953,252.421,56.955z" fill="#84bd93"/></g><g><path d="M189.002,180.038c-1.606-0.097-3.223-0.163-4.859-0.163    C185.78,179.875,187.397,179.941,189.002,180.038z" fill="#ce593f"/><path d="M189.944,180.096c1.551,0.112,3.087,0.266,4.604,0.466    C193.03,180.362,191.495,180.208,189.944,180.096z" fill="#ce593f"/><path d="M219.088,188.21c1.331,0.695,2.636,1.421,3.898,2.191c-8.654-3.486-18.398-5.688-28.705-5.688    c-24.364,0-45.613,10.874-56.608,26.874h15.271c4.154,0,7.521,3.346,7.521,7.5c0,4.154-3.367,7.5-7.521,7.5h-22.069    c-1.126,4-1.176,9.287-1.176,10.965c0,4.439,1.827,8.035,3.203,14.035h27.494c4.154,0,7.521,2.346,7.521,6.5    c0,4.154-3.367,6.5-7.521,6.5h-27.031l6.966,0.015l13.558,22.985h19.96c4.154,0,7.521,3.846,7.521,8s-3.367,8-7.521,8h-10.293    l20.586,32.504l56.286-78.451c0.025-0.034,0.054-0.078,0.079-0.111c0.022-0.033,0.04-0.075,0.063-0.108    c5.335-7.715,8.154-16.484,8.154-25.352C248.726,213.692,236.901,197.512,219.088,188.21z" fill="#ce593f"/><path d="M204.556,182.562c-1.478-0.399-2.973-0.767-4.497-1.08    C201.582,181.796,203.079,182.163,204.556,182.562z" fill="#ce593f"/></g><path d="M287.318,14.032c-4.635-7.158-11.779-12.081-20.117-13.866C266.708,0.061,265.601,0,265.601,0   c-2.372,0-54.018,0.966-81.462,77.19C156.694,0.978,105.057,0,102.685,0c0,0-1.106,0.061-1.599,0.166   C83.874,3.848,72.868,20.848,76.55,38.063c2.257,10.544,9.706,19.006,19.287,22.905c-2.493,5.914-3.162,12.527-1.766,19.053   c3.132,14.63,16.25,25.247,31.192,25.246c0.805,0,1.611-0.031,2.416-0.092c-0.056,2.467,0.175,4.949,0.699,7.397   c3.132,14.63,16.25,25.248,31.193,25.247c2.242,0,4.498-0.24,6.704-0.712c3.692-0.79,7.186-2.244,10.348-4.222v32.257   c-40.389,3.212-72.102,31.995-72.102,66.925c0,11.95,3.749,23.682,10.84,33.929c0.044,0.064,0.096,0.117,0.141,0.179   c0.047,0.071,0.087,0.143,0.137,0.212l60.984,84.974v9.412c0,4.154,3.367,7.521,7.521,7.521c4.154,0,7.521-3.367,7.521-7.521   v-9.411l60.985-84.975c0.047-0.066,0.085-0.135,0.13-0.201c0.054-0.073,0.113-0.14,0.165-0.215   c7.081-10.241,10.824-21.965,10.824-33.904c0-34.93-31.715-63.713-72.103-66.925v-32.257c3.162,1.977,6.657,3.432,10.35,4.222   c2.207,0.472,4.463,0.712,6.704,0.712c14.942,0,28.061-10.618,31.192-25.246c0.524-2.449,0.755-4.932,0.699-7.398   c0.806,0.061,1.612,0.092,2.417,0.092c14.943,0,28.06-10.617,31.192-25.247c1.395-6.526,0.727-13.138-1.767-19.051   c9.581-3.9,17.029-12.36,19.287-22.906C293.521,29.725,291.952,21.19,287.318,14.032z M260.127,48.256   c-3.115-0.047-5.928,1.754-7.126,4.613c-1.198,2.858-0.518,6.16,1.711,8.314c4.231,4.087,6.023,9.953,4.796,15.69   c-1.656,7.736-8.588,13.352-16.483,13.352c-1.186,0-2.383-0.127-3.56-0.38c-1.952-0.416-3.791-1.162-5.466-2.218   c-2.911-1.834-6.692-1.46-9.185,0.909c-2.494,2.367-3.065,6.124-1.387,9.126c2.002,3.578,2.631,7.756,1.773,11.763   c-1.656,7.737-8.588,13.353-16.483,13.353c-1.186,0-2.383-0.127-3.557-0.379c-4.569-0.978-8.602-3.808-11.065-7.766   c-2.294-3.685-2.994-7.952-1.971-12.013c9.063-36.002,24.718-62.563,45.271-76.815c13.245-9.183,24.668-10.535,27.488-10.732   c4.052,1.079,7.511,3.588,9.806,7.133c2.451,3.785,3.282,8.298,2.337,12.708C275.344,42.786,268.206,48.485,260.127,48.256z    M240.572,257.416c-0.023,0.033-0.04,0.068-0.063,0.102c-0.026,0.033-0.054,0.065-0.079,0.099l-56.286,78.427l-23.363-32.553   h13.069c4.154,0,7.521-3.367,7.521-7.521c0-4.154-3.367-7.521-7.521-7.521h-23.864l-16.62-23.158h27.031   c4.154,0,7.521-3.367,7.521-7.521c0-4.154-3.367-7.521-7.521-7.521h-36.772c-2.67-5.792-4.063-11.962-4.063-18.184   c0-1.678,0.108-3.337,0.3-4.977h33.083c4.154,0,7.521-3.367,7.521-7.521c0-4.154-3.367-7.521-7.521-7.521h-28.436   c9.736-18.872,32.797-32.174,59.634-32.174c35.611,0,64.582,23.413,64.582,52.192C248.726,240.935,245.906,249.702,240.572,257.416   z M159.57,122.778c-7.896,0-14.828-5.615-16.484-13.354c-0.858-4.005-0.228-8.183,1.774-11.763   c1.677-3.002,1.106-6.759-1.389-9.126c-1.437-1.363-3.3-2.065-5.178-2.065c-1.383,0-2.774,0.381-4.007,1.158   c-1.675,1.056-3.513,1.802-5.467,2.219c-1.174,0.252-2.371,0.379-3.557,0.379c-7.895,0-14.827-5.615-16.483-13.352   c-1.227-5.736,0.565-11.602,4.795-15.69c2.229-2.155,2.909-5.456,1.711-8.314c-1.199-2.859-4.001-4.668-7.126-4.613   c-8.035,0.214-15.217-5.47-16.901-13.341c-1.887-8.82,3.519-17.535,12.136-19.839c2.907,0.205,14.296,1.579,27.496,10.731   c20.554,14.25,36.209,40.812,45.273,76.811c1.021,4.063,0.321,8.33-1.973,12.016c-2.463,3.957-6.495,6.787-11.063,7.765   C161.953,122.651,160.756,122.778,159.57,122.778z" fill="#3f2d20"/></g><g transform="matrix(0.049530696123838425 0 0 0.049530696123838425 77.5 340)" id="L1_352"><path d="M119.044,196.806c2.745,0.723,5.606,0.335,8.058-1.094c2.452-1.429,4.201-3.727,4.925-6.472   c0.723-2.744,0.335-5.605-1.093-8.057l-13.004-22.306c-7.523,1.337-14.814,2.854-21.819,4.552l16.473,28.471   C114.002,194.333,116.3,196.081,119.044,196.806z" fill="#ef8829"/><path d="M215.921,195.712c2.453-1.429,4.201-3.727,4.925-6.472c0.722-2.744,0.335-5.605-1.095-8.057   l-17.076-29.307c-0.26-0.001-0.521-0.004-0.783-0.004c-7.924,0-15.774,0.174-23.514,0.515l23.011,39.494   C204.34,196.942,210.859,198.661,215.921,195.712z" fill="#ef8829"/><path d="M269.435,156.301l20.77,35.573c1.433,2.458,3.731,4.207,6.476,4.931   c2.746,0.723,5.607,0.335,8.059-1.094c5.062-2.949,6.781-9.468,3.831-14.529l-11.697-20.182   C288.081,159.165,278.91,157.595,269.435,156.301z" fill="#ef8829"/><g><path d="M382.375,199.53c-1.535-1.881-3.338-3.746-5.405-5.589    C379.035,195.783,380.841,197.649,382.375,199.53z" fill="#fdd44b"/><path d="M366,185.865c2.628,1.635,5.044,3.3,7.237,4.99C371.042,189.165,368.629,187.5,366,185.865z" fill="#fdd44b"/><path d="M336.751,172.109c0.653,0.237,1.277,0.482,1.919,0.722c-0.639-0.239-1.247-0.485-1.897-0.722    c-6.219-2.26-12.806-4.341-19.701-6.243l0.004,0.007C323.961,167.774,330.54,169.852,336.751,172.109z" fill="#fdd44b"/><path d="M385.649,204.25c-8.599-6.156-20.152-11.965-34.301-17.107c-6.216-2.259-20.686-6.722-27.585-8.626    c1.544,4.666,1.724,9.686,0.439,14.556c-1.748,6.627-5.973,12.177-11.894,15.629c-3.974,2.316-8.394,3.499-12.875,3.499    c-2.197,0.001-4.406-0.284-6.585-0.858c-6.628-1.748-12.178-5.972-15.628-11.893l-26.453-45.303l8.466,14.499    c-7.988-0.659-22.019-1.247-30.277-1.529l-8.7-14.929l12.486,21.427c3.449,5.922,4.389,12.833,2.641,19.46    c-1.748,6.627-5.973,12.177-11.895,15.629c-3.974,2.316-8.394,3.499-12.875,3.499c-2.197,0.001-4.407-0.284-6.586-0.858    c-6.628-1.748-12.178-5.972-15.627-11.893l-26.827-46.041l9.034,15.505c-7.534,0.669-20.287,2.308-27.5,3.302l0.814,1.397    c3.451,5.924,4.389,12.835,2.641,19.462c-1.748,6.627-5.971,12.177-11.893,15.629c-3.974,2.316-8.395,3.499-12.875,3.499    c-2.197,0-4.407-0.284-6.586-0.858c-6.628-1.748-12.178-5.972-15.628-11.893l-8.903-15.388c-3.096,0.989-6.124,2.015-9.065,3.083    c-33.035,12.007-51.982,27.638-51.982,42.888c0,2.729,0.111,5.292,0.61,7.706c2.828,1.218,6.134,2.382,10.105,3.486    c26.602,7.397,76.426,10.695,161.546,10.695c85.124,0,134.946-3.299,161.549-10.695c23.497-6.534,25.314-14.99,25.314-26.226    C388.756,211.418,387.673,207.819,385.649,204.25z" fill="#fdd44b"/></g><path d="M341.909,157.98c-37.517-13.635-87.242-21.143-140.016-21.143   c-52.772,0-102.497,7.508-140.012,21.143C21.977,172.483,0,192.732,0,214.997c0,21.744,10.523,33.538,36.32,40.711   c27.969,7.776,79.033,11.244,165.573,11.244c172.715,0,201.897-12.973,201.897-51.956   C403.79,192.732,381.813,172.483,341.909,157.98z M363.443,241.223c-26.604,7.397-76.426,10.695-161.55,10.695   c-85.121,0-134.944-3.299-161.546-10.695c-23.497-6.532-25.313-14.99-25.313-26.226c0-15.249,18.947-30.881,51.982-42.887   c4.507-1.638,9.202-3.183,14.067-4.633l18.499,31.972c3.45,5.922,9,10.145,15.628,11.893c2.18,0.574,4.39,0.858,6.586,0.858   c4.48,0,8.901-1.184,12.875-3.499c5.922-3.451,10.145-9.001,11.893-15.628c1.748-6.627,0.811-13.539-2.641-19.462l-10.055-17.245   c8.983-1.237,18.24-2.226,27.707-2.958l26.827,46.041c3.449,5.922,8.999,10.145,15.627,11.893c2.179,0.574,4.389,0.859,6.585,0.858   c4.481,0,8.901-1.184,12.875-3.499c5.922-3.451,10.146-9.001,11.894-15.628s0.808-13.539-2.641-19.46l-12.485-21.427   c10.379,0.355,20.572,1.014,30.511,1.96l26.453,45.303c3.449,5.922,8.999,10.145,15.627,11.893   c2.179,0.574,4.389,0.859,6.585,0.858c4.481,0,8.901-1.184,12.875-3.499c5.922-3.451,10.146-9.001,11.894-15.628   c1.748-6.627,0.808-13.539-2.633-19.446l-4.498-7.761c6.895,1.902,13.482,3.983,19.701,6.243   c33.036,12.007,51.984,27.638,51.984,42.887C388.756,226.233,386.939,234.69,363.443,241.223z M304.74,195.712   c-2.453,1.429-5.313,1.818-8.059,1.094c-2.744-0.724-5.043-2.473-6.476-4.931l-20.77-35.573c9.475,1.294,18.646,2.864,27.44,4.699   l11.697,20.182C311.522,186.244,309.803,192.763,304.74,195.712z M178.379,152.386c7.74-0.341,15.59-0.515,23.514-0.515   c0.262,0,0.523,0.003,0.783,0.004l17.076,29.307c1.429,2.452,1.817,5.314,1.095,8.057c-0.724,2.744-2.473,5.043-4.925,6.472   c-5.062,2.949-11.581,1.23-14.531-3.831L178.379,152.386z M96.111,163.429c7.005-1.698,14.296-3.215,21.819-4.552l13.004,22.306   c1.428,2.452,1.817,5.314,1.093,8.057c-0.724,2.744-2.473,5.043-4.925,6.472c-2.452,1.429-5.313,1.818-8.058,1.094   c-2.745-0.724-5.043-2.473-6.46-4.906L96.111,163.429z" fill="#3f2d20"/></g><g transform="matrix(0.12324491888284683 0 0 0.12324491888284683 155 330)" id="L1_353"><path d="M242.129,213.689 242.129,226.283 251.69,226.283z" fill="#ef8829"/><rect x="215px" y="195px" width="13px" height="98px" fill="#84bd93"/><path d="M129.483,212.909l6.19,8.155c-1.927,5.273-2.883,8.961-3.304,11.558    c3.12,0.552,7.39,0.877,12.814,0.969L129.483,212.909c-2.899,7.927-3.625,12.311-3.599,14.725    C125.858,225.22,126.585,220.836,129.483,212.909z" fill="#ef8829"/><path d="M191.462,195.558 172.162,196.099 194.317,224.575 195.195,199.854z" fill="#ef8829"/><path d="M155.828,197.666c-3.508,1.355-8.454,4.196-12.587,9.09l16.279,21.066   c3.65-0.836,7.916-1.089,12.942-1.089h4.661L155.828,197.666z" fill="#ef8829"/><path d="M260,187.733H242.13l0,0H260l6.166,8h-18.446c0,0-1.73-2.05-3.265-4.053l26.444,34.941   c8.263,0.975,13.93,3.571,17.732,6.94c2.114-0.017,4.068-0.185,5.861-0.266L260,187.733z" fill="#ef8829"/><path d="M304.721,209.445c-0.866-2.019-1.806-3.789-2.773-5.446c-8.305-8.105-16.875-7.852-16.875-7.852    l-6.046-7.922l30.562,40.263C309.846,226.053,310.296,222.448,304.721,209.445z" fill="#ef8829"/><g><path d="M156.907,284.175c2.999,5.514,8.847,9.265,15.554,9.265    C165.754,293.44,159.907,289.689,156.907,284.175z" fill="#fdd44b"/><path d="M182.971,239.733c-17.693,0-19.424,7.555-19.424,11.506v5.766c0,0.086-0.905,0.213-1.289,0.363    c0.868-0.339,1.741-0.532,2.683-0.532c1.976,0,3.883,0.802,5.286,2.196c1.402,1.403,2.191,3.336,2.191,5.322    c0,1.974-0.809,3.909-2.211,5.312c-1.404,1.404-3.341,2.205-5.316,2.205c-0.944,0-1.767-0.193-2.637-0.535    c0.386,0.151,1.293,0.28,1.293,0.366v4.046c0,9.755,8.244,18.369,18,18.369l14,0.432v-54.818H182.971z M184.011,283.478    c-1.394,1.403-3.338,2.205-5.313,2.205c-1.983,0-3.919-0.803-5.321-2.205c-1.394-1.403-2.197-3.338-2.197-5.312    c0-1.985,0.803-3.919,2.197-5.323c1.402-1.393,3.338-2.194,5.321-2.194c1.975,0,3.919,0.801,5.313,2.194    c1.403,1.404,2.204,3.338,2.204,5.323C186.215,280.14,185.414,282.074,184.011,283.478z M189.071,264.615    c-1.402,1.394-3.336,2.195-5.321,2.195c-1.975,0-3.919-0.802-5.313-2.195c-1.403-1.403-2.204-3.338-2.204-5.322    c0-1.975,0.801-3.91,2.204-5.312c1.404-1.404,3.338-2.205,5.313-2.205c1.973,0,3.919,0.801,5.321,2.205    c1.394,1.403,2.196,3.337,2.196,5.312C191.267,261.277,190.465,263.212,189.071,264.615z" fill="#fdd44b"/></g><path d="M280.751,275.749v-24.51c0-3.624-1.783-9.922-17.691-9.922h-20.931v52.123h20.931   C272.815,293.44,280.751,285.504,280.751,275.749z M265.315,259.033c1.404-1.394,3.338-2.196,5.323-2.196   c1.985,0,3.919,0.802,5.313,2.196c1.401,1.403,2.204,3.337,2.204,5.322c0,1.974-0.803,3.909-2.204,5.312   c-1.404,1.403-3.338,2.205-5.313,2.205c-1.975,0-3.919-0.802-5.323-2.205c-1.392-1.403-2.195-3.338-2.195-5.312   C263.12,262.369,263.923,260.435,265.315,259.033z M244.257,259.293c0-1.975,0.793-3.909,2.195-5.312   c1.403-1.404,3.338-2.205,5.323-2.205c1.975,0,3.909,0.801,5.313,2.205c1.392,1.402,2.195,3.337,2.195,5.312   c0,1.984-0.803,3.919-2.195,5.322c-1.403,1.394-3.338,2.195-5.313,2.195c-1.985,0-3.929-0.802-5.323-2.195   C245.05,263.212,244.257,261.277,244.257,259.293z M256.827,285.683c-1.985,0-3.919-0.802-5.313-2.205   c-1.403-1.403-2.204-3.338-2.204-5.312c0-1.985,0.801-3.919,2.204-5.323c1.394-1.393,3.328-2.194,5.313-2.194   c1.973,0,3.919,0.801,5.311,2.194c1.404,1.404,2.206,3.338,2.206,5.323c0,1.974-0.802,3.908-2.206,5.312   C260.746,284.88,258.8,285.683,256.827,285.683z" fill="#fdd44b"/><path d="M170.2,259.033c-1.403-1.394-3.338-2.196-5.313-2.196c-1.984,0-3.919,0.802-5.322,2.196   c-1.393,1.403-2.195,3.337-2.195,5.322c0,1.974,0.802,3.909,2.195,5.312c1.403,1.403,3.338,2.205,5.322,2.205   c1.975,0,3.909-0.802,5.313-2.205c1.402-1.403,2.204-3.338,2.204-5.312C172.404,262.369,171.602,260.435,170.2,259.033z" fill="#3f2d20"/><path d="M173.377,283.478c1.402,1.403,3.338,2.205,5.321,2.205c1.975,0,3.919-0.802,5.313-2.205   c1.403-1.403,2.204-3.338,2.204-5.312c0-1.985-0.801-3.919-2.204-5.323c-1.394-1.393-3.338-2.194-5.313-2.194   c-1.983,0-3.919,0.801-5.321,2.194c-1.394,1.404-2.197,3.338-2.197,5.323C171.181,280.14,171.983,282.074,173.377,283.478z" fill="#3f2d20"/><path d="M183.75,266.81c1.985,0,3.919-0.802,5.321-2.195c1.394-1.403,2.196-3.338,2.196-5.322   c0-1.975-0.802-3.909-2.196-5.312c-1.402-1.404-3.347-2.205-5.321-2.205c-1.975,0-3.909,0.801-5.313,2.205   c-1.403,1.402-2.204,3.337-2.204,5.312c0,1.984,0.801,3.919,2.204,5.322C179.831,266.008,181.775,266.81,183.75,266.81z" fill="#3f2d20"/><path d="M270.638,271.871c1.975,0,3.909-0.802,5.313-2.205c1.401-1.403,2.204-3.338,2.204-5.312   c0-1.985-0.803-3.919-2.204-5.322c-1.394-1.394-3.328-2.196-5.313-2.196c-1.985,0-3.919,0.802-5.323,2.196   c-1.392,1.403-2.195,3.337-2.195,5.322c0,1.974,0.803,3.909,2.195,5.312C266.719,271.07,268.662,271.871,270.638,271.871z" fill="#3f2d20"/><path d="M262.138,272.843c-1.392-1.393-3.338-2.194-5.311-2.194c-1.985,0-3.919,0.801-5.313,2.194   c-1.403,1.404-2.204,3.338-2.204,5.323c0,1.974,0.801,3.908,2.204,5.312c1.394,1.403,3.328,2.205,5.313,2.205   c1.973,0,3.919-0.802,5.311-2.205c1.404-1.403,2.206-3.338,2.206-5.312C264.344,276.181,263.541,274.247,262.138,272.843z" fill="#3f2d20"/><path d="M257.087,264.615c1.392-1.403,2.195-3.338,2.195-5.322c0-1.975-0.803-3.909-2.195-5.312   c-1.403-1.404-3.338-2.205-5.313-2.205c-1.985,0-3.919,0.801-5.323,2.205c-1.402,1.402-2.195,3.337-2.195,5.312   c0,1.984,0.793,3.919,2.195,5.322c1.394,1.394,3.338,2.195,5.323,2.195C253.75,266.81,255.684,266.008,257.087,264.615z" fill="#3f2d20"/><path d="M318.708,203.93c-11.589-29.383-36.803-30.884-37.871-30.934c-0.115-0.005-0.231-0.008-0.347-0.008   H155.031c-0.116,0-0.232,0.003-0.348,0.008c-1.068,0.05-26.283,1.55-37.87,30.935c-5.82,14.76-8.525,26.313-2.804,34.718   c4.693,6.895,13.064,9.217,25.726,9.823c-0.08,0.932,0,27.278,0,27.278c0,18.045,14.681,32.725,32.726,32.725h90.599   c18.045,0,32.725-14.68,32.725-32.725c0,0,0.08-26.346,0-27.278c12.174,0,21.578-3.287,25.726-9.823   C326.961,230.064,324.528,218.691,318.708,203.93z M242.129,213.689l9.561,12.594h-9.561V213.689z M242.129,241.317h20.931   c15.907,0,17.691,6.297,17.691,9.922v24.51c0,9.755-7.936,17.691-17.691,17.691h-20.931V241.317z M288.632,233.613   c-3.802-3.369-9.469-5.913-17.732-6.889l-28.483-37.523c-0.092-0.12-0.192-0.229-0.288-0.341v-0.839H260l34.492,45.443   C292.7,233.547,290.746,233.596,288.632,233.613z M278.873,188.022c0,0,16.446-0.509,25.848,21.423   c5.575,13.003,5.125,16.608,4.868,19.043L278.873,188.022z M193.39,293.44h-20.928c-9.756,0-17.692-7.936-17.692-17.691v-24.51   c0-3.951,0-9.922,17.692-9.922h20.928V293.44z M126.437,230.19c-0.669-0.984-1.591-4.598,3.046-17.282l15.7,20.684   C134.161,233.404,127.849,232.264,126.437,230.19z M149.584,189.464l27.538,36.819h-4.661c-5.025,0-9.309,0.47-12.959,1.306   l-22.205-29.253C141.466,193.399,146.064,190.81,149.584,189.464z M193.39,198.685v24.247l-26.11-34.91h18.016L193.39,198.685z    M227.095,293.44h-18.671V188.022h18.671V293.44z" fill="#3f2d20"/><path d="M215.583,86.58c-2.081-0.311-4.478,0.153-7.51,0.153h-22.69c1.975,0,3.919,0.159,5.313,1.562    c1.404,1.392,2.204,3.016,2.204,4.99c0,1.984-0.801,3.758-2.204,5.151c-1.394,1.404-3.328,2.125-5.313,2.125    c-1.983,0-3.919-0.842-5.311-2.245c-1.404-1.393-2.206-3.348-2.206-5.332c0-1.974,0.803-3.276,2.206-4.679    c1.404-1.404,3.338-1.572,5.311-1.572H152.77c1.974,0,3.909,0.159,5.312,1.562c1.403,1.403,2.205,3.016,2.205,4.99    c0,1.974-0.802,3.758-2.205,5.151c-1.393,1.404-3.338,2.125-5.312,2.125c-1.985,0-3.919-0.842-5.322-2.245    c-1.393-1.393-2.195-3.348-2.195-5.332c0-1.974,0.802-3.286,2.195-4.679c1.403-1.404,3.348-1.572,5.322-1.572h-32.614    c1.974,0,3.909,0.159,5.312,1.562c1.403,1.403,2.205,3.016,2.205,4.99c0,1.974-0.802,3.758-2.205,5.151    c-1.393,1.404-3.338,2.125-5.312,2.125c-1.984,0-3.919-0.842-5.312-2.245c-1.403-1.393-2.205-3.348-2.205-5.332    c0-1.974,0.802-3.286,2.205-4.679c1.393-1.404,3.328-1.572,5.312-1.572h-2.68c-17.692,0-18.929,4.685-18.929,8.635v24.51    c0,3.474,1.638,6.705,3.376,9.438c-3.659-1.064-6.522-2.936-8.79-5.878c3.236,4.218,8.621,7.295,14.337,7.295h90.599    c9.755,0,17.478-8.619,17.478-18.374v-24.51C215.546,87.249,215.645,87.244,215.583,86.58z M114.442,120.326    c-1.403,1.394-3.338,2.205-5.322,2.205c-1.974,0-3.909-0.811-5.312-2.205c-1.393-1.392-2.195-3.338-2.195-5.312    c0-1.985,0.802-3.919,2.195-5.322c1.403-1.394,3.337-2.195,5.312-2.195c1.985,0,3.919,0.801,5.322,2.195    c1.403,1.403,2.205,3.337,2.205,5.322C116.648,116.988,115.845,118.934,114.442,120.326z M144.049,120.326    c-1.403,1.394-3.337,2.205-5.311,2.205c-1.985,0-3.919-0.811-5.322-2.205c-1.393-1.403-2.195-3.338-2.195-5.312    c0-1.985,0.802-3.919,2.195-5.322c1.403-1.394,3.338-2.195,5.322-2.195c1.974,0,3.909,0.801,5.311,2.195    c1.403,1.403,2.206,3.337,2.206,5.322C146.255,116.988,145.453,118.923,144.049,120.326z M172.125,120.326    c-1.404,1.394-3.338,2.205-5.323,2.205c-1.975,0-3.919-0.811-5.312-2.205c-1.403-1.403-2.205-3.338-2.205-5.312    c0-1.985,0.802-3.919,2.205-5.322c1.393-1.394,3.337-2.195,5.312-2.195c1.973,0,3.919,0.801,5.323,2.195    c1.392,1.403,2.194,3.348,2.194,5.322S173.516,118.923,172.125,120.326z M201.721,120.326c-1.394,1.394-3.328,2.205-5.313,2.205    c-1.973,0-3.919-0.811-5.311-2.205c-1.404-1.403-2.206-3.338-2.206-5.312c0-1.985,0.802-3.919,2.206-5.322    c1.404-1.394,3.338-2.195,5.311-2.195c1.985,0,3.919,0.801,5.313,2.195c1.404,1.403,2.204,3.337,2.204,5.322    C203.925,116.988,203.125,118.934,201.721,120.326z" fill="#fdd44b"/><path d="M42.614,78.125c-9.856,9.856-11.564,13.763-11.86,14.833c0.21,0.268,2.035,1.981,3.664,3.496    c2.144-1.011,6.155-3.66,13.099-10.604c5.041-5.041,8.124-11.409,10.023-17.022C52.492,70.762,47.051,73.688,42.614,78.125z" fill="#ce593f"/><g><path d="M31.479,54.182c5.073-1.444,10.6-1.449,15.3-1.449c0.002,0,0.004,0,0.006,0    c-4.701,0-10.231,0.003-15.306,1.448c-13.407,3.814-15.933,6.578-17.933,7.368c0,0,0-0.046,0-0.046    C15.546,60.711,18.074,57.995,31.479,54.182z" fill="#ce593f"/><path d="M36.45,56.256c-13.407,3.815-16.8,6.397-17.579,7.186c0.073,0.465,1.255,4.627,2.011,6.841    c0.65-0.028,1.361-0.075,2.219-0.175c1.304-1.399,2.719-2.863,4.266-4.409c4.692-4.693,10.059-8.106,15.313-10.609    C40.612,55.299,38.523,55.665,36.45,56.256z" fill="#ce593f"/></g><path d="M183.492,42.733 161.751,42.733 172.865,66.733 194.607,66.733z" fill="#ce593f"/><path d="M135.095,32.043l5.321,10.689h-2.698c-0.198,0-7.932,0.014-17.286,1.504l9.827,19.496h20.782   L135.095,32.043z" fill="#ce593f"/><path d="M231.835,50.897c0.333,0.547,0.641,1.092,0.927,1.633c-8.152-5.405-19.142-8.277-28.32-9.665    l11.442,22.804c-0.023-0.009-0.049-0.016-0.072-0.024c4.472,1.696,7.7,4.065,9.976,6.806c3.195,2.185,5.186,0.944,6.431-0.232    C235.704,68.93,237.649,60.331,231.835,50.897z" fill="#ce593f"/><g><path d="M101.012,47.128 95.589,36.322 95.588,36.323z" fill="#ce593f"/><path d="M101.645,48.391c-6.995,3.022-12.61,7.412-14.024,13.785c6.612,1.111,15.048,0.847,21.217,0.547    L101.645,48.391z" fill="#ce593f"/></g><path d="M158.082,87.652c-1.403-1.403-3.338-2.205-5.312-2.205c-1.975,0-3.919,0.802-5.322,2.205   c-1.393,1.393-2.195,3.338-2.195,5.312c0,1.984,0.802,3.919,2.195,5.312c1.403,1.404,3.338,2.205,5.322,2.205   c1.974,0,3.919-0.801,5.312-2.205c1.403-1.393,2.205-3.338,2.205-5.312C160.287,90.99,159.485,89.055,158.082,87.652z" fill="#3f2d20"/><path d="M120.155,85.447c-1.984,0-3.919,0.802-5.312,2.205c-1.403,1.393-2.205,3.338-2.205,5.312   c0,1.984,0.801,3.919,2.205,5.312c1.393,1.404,3.328,2.205,5.312,2.205c1.974,0,3.919-0.801,5.312-2.205   c1.403-1.393,2.205-3.338,2.205-5.312c0-1.974-0.802-3.909-2.205-5.312C124.064,86.249,122.129,85.447,120.155,85.447z" fill="#3f2d20"/><path d="M192.9,92.964c0-1.974-0.801-3.919-2.204-5.312c-1.394-1.403-3.338-2.205-5.313-2.205   c-1.973,0-3.907,0.802-5.311,2.205c-1.404,1.403-2.206,3.338-2.206,5.312c0,1.984,0.802,3.919,2.206,5.312   c1.392,1.404,3.328,2.205,5.311,2.205c1.985,0,3.919-0.801,5.313-2.205C192.099,96.883,192.9,94.948,192.9,92.964z" fill="#3f2d20"/><path d="M138.738,107.497c-1.984,0-3.919,0.801-5.322,2.195c-1.393,1.403-2.195,3.337-2.195,5.322   c0,1.974,0.802,3.909,2.195,5.312c1.403,1.394,3.338,2.205,5.322,2.205c1.974,0,3.909-0.811,5.312-2.205   c1.403-1.403,2.205-3.338,2.205-5.312c0-1.985-0.802-3.919-2.205-5.322C142.647,108.299,140.712,107.497,138.738,107.497z" fill="#3f2d20"/><path d="M166.802,107.497c-1.975,0-3.919,0.801-5.312,2.195c-1.403,1.403-2.205,3.337-2.205,5.322   c0,1.974,0.802,3.909,2.205,5.312c1.393,1.394,3.338,2.205,5.312,2.205c1.985,0,3.919-0.811,5.323-2.205   c1.392-1.403,2.194-3.338,2.194-5.312c0-1.974-0.802-3.919-2.194-5.322C170.721,108.299,168.775,107.497,166.802,107.497z" fill="#3f2d20"/><path d="M109.12,107.497c-1.974,0-3.909,0.801-5.312,2.195c-1.393,1.403-2.195,3.337-2.195,5.322   c0,1.974,0.802,3.919,2.195,5.312c1.403,1.394,3.338,2.205,5.312,2.205c1.984,0,3.919-0.811,5.322-2.205   c1.403-1.393,2.205-3.338,2.205-5.312c0-1.985-0.802-3.919-2.205-5.322C113.039,108.299,111.104,107.497,109.12,107.497z" fill="#3f2d20"/><path d="M203.925,115.014c0-1.985-0.801-3.919-2.204-5.322c-1.394-1.394-3.328-2.195-5.313-2.195   c-1.973,0-3.907,0.801-5.311,2.195c-1.403,1.403-2.206,3.337-2.206,5.322c0,1.974,0.802,3.909,2.206,5.312   c1.392,1.394,3.338,2.205,5.311,2.205c1.985,0,3.919-0.811,5.313-2.205C203.124,118.933,203.925,116.988,203.925,115.014z" fill="#3f2d20"/><path d="M230.793,112.359v-23.72c4.213-0.381,8.277-2.21,11.749-5.489c9.14-8.631,12.225-26.051,0.44-42.644   c-17.307-24.373-60.383-24.44-62.179-24.422h-52.911c-0.023,0-0.045,0-0.069,0c-4.325,0-39.596,0.531-56.489,17.402   c-2.61,2.608-4.653,5.456-6.124,8.527c-7.958-2.717-22.661-6.236-37.494-2.016c-16.031,4.561-23.55,8.655-26.817,14.601   c-2.929,5.328,1.351,25.986,11.778,29.756c-1.126,2.535-1.649,4.87-1.636,7.149c0.035,6.081,14.675,20.607,21.37,20.607   c7.082,0,14.779-4.675,25.734-15.629c7.368-7.368,11.62-16.404,14.066-24.043c1.74,1.077,3.64,1.961,5.659,2.677   c-2.349,4.012-3.131,8.522-3.131,12.734v24.51c0,18.045,14.681,32.726,32.726,32.726h90.599   C216.113,145.085,230.793,130.404,230.793,112.359z M89.777,112.359v-24.51c0-3.95,0-9.921,17.692-9.921h90.599   c17.691,0,17.691,5.971,17.691,9.921v24.51c0,9.756-7.936,17.692-17.691,17.692h-90.599   C97.714,130.05,89.777,122.114,89.777,112.359z M95.589,36.322l13.249,26.401c-9.635,0.469-24.824,0.867-29.908-3.961   c-0.739-0.702-1.496-1.725-1.496-3.984C77.434,45.404,85.727,39.742,95.589,36.322z M230.727,49.211   c7.159,10.082,5.184,19.524,1.493,23.008c-1.245,1.176-3.236,2.417-6.431,0.232c-3.083-3.712-7.893-6.75-15.203-8.343   l-15.98-31.846C207.263,34.177,223.393,38.886,230.727,49.211z M167.862,62.894l-15.946-31.776h25.296l15.944,31.776H167.862z    M125.744,62.894l-15.148-30.185c9.355-1.49,17.089-1.59,17.287-1.59h7.211l15.945,31.776H125.744z M26.137,91.162   c0.295-1.07,2.004-4.977,11.86-14.833c6.2-6.2,14.366-9.466,20.672-11.165c-1.707,6.322-4.976,14.509-11.152,20.685   C36.832,96.535,33.062,97.076,32.414,97.076C32.414,97.076,26.524,91.656,26.137,91.162z M16.82,69.841   c-0.398-0.374-2.47-7.577-2.568-8.197c0.779-0.79,4.172-3.372,17.58-7.186c5.075-1.445,10.252-1.611,14.953-1.171   c-6.489,2.576-13.494,6.487-19.419,12.412c-1.546,1.547-2.962,3.011-4.266,4.41C18.069,70.694,16.831,69.85,16.82,69.841z" fill="#3f2d20"/></g><g transform="matrix(0.062431130558252335 0 0 0.062431130558252335 252.5 340)" id="L1_354"><path d="M158.038,47.492V80.56c0,0,6-0.307,9,0V50.671c0-2.783-0.991-15.923,8.129-21.857   c3.756-2.444,6.871-3.171,12.871-2.188v-4.045c0-0.26-3.069-0.406-4.563-0.406C169.514,22.175,158.038,33.533,158.038,47.492z" fill="#84bd93"/><g><path d="M213.173,200.224c0-19.581-2.865-38.118-7.791-54.014    C210.308,162.107,213.173,180.643,213.173,200.224L213.173,200.224z" fill="#ef8829"/><path d="M193.682,119.481c3.283,5.404,6.247,11.564,8.814,18.33    C199.929,131.045,196.965,124.886,193.682,119.481z" fill="#ef8829"/><path d="M115.078,146.21c0.896-2.89,1.859-5.693,2.886-8.399    C116.937,140.517,115.974,143.32,115.078,146.21z" fill="#ef8829"/><path d="M202.496,137.811c1.027,2.706,1.991,5.509,2.887,8.399    C204.487,143.32,203.523,140.517,202.496,137.811z" fill="#ef8829"/><path d="M117.964,137.811c2.568-6.766,5.531-12.925,8.814-18.33    C123.495,124.886,120.532,131.045,117.964,137.811z" fill="#ef8829"/><path d="M115.078,146.21c-4.926,15.897-7.791,34.433-7.791,54.014l0,0    C107.287,180.643,110.152,162.107,115.078,146.21z" fill="#ef8829"/><path d="M212.918,210.18c0.164-3.284,0.255-6.602,0.255-9.955    C213.173,203.578,213.083,206.897,212.918,210.18z" fill="#ef8829"/><path d="M160.23,115.403c-26.974,0-50.012,42.517-52.682,94.928c2.658,52.433,25.699,94.98,52.682,94.98    c26.983,0,50.023-42.546,52.682-94.978C210.243,157.922,187.205,115.403,160.23,115.403z" fill="#ef8829"/><path d="M107.542,210.169c-0.164-3.28-0.255-6.595-0.255-9.944    C107.287,203.574,107.378,206.889,107.542,210.169z" fill="#ef8829"/></g><g><path d="M17.245,217.149c-0.396-2.437-0.717-4.91-0.994-7.402C16.527,212.239,16.85,214.711,17.245,217.149    z" fill="#ef8829"/><path d="M16.122,208.577c-0.248-2.396-0.441-4.815-0.578-7.254    C15.681,203.763,15.875,206.18,16.122,208.577z" fill="#ef8829"/><path d="M18.708,224.807c-0.547-2.497-1.035-5.029-1.453-7.598    C17.673,219.778,18.162,222.309,18.708,224.807z" fill="#ef8829"/><path d="M15.487,200.085c-0.121-2.525-0.2-5.065-0.2-7.626C15.286,195.02,15.366,197.56,15.487,200.085z" fill="#ef8829"/><path d="M35.533,197.711c0-30.714,7.358-59.702,20.716-81.647c-6.227,4.546-12.019,10.851-17.116,18.802    c-11.927,18.606-18.496,43.491-18.496,70.076c0,17.391,2.828,34.042,8.112,48.697c1.558,3.093,3.226,6.073,5.034,8.893    c7.897,12.319,17.451,20.735,27.73,24.674c-1.796-2.431-3.531-5.004-5.193-7.726C42.915,257.521,35.533,228.482,35.533,197.711z" fill="#ef8829"/><path d="M20.602,232.399c-0.67-2.389-1.283-4.817-1.829-7.286C19.318,227.583,19.933,230.01,20.602,232.399    z" fill="#ef8829"/><path d="M28.745,253.633c-3.235-6.426-5.918-13.407-8.019-20.794    C22.825,240.23,25.509,247.207,28.745,253.633z" fill="#ef8829"/></g><g><path d="M50.842,207.257c0.142,2.625,0.349,5.224,0.607,7.802    C51.192,212.482,50.984,209.882,50.842,207.257z" fill="#ef8829"/><path d="M51.6,216.489c0.28,2.576,0.611,5.128,1.006,7.648C52.211,221.618,51.88,219.065,51.6,216.489z" fill="#ef8829"/><path d="M56.623,152.945c0.88-3.063,1.852-6.055,2.915-8.967C58.475,146.89,57.503,149.883,56.623,152.945z    " fill="#ef8829"/><path d="M55.372,157.591c-3.148,12.523-4.798,26.098-4.798,40.12v0    C50.574,183.69,52.224,170.114,55.372,157.591z" fill="#ef8829"/><path d="M52.785,225.209c0.864,5.281,1.978,10.421,3.331,15.388    C54.762,235.631,53.649,230.49,52.785,225.209z" fill="#ef8829"/><path d="M61.489,256.43c-0.903-2.181-1.746-4.419-2.542-6.697C59.743,252.012,60.586,254.249,61.489,256.43    z" fill="#ef8829"/><path d="M50.574,197.712c0,2.8,0.084,5.576,0.214,8.336C50.658,203.289,50.574,200.513,50.574,197.712z" fill="#ef8829"/><path d="M58.55,248.58c-0.773-2.28-1.497-4.602-2.161-6.969C57.053,243.978,57.777,246.299,58.55,248.58z" fill="#ef8829"/><path d="M116.677,107.35c-0.07,0.102-0.145,0.192-0.214,0.294c-0.284-0.008-0.566-0.022-0.85-0.022    c-15.23,0-29.829,10.173-41.105,28.643c-11.983,19.63-18.583,45.886-18.583,73.93c0,19.258,3.113,37.674,8.945,53.678    c-1.075-2.154-2.081-4.383-3.041-6.656c2.158,5.109,4.597,9.946,7.33,14.424c11.276,18.473,25.875,28.645,41.106,28.645    c3.532,0,7.037-0.566,10.491-1.659c-17.363-21.553-28.508-57.255-28.508-98.404C92.246,162.403,101.673,129.211,116.677,107.35z" fill="#ef8829"/></g><g><path d="M267.748,224.137c0.395-2.519,0.726-5.072,1.006-7.648    C268.474,219.065,268.143,221.618,267.748,224.137z" fill="#ef8829"/><path d="M266.104,233.022c0.555-2.563,1.033-5.175,1.464-7.813    C267.137,227.847,266.66,230.459,266.104,233.022z" fill="#ef8829"/><path d="M266.104,233.025c-0.556,2.567-1.188,5.084-1.865,7.568    C264.916,238.109,265.548,235.592,266.104,233.025z" fill="#ef8829"/><path d="M269.779,197.711c0-14.022-1.65-27.597-4.798-40.12    C268.129,170.114,269.779,183.69,269.779,197.711L269.779,197.711z" fill="#ef8829"/><path d="M268.904,215.059c0.258-2.578,0.466-5.177,0.608-7.802    C269.369,209.882,269.162,212.482,268.904,215.059z" fill="#ef8829"/><path d="M269.565,206.049c0.131-2.76,0.215-5.536,0.215-8.336    C269.779,200.513,269.695,203.289,269.565,206.049z" fill="#ef8829"/><path d="M261.804,248.58c0.773-2.28,1.496-4.6,2.16-6.966C263.3,243.98,262.576,246.3,261.804,248.58z" fill="#ef8829"/><path d="M260.816,143.978c1.063,2.912,2.035,5.904,2.915,8.967    C262.851,149.883,261.878,146.89,260.816,143.978z" fill="#ef8829"/><path d="M255.486,263.871c1.074-2.152,2.078-4.378,3.037-6.648    C257.564,259.494,256.56,261.72,255.486,263.871z" fill="#ef8829"/><path d="M258.866,256.426c0.903-2.18,1.745-4.416,2.541-6.693    C260.611,252.01,259.768,254.247,258.866,256.426z" fill="#ef8829"/><path d="M264.43,210.196c0-28.044-6.6-54.3-18.583-73.93c-11.276-18.471-25.875-28.643-41.106-28.643    c-0.256,0-0.511,0.012-0.768,0.02c14.892,21.864,24.242,54.924,24.242,92.583c0,41.164-11.154,76.876-28.527,98.428    c3.425,1.073,6.901,1.635,10.402,1.635c15.231,0,29.829-10.172,41.106-28.645c1.518-2.486,2.947-5.08,4.29-7.769    C261.317,247.869,264.43,229.454,264.43,210.196z" fill="#ef8829"/><path d="M210.09,95.138L210.09,95.138c-4.648,0-9.235,0.944-13.714,2.81    c0.003,0.003,0.006,0.007,0.009,0.01C200.862,96.092,205.445,95.138,210.09,95.138z" fill="#ef8829"/></g><path d="M140.038,85.323v-3.66c-6-1.069-9.093-1.649-13.949-1.649c-2.99,0-5.787,0.246-8.321,0.652    c-0.073-0.011-0.164-0.014-0.237-0.025c6.513,0.961,12.91,3.21,18.996,6.746c1.135-0.727,3.511-1.397,3.511-2.019    C140.038,85.353,140.038,85.339,140.038,85.323z" fill="#ef8829"/><path d="M195.607,80.014c-4.847,0-12.08,0.493-14.714,1.559l-0.288,3.292c0,0.169,0.339,1.109,0.329,1.276    c0.863,0.484,2.348,0.674,3.195,1.214c6.135-3.555,12.604-5.809,19.171-6.749C200.902,80.245,198.406,80.014,195.607,80.014z" fill="#ef8829"/><g><path d="M291.603,253.642c5.285-14.655,8.113-31.307,8.113-48.699c0-26.585-6.569-51.47-18.496-70.076    c-5.096-7.95-10.888-14.254-17.114-18.801c13.358,21.944,20.715,50.931,20.715,81.645c0,30.771-7.383,59.809-20.787,81.769    c-1.665,2.728-3.403,5.306-5.203,7.74c10.281-3.943,19.84-12.362,27.74-24.687c5.567-8.684,9.95-18.75,13.059-29.705    C297.527,240.222,294.842,247.211,291.603,253.642z" fill="#ef8829"/><path d="M304.866,200.085c0.121-2.526,0.201-5.065,0.201-7.626    C305.066,195.02,304.987,197.56,304.866,200.085z" fill="#ef8829"/><path d="M286.57,122.383c10.437,16.28,16.77,37.368,18.191,60.196c-1.42-22.828-7.754-43.917-18.19-60.196    c-10.846-16.92-24.816-26.491-39.498-27.179l0,0C261.756,95.892,275.725,105.465,286.57,122.383z" fill="#ef8829"/><path d="M304.808,201.323c-0.136,2.439-0.33,4.858-0.578,7.255    C304.477,206.181,304.672,203.763,304.808,201.323z" fill="#ef8829"/><path d="M299.748,232.411c0.671-2.395,1.287-4.828,1.834-7.304    C301.034,227.582,300.42,230.016,299.748,232.411z" fill="#ef8829"/><path d="M303.107,217.15c0.395-2.438,0.718-4.911,0.995-7.405    C303.825,212.238,303.503,214.713,303.107,217.15z" fill="#ef8829"/><path d="M301.642,224.822c0.547-2.504,1.038-5.042,1.456-7.618    C302.679,219.779,302.19,222.318,301.642,224.822z" fill="#ef8829"/></g><path d="M299.234,114.265c-13.861-21.62-32.537-33.702-52.699-34.147   c-6.303-12.597-24.444-21.027-45.41-21.027c-6.863,0-13.578,0.925-19.704,2.66V50.391c0-0.194-0.011-0.427-0.026-0.619   c-0.263-3.406,0.628-7.621,1.765-8.353c0.493-0.321,3.21-0.509,8.995,2.683c2.33,1.285,5.165,1.246,7.456-0.11   c2.291-1.351,3.698-3.815,3.698-6.475V11.422c0-2.768-1.52-5.31-3.956-6.622c-5.835-3.141-12.44-4.8-19.098-4.8   c-22.254,0-40.359,18.105-40.359,40.358v21.303c-6.031-1.671-12.619-2.57-19.341-2.57c-21.02,0-39.101,8.508-45.403,21.009   c-0.06,0-0.118-0.004-0.177-0.004c-20.605,0-39.731,12.135-53.856,34.168C7.658,135.262,0.245,163.032,0.245,192.459   c0,29.425,7.413,57.195,20.875,78.192c14.125,22.035,33.252,34.171,53.856,34.171c1.275,0,2.559-0.053,3.841-0.149   c9.681,6.98,20.345,10.656,31.447,10.656c7.583,0,15.003-1.727,22.125-5.139c8.458,6.543,17.867,10.163,27.842,10.163   c9.96,0,19.354-3.608,27.801-10.131c7.102,3.392,14.499,5.108,22.058,5.108c11.102,0,21.766-3.676,31.447-10.656   c1.284,0.096,2.568,0.149,3.843,0.149c20.604,0,39.73-12.135,53.855-34.171c13.461-20.997,20.874-48.767,20.874-78.192   C320.108,163.032,312.695,135.262,299.234,114.265z M110.263,300.287c-15.23,0-29.829-10.172-41.105-28.645   c-11.983-19.63-18.583-45.886-18.583-73.931c0-28.044,6.6-54.3,18.583-73.93c11.276-18.471,25.875-28.643,41.105-28.643   c4.672,0,9.283,0.962,13.785,2.85c-19.235,20.993-31.802,58.54-31.802,102.237c0,41.149,11.145,76.851,28.508,98.404   C117.3,299.721,113.795,300.287,110.263,300.287z M73.28,95.204c-6.193,5.509-11.902,12.452-16.961,20.739   c-13.404,21.959-20.787,50.998-20.787,81.768c0,30.771,7.383,59.81,20.787,81.769c1.662,2.722,3.397,5.296,5.193,7.726   c-10.279-3.939-19.833-12.355-27.73-24.674c-11.927-18.606-18.496-43.491-18.496-70.074c0-26.585,6.569-51.47,18.496-70.076   C44.628,105.465,58.597,95.892,73.28,95.204z M139.898,85.368c-1.163,0.623-2.315,1.293-3.45,2.019   c-8.324-4.836-17.11-7.292-26.185-7.292c-5.99,0-11.852,1.075-17.502,3.157c-0.343-0.123,9.593-9.121,27.794-9.121   c6.994,0,13.689,1.179,19.341,3.333v7.858C139.896,85.339,139.898,85.353,139.898,85.368z M107.287,200.224   c0-56.964,24.244-105.087,52.943-105.087c28.698,0,52.943,48.123,52.943,105.087c0,56.962-24.245,105.087-52.943,105.087   C131.532,305.311,107.287,257.186,107.287,200.224z M154.937,40.358c0-13.958,11.357-25.316,25.318-25.316   c2.729,0,5.442,0.443,8.012,1.298v10.286c-5.103-0.983-9.56-0.257-13.315,2.188c-9.12,5.934-8.76,19.074-8.574,21.857V80.56   c-2.023-0.308-4.074-0.464-6.149-0.464c-1.784,0-3.548,0.121-5.293,0.35V40.358z M227.593,83.253   c-5.65-2.082-11.513-3.157-17.503-3.157c-9.055,0-17.82,2.444-26.127,7.258c-0.847-0.541-1.704-1.05-2.567-1.534   c0.01-0.166,0.024-0.329,0.024-0.497v-7.719c5.724-2.242,12.549-3.633,19.704-3.472C219.18,74.534,228.241,83.018,227.593,83.253z    M228.215,200.224c0-43.724-12.585-81.291-31.839-102.276c4.479-1.866,9.066-2.81,13.714-2.81c15.231,0,29.83,10.173,41.106,28.643   c11.983,19.63,18.583,45.886,18.583,73.93c0,28.044-6.6,54.3-18.583,73.931c-11.277,18.473-25.875,28.645-41.106,28.645   c-3.501,0-6.976-0.562-10.402-1.635C217.061,277.101,228.215,241.389,228.215,200.224z M264.034,279.48   c13.404-21.959,20.787-50.998,20.787-81.769c0-30.77-7.383-59.809-20.787-81.768c-5.059-8.286-10.768-15.23-16.961-20.739   c14.682,0.688,28.651,10.259,39.498,27.178c11.926,18.604,18.495,43.491,18.495,70.076c0,26.583-6.569,51.47-18.495,70.074   c-7.9,12.325-17.458,20.745-27.74,24.687C260.631,284.786,262.369,282.208,264.034,279.48z" fill="#3f2d20"/></g><g transform="matrix(0.12093617022037506 0 0 0.12093617022037506 67.5 67.5)" id="L1_355"><path d="M165.376,95.559c1.974,0,3.919-0.802,5.312-2.205c1.403-1.403,2.205-3.337,2.205-5.312   c0-1.984-0.802-3.919-2.205-5.322c-1.393-1.394-3.327-2.196-5.312-2.196c-1.985,0-3.919,0.802-5.312,2.196   c-1.403,1.402-2.205,3.338-2.205,5.322c0,1.975,0.802,3.909,2.205,5.312C161.457,94.757,163.401,95.559,165.376,95.559z" fill="#3f2d20"/><path d="M228.199,116.327c1.975,0,3.909-0.802,5.312-2.205c1.403-1.394,2.205-3.338,2.205-5.312   c0-1.985-0.802-3.919-2.205-5.313c-1.403-1.403-3.338-2.204-5.312-2.204c-1.984,0-3.919,0.801-5.322,2.204   c-1.393,1.394-2.195,3.328-2.195,5.313c0,1.974,0.802,3.918,2.195,5.312C224.28,115.525,226.214,116.327,228.199,116.327z" fill="#3f2d20"/><path d="M102.563,116.327c1.974,0,3.909-0.802,5.312-2.205c1.393-1.394,2.205-3.338,2.205-5.312   c0-1.985-0.812-3.919-2.205-5.313c-1.403-1.403-3.338-2.204-5.312-2.204c-1.985,0-3.919,0.801-5.322,2.204   c-1.393,1.394-2.195,3.328-2.195,5.313c0,1.974,0.801,3.918,2.195,5.312C98.644,115.525,100.578,116.327,102.563,116.327z" fill="#3f2d20"/><path d="M294.37,177.31H51.119c-3.317,0-6.016,3.183-6.016,6.5c0,3.317,2.698,6.5,6.016,6.5H294.37   c3.317,0,6.015-3.183,6.015-6.5C300.385,180.493,297.687,177.31,294.37,177.31z" fill="#ef8829"/><g><path d="M266.935,210.65c2.859-1.391,7.007-3.224,13.927-5.938    C276.111,206.383,271.462,208.408,266.935,210.65z" fill="#ce593f"/><path d="M287.967,213.31h-28.676c-9.37,8-18.045,13-25.571,19h54.247c5.824,0,10.784-4.403,12.79-9.525    C298.741,217.687,293.775,213.31,287.967,213.31z" fill="#ce593f"/></g><path d="M115.848,213.986c0.067,0.027,0.17-0.675,0.187-0.675H52.809c-7.587,0-13.76,6.884-13.76,14.47    c0,1.135,0.155,2.627,0.415,3.682c1.07,0.268,2.17,0.848,3.322,0.848h113.966C143.181,224.31,128.504,218.49,115.848,213.986z" fill="#ce593f"/><path d="M249.186,205.677l-101.851-2.594c19.824,7.781,44.803,21.045,61.263,34.434    C218.104,228.327,232.261,216.052,249.186,205.677z" fill="#fdd44b"/><g><path d="M304.218,105.337c2.21,3.068,4.108,6.204,5.691,9.397    C308.324,111.541,306.428,108.404,304.218,105.337z" fill="#fdd44b"/><path d="M310.061,115.058c-6.866-7.969-15.89-15.389-26.906-21.998    c-28.664-17.198-66.933-26.67-107.756-26.67c-40.823,0-79.091,9.472-107.755,26.67c-27.463,16.477-42.587,37.973-42.587,60.528    c0,1.654,0.169,3.12,0.488,4.681c3.861,2.641,8.524,4.042,13.544,4.042h252.575c13.264,0,24.055-10.642,24.055-23.907    C315.719,130.376,313.768,122.638,310.061,115.058z M107.875,114.122c-1.403,1.403-3.338,2.205-5.312,2.205    c-1.985,0-3.919-0.802-5.322-2.205c-1.393-1.394-2.195-3.338-2.195-5.312c0-1.985,0.802-3.919,2.195-5.313    c1.403-1.402,3.337-2.204,5.322-2.204c1.974,0,3.909,0.801,5.312,2.204c1.393,1.394,2.205,3.328,2.205,5.313    C110.08,110.784,109.268,112.728,107.875,114.122z M170.688,93.354c-1.393,1.404-3.338,2.205-5.312,2.205    c-1.974,0-3.919-0.802-5.312-2.205c-1.403-1.402-2.205-3.337-2.205-5.312c0-1.984,0.802-3.919,2.205-5.322    c1.393-1.394,3.328-2.196,5.312-2.196c1.985,0,3.919,0.802,5.312,2.196c1.403,1.402,2.205,3.338,2.205,5.322    C172.893,90.017,172.091,91.951,170.688,93.354z M233.511,114.122c-1.403,1.403-3.338,2.205-5.312,2.205    c-1.985,0-3.919-0.802-5.322-2.205c-1.393-1.394-2.195-3.338-2.195-5.312c0-1.985,0.802-3.919,2.195-5.313    c1.403-1.402,3.338-2.204,5.322-2.204c1.975,0,3.909,0.801,5.312,2.204c1.403,1.394,2.205,3.328,2.205,5.313    C235.716,110.784,234.914,112.728,233.511,114.122z" fill="#fdd44b"/></g><path d="M298.687,247.31h-82.062c-7.52,8-11.954,12.301-12.077,12.446c-1.43,1.678-3.524,2.554-5.724,2.554   c-0.054,0-0.109,0-0.164,0c-2.26,0-4.378-1.023-5.768-2.806c-3.357-4.311-7.619-7.194-12.5-12.194H42.091   c-15.848,0-17.034,3.84-17.034,10.562c0,11.582,7.642,20.438,17.034,20.438h256.596c9.392,0,17.032-8.855,17.032-20.438   C315.719,251.151,314.533,247.31,298.687,247.31z" fill="#fdd44b"/><path d="M312.417,233.637c2.745-4.407,4.344-9.602,4.344-15.167c0-7.602-2.968-14.52-7.8-19.671   c3.973-3.831,6.458-9.196,6.458-15.137c0-4.313-1.313-8.318-3.551-11.657c11.31-6.857,18.884-19.287,18.884-33.452   c0-28.044-17.716-54.118-49.885-73.42c-30.967-18.58-71.982-28.813-115.491-28.813c-43.508,0-84.524,10.232-115.491,28.813   C17.716,84.435,0,110.509,0,138.554c0,14.165,7.573,26.594,18.883,33.451c-2.237,3.339-3.549,7.345-3.549,11.657   c0,5.942,2.485,11.307,6.459,15.138c-4.831,5.151-7.801,12.067-7.801,19.67c0,5.565,1.593,10.761,4.338,15.169   C9.354,235.96,0,242.106,0,258.394c0,19.872,14.386,36.038,32.068,36.038h266.619c17.681,0,32.066-16.167,32.066-36.038   C330.753,242.102,321.394,235.957,312.417,233.637z M298.687,279.398H32.068c-9.393,0-17.034-9.422-17.034-21.004   c0-6.722,1.186-11.129,17.034-11.129h148.324c4.88,3.873,9.143,7.972,12.5,12.283c1.389,1.783,3.508,2.845,5.768,2.895   c0.055,0.001,0.109,0.001,0.164,0.001c2.2,0,4.294-0.965,5.724-2.644c0.123-0.145,4.557-5.299,12.078-12.535h82.061   c15.847,0,17.032,4.406,17.032,11.129C315.719,269.976,308.078,279.398,298.687,279.398z M201.41,241.106   c-0.895,0.91-1.748,1.787-2.508,2.584c-0.864-0.872-1.761-1.731-2.677-2.584c-16.709-15.536-41.893-27.777-63.915-36.394h114.283   C226.672,216.898,210.58,231.776,201.41,241.106z M287.967,232.231H233.72c13.04-10.443,29.454-21.297,47.142-27.519h7.105   c7.587,0,13.76,6.172,13.76,13.758C301.727,226.058,295.554,232.231,287.967,232.231z M294.37,189.678H36.384   c-3.317,0-6.016-2.698-6.016-6.016c0-3.317,2.698-6.016,6.016-6.016H294.37c3.317,0,6.015,2.699,6.015,6.016   C300.385,186.979,297.687,189.678,294.37,189.678z M42.786,204.712h41.187c7.074,1.851,42.201,11.396,72.779,27.519H42.786   c-7.587,0-13.76-6.173-13.76-13.761C29.026,210.884,35.199,204.712,42.786,204.712z M15.034,138.554   c0-22.555,15.124-44.051,42.587-60.528c28.664-17.198,66.933-26.67,107.756-26.67c40.823,0,79.091,9.472,107.756,26.67   c27.462,16.477,42.586,37.973,42.586,60.528c0,13.265-10.791,24.057-24.055,24.057H39.089   C25.825,162.61,15.034,151.818,15.034,138.554z" fill="#3f2d20"/></g><g transform="matrix(0.1218082457780838 0 0 0.1218082457780838 242.5 67.5)" id="L1_356"><path d="M260.691,88.891c-4.399,2.734-10.48,5.032-18.753,5.032c-12.235,0-18.941-5.022-24.152-9.058    c-4.431-3.43-7.743-5.91-14.836-5.91s-10.35,2.479-14.779,5.91c-5.21,4.036-11.723,9.058-23.957,9.058    c-12.234,0-18.733-5.022-23.943-9.058c-4.43-3.43-7.639-5.91-14.731-5.91c-7.091,0-10.295,2.479-14.725,5.91    c-5.21,4.036-11.697,9.058-23.93,9.058c-1.84,0-3.532-0.129-5.127-0.336c0.07,0.009-0.144,0.028-0.074,0.036    c-5.426,5.173-11.367,17.448-11.367,24.881v183.785c0,3.447,1.12,6.695,2.595,9.571c-0.968-0.383-1.763-0.179-2.655-0.695    c3.103,1.798,6.829,3.503,10.666,3.503h166.543c11.626,0,22.851-10.776,22.851-22.402V108.481    C270.316,100.873,266.229,93.837,260.691,88.891z M238.316,260.102c0,4.152-1.746,7.567-5.898,7.567H95.967    c-4.152,0-7.651-3.415-7.651-7.567v-76.624c0-4.152,3.499-7.809,7.651-7.809h23.047c5.371-20,23.738-34.659,45.179-34.659    c21.439,0,39.807,14.659,45.178,34.659h23.048c4.151,0,5.898,3.657,5.898,7.809V260.102z" fill="#ce593f"/><path d="M239.249,47.669H99.16L74.249,68.326c3.136,1.638,5.657,3.239,7.933,5.003    c3.222,2.496,5.802,4.305,9.693,5.206c3.908-0.898,6.5-2.967,9.73-5.469c5.211-4.036,11.695-9.102,23.927-9.102    c12.234,0,18.718,5.001,23.93,9.036c4.43,3.43,7.631,5.899,14.724,5.899c7.093,0,10.294-2.485,14.724-5.915    c5.21-4.036,11.695-9.061,23.929-9.061c12.234,0,18.719,5.021,23.93,9.057c4.431,3.431,7.633,5.909,14.727,5.909    c7.095,0,10.297-2.479,14.728-5.911c2.278-1.763,4.797-3.014,7.935-4.653L239.249,47.669z" fill="#ef8829"/><path d="M251.691,20.669H95.157c-4.466,0-8.1,3.792-8.1,8.258c0,0.543,0.056,1.742,0.158,1.742h156.538    c4.465,0,8.098-3.791,8.098-8.256C251.852,21.87,251.794,20.669,251.691,20.669z" fill="#ef8829"/><g><path d="M180.069,160.614c2.081,1.205,4.014,2.636,5.764,4.27    C184.081,163.25,182.151,161.819,180.069,160.614z" fill="#fdd44b"/><path d="M205.725,194.533c-0.134-1.148-0.335-1.864-0.585-1.864h-1.971c-3.815,0-7.024-3.694-7.466-7.484    c-0.562-4.818-2.202-9.686-4.64-13.566c-4.901-3.072-10.684-5.051-16.846-5.051c-16.101,0-29.648,11.264-31.51,27.234    c-0.441,3.789-3.651,5.867-7.467,5.867h-20.923v52h111v-52h-12.125C209.377,199.669,206.168,198.323,205.725,194.533z" fill="#fdd44b"/></g><path d="M232.419,175.961h-23.048c-5.371-20.163-23.739-34.659-45.178-34.659   c-21.441,0-39.807,14.494-45.179,34.659H95.967c-4.152,0-7.517,3.365-7.517,7.517v76.624c0,4.152,3.365,7.517,7.517,7.517h136.451   c4.151,0,7.517-3.365,7.517-7.517v-76.624C239.936,179.326,236.57,175.961,232.419,175.961z M103.484,190.995h21.731   c3.816,0,7.026-2.857,7.467-6.646c1.863-15.97,15.409-28.013,31.51-28.013c16.101,0,29.648,12.043,31.509,28.012   c0.442,3.79,3.652,6.647,7.466,6.647h21.733v61.589H103.484V190.995z" fill="#3f2d20"/><path d="M287.672,71.438c0-2.262-1.004-4.285-2.584-5.663c-0.016-0.014-0.025-0.029-0.04-0.043   l-27.794-23.83c5.829-4.205,9.632-11.049,9.632-18.767C266.886,10.378,256.509,0,243.753,0H84.633   C71.877,0,61.499,10.378,61.499,23.135c0,7.719,3.805,14.563,9.632,18.767l-27.794,23.83l0.004,0.004   c-1.607,1.378-2.628,3.42-2.628,5.702c0,4.152,3.366,7.517,7.517,7.517c3.182,0,5.577,0.502,7.655,1.362   c-6.789,7.253-10.763,16.737-11.056,26.952c-0.014,0.188-0.027,184.997-0.027,184.997c0,19.915,16.203,36.118,36.119,36.118   h166.543c19.916,0,36.119-16.203,36.119-36.118c0,0-0.016-184.809-0.029-184.995c-0.292-10.216-4.261-19.705-11.047-26.959   c2.075-0.857,4.469-1.358,7.646-1.358C284.306,78.955,287.672,75.59,287.672,71.438z M247.465,313.351H80.921   c-11.627,0-21.085-9.458-21.085-21.084V108.481c0-7.607,3.203-14.643,8.741-19.589c4.398,2.734,10.036,5.03,18.305,5.03   c12.233,0,18.718-5.022,23.929-9.058c4.43-3.431,7.63-5.91,14.722-5.91c7.092,0,10.294,2.479,14.724,5.91   c5.21,4.036,11.695,9.058,23.929,9.058s18.718-5.022,23.929-9.058c4.43-3.431,7.631-5.91,14.724-5.91   c7.093,0,10.295,2.479,14.726,5.91c5.211,4.036,11.697,9.058,23.931,9.058c8.273,0,13.913-2.298,18.311-5.032   c5.538,4.946,8.743,11.983,8.743,19.591v183.786C268.55,303.893,259.091,313.351,247.465,313.351z M84.633,15.034h159.12   c4.465,0,8.099,3.634,8.099,8.101c0,4.465-3.633,8.099-8.099,8.099H84.633c-4.466,0-8.1-3.633-8.1-8.099   C76.533,18.668,80.167,15.034,84.633,15.034z M89.137,46.268h150.111l24.91,21.357c-3.138,1.639-5.657,3.59-7.935,5.353   c-4.431,3.432-7.632,5.911-14.728,5.911c-7.094,0-10.296-2.479-14.727-5.91c-5.211-4.036-11.697-9.058-23.93-9.058   s-18.718,5.022-23.929,9.058c-4.43,3.431-7.631,5.91-14.724,5.91c-7.093,0-10.294-2.479-14.724-5.91   c-5.211-4.036-11.695-9.058-23.929-9.058c-12.233,0-18.716,5.022-23.927,9.058c-4.43,3.431-7.631,5.91-14.723,5.91   s-10.293-2.479-14.723-5.91c-2.276-1.764-4.797-3.715-7.933-5.353L89.137,46.268z" fill="#3f2d20"/></g><g transform="matrix(0.20891094207763672 0 0 0.20891094207763672 315 140)" id="L1_357"><g><path d="M55.67,149.939 55.625,149.939 61.108,176.647z" fill="#ce593f"/><path d="M236.89,165.939c-12.736,16-39.376,28.931-69.354,28.931c-34.364,0-70.277-31.931-68.4-28.931    H70.659l31.344,153h142.831l31.582-153H236.89z M210.727,287.36c-11.637,8.147-26.977,12.634-43.191,12.634    c-16.215,0-31.554-4.487-43.191-12.634c-12.452-8.718-19.31-20.572-19.31-33.379c0-12.807,6.858-24.661,19.31-33.379    c11.637-8.147,26.977-12.634,43.191-12.634c16.214,0,31.554,4.487,43.191,12.634c12.453,8.718,19.31,20.572,19.31,33.379    C230.037,266.788,223.18,278.642,210.727,287.36z" fill="#ce593f"/></g><path d="M90.873,134.939h4.995c4.735,0,8.856,3.407,8.856,7.559c0,4.792,0.149,9.519,6.149,13.852V59.939   h-20V134.939z" fill="#fdd44b"/><path d="M209.873,15.034v12.905h-18v148.046c8-1.786,13-4.255,18-7.223V15.034L209.873,15.034z" fill="#fdd44b"/><path d="M242.873,48.133v13.806h-20v94.412c2-4.332,5.573-9.061,5.573-13.853   c0-4.152,3.602-7.559,8.199-7.559h6.228V48.133L242.873,48.133z" fill="#fdd44b"/><path d="M177.873,64.91v15.029h-23V64.91l0,0v113.82c3,0.291,7.826,0.444,11.5,0.444   c3.673,0,9.5-0.153,11.5-0.444V64.91L177.873,64.91z" fill="#fdd44b"/><path d="M144.873,29.972v13.967h-20v124.822c8,2.97,15,5.438,20,7.224V29.972L144.873,29.972z" fill="#fdd44b"/><path d="M257.712,92.412v42.611h24.208c0.581-8.53,0.355-23.939-7.301-33.743   C270.643,96.189,265.099,93.28,257.712,92.412z" fill="#ce593f"/><path d="M286.509,92.079c-6.827-8.774-16.518-13.734-28.797-14.768V40.616c0-4.152-3.366-7.517-7.517-7.517   h-25.547V7.517c0-4.152-3.366-7.517-7.517-7.517h-33.064c-4.152,0-7.517,3.365-7.517,7.517v42.359h-18.029V22.455   c0-4.152-3.366-7.517-7.517-7.517H117.94c-4.151,0-7.517,3.365-7.517,7.517v8.538H84.877c-4.151,0-7.517,3.365-7.517,7.517v38.8   c-12.279,1.034-21.969,5.994-28.797,14.768c-15.092,19.394-9.774,50.465-9.54,51.779c0.006,0.033,37.707,185.196,37.707,185.196   c0.713,3.502,3.792,6.018,7.366,6.018h166.88c3.574,0,6.653-2.516,7.366-6.018c0,0,37.701-185.163,37.707-185.196   C296.282,142.544,301.601,111.472,286.509,92.079z M90.236,320.037l-34.611-169.98h35.476   c5.635,24.596,38.349,44.151,76.435,44.151c38.085,0,70.8-19.555,76.434-44.151h35.477l-34.612,169.98H90.236z M77.36,92.412   v42.611H53.115c-0.631-9.436,0.106-24.45,7.313-33.711C64.405,96.201,69.959,93.282,77.36,92.412z M92.394,46.027h18.028V156.35   c-3.29-4.333-5.144-9.018-5.144-13.81c0-4.152-3.366-7.517-7.517-7.517h-5.368V46.027z M242.677,135.023h-5.368   c-4.152,0-7.517,3.365-7.517,7.517c0,4.792-1.855,9.479-5.145,13.811V48.133h18.029V135.023z M191.585,15.034h18.029v153.728   c-5.311,2.968-11.418,5.437-18.029,7.223V15.034z M176.55,178.731c-2.966,0.291-5.977,0.444-9.014,0.444   c-3.038,0-6.049-0.153-9.015-0.444V64.91h18.029V178.731z M125.457,29.972h18.03v146.013c-6.611-1.786-12.719-4.255-18.03-7.224   V29.972z M281.92,135.023h-24.208V92.412c7.387,0.867,12.932,3.776,16.908,8.868C282.276,111.084,282.501,126.493,281.92,135.023z" fill="#3f2d20"/><path d="M210.727,220.603c-11.637-8.147-26.976-12.634-43.191-12.634c-16.215,0-31.554,4.487-43.191,12.634   c-12.453,8.718-19.311,20.572-19.311,33.379c0,12.806,6.858,24.661,19.311,33.379c11.637,8.147,26.976,12.634,43.191,12.634   c16.214,0,31.554-4.487,43.191-12.634c12.453-8.718,19.311-20.572,19.311-33.379C230.037,241.175,223.18,229.321,210.727,220.603z    M167.536,284.96c-25.731,0-47.468-14.187-47.468-30.979s21.737-30.979,47.468-30.979c25.73,0,47.467,14.187,47.467,30.979   S193.266,284.96,167.536,284.96z" fill="#3f2d20"/><g><path d="M55.411,111.334c-2.288,7.344-2.672,15.552-2.397,21.858    C52.739,126.885,53.123,118.677,55.411,111.334z" fill="#ce593f"/><path d="M77.873,92.412v14.985c-13,3.007-11.678,22.542-12.57,27.542h12.57V92.412L77.873,92.412z" fill="#ce593f"/></g><path d="M175.306,223.474c-22.086,2.562-39.483,15.487-39.483,30.507c0,15.02,17.397,27.945,39.482,30.507    c22.183-2.506,39.698-15.44,39.698-30.507C215.003,238.915,197.488,225.98,175.306,223.474z" fill="#ef8829"/></g><g transform="matrix(0.16821569959307092 -0.045073260860199686 0.045073260860199686 0.16821569959307092 132.20815508221412 150.21964093587903)" id="L1_358"><path d="M68.919,180.397c-1.975,0-3.919,0.802-5.323,2.195c-1.394,1.403-2.194,3.338-2.194,5.323   c0,1.974,0.801,3.908,2.194,5.312c1.404,1.402,3.348,2.205,5.323,2.205c1.973,0,3.908-0.803,5.311-2.205   c1.404-1.404,2.206-3.338,2.206-5.312c0-1.985-0.803-3.929-2.206-5.323C72.837,181.199,70.892,180.397,68.919,180.397z" fill="#3f2d20"/><path d="M276.364,187.162c-21.136-12.192-53.837-26.139-119.869-26.139c-0.57,0-1.143,0.001-1.717,0.003   c-4.152,0.015-7.505,3.393-7.49,7.545c0.016,4.142,3.377,7.49,7.517,7.49c0.008,0,0.018,0,0.027,0   c63.579-0.248,94.335,12.772,114.019,24.126c1.182,0.682,2.474,1.006,3.749,1.006c2.599,0,5.127-1.349,6.519-3.762   C281.194,193.834,279.96,189.238,276.364,187.162z" fill="#3f2d20"/><g><path d="M305.908,190.116c-6.941-4.787-15.498-9.242-25.438-13.163    c-27.89-11.002-64.223-17.061-102.307-17.061c-7.122,0-14.106,0.411-20.914,1.136c65.52,0.107,98.06,13.99,119.115,26.135    c3.596,2.075,4.83,6.671,2.756,10.267c-1.392,2.414-3.92,3.763-6.519,3.763c-1.275,0-2.566-0.695-3.749-1.377    c-19.685-11.354-50.44-24.498-114.019-24.498c-0.01,0-0.02,0-0.028,0c-4.14,0-7.501-2.976-7.517-7.118    c-0.011-3.081,1.836-5.542,4.484-6.713c-0.01,0.004-0.023,0.099-0.033,0.103c-30.004,4.001-56.166,14.67-74.394,23.367    c-0.499,0.238-0.973,1.361-1.465,1.361c-0.002,0-0.006,0-0.006,0c0.363,0,0.561,1.241,0.561,2.217    c0,1.974-0.802,3.598-2.206,5.001c-1.403,1.402-3.338,2.05-5.311,2.05c-1.975,0-3.919-0.881-5.323-2.283    c-0.663-0.668-1.181-1.501-1.554-2.357c0.162,0.371,0.346,0.714,0.565,1.057c-12.917,7.2-22.114,13.846-27.355,18.379    c7.473,4.999,16.612,10.529,27.159,15.899c7.339,3.738,16.003,7.7,25.728,11.372c30.476-13.896,26.668-36.311,26.486-37.284    c-0.852-4.064,1.758-8.011,5.822-8.864c4.06-0.853,8.055,1.788,8.907,5.852c2.189,10.437-0.586,31.265-22.128,46.611    c16.808,4.786,35.747,8.13,55.904,8.13c38.085,0,74.418-6.059,102.307-17.061c24.782-9.776,40.992-22.867,44.884-36.137    C309.455,195.951,307.949,193.013,305.908,190.116z" fill="#84bd93"/><path d="M32.54,208.534c-3.449-2.373-6.493-4.598-9.096-6.59C26.046,203.936,29.091,206.161,32.54,208.534z    " fill="#84bd93"/></g><g><path d="M219.013,119.503c-16.024,1.073-38.255,3.917-58.739,11.202c-1.048,0.015-2.071,0.086-3.111,0.116    c1.987-0.058,3.957-0.153,5.965-0.153c19.048,0,37.71,1.48,55.25,4.279l0.961-23.36L219.013,119.503z" fill="#fdd44b"/><path d="M131.571,133.035c-3.197,0.469-6.354,0.995-9.461,1.583    C125.216,134.031,128.375,133.506,131.571,133.035z" fill="#fdd44b"/></g><path d="M377.927,200.416c-0.368-1.693,0.002-3.047,0.004-3.054l4.78-22.876    c-25.366,8.019-37.253,25.063-41.166,31.979c2.741,4.842,9.438,14.71,21.982,22.936c6.254,2.355,13.359,4.198,21.526,5.115    l-7.121-34.079C377.929,200.431,377.929,200.424,377.927,200.416z" fill="#84bd93"/><path d="M139.921,265.579c0.866,0.106,1.231,0.225,2.102,0.321c2.895,6.563,8.048,14.412,18.048,19.486    v-18.288C155.071,266.965,146.832,266.423,139.921,265.579z" fill="#fdd44b"/><path d="M392.969,198.9l8.825-42.23c0.47-2.245-0.112-4.582-1.579-6.344   c-1.467-1.764-3.655-2.761-5.951-2.708c-41.664,0.95-64.345,21.268-75.08,35.277c-8.737-13.263-25.29-25.067-48.233-34.117   c-11.391-4.494-24.078-8.201-37.64-11.074l1.37-33.271c0.17-4.147-3.052-7.647-7.198-7.82   c-4.076-0.171-98.918-3.525-136.148,45.871c-14.912,4.794-27.993,10.418-38.583,15.63c-17.398,8.559-41.774,24.123-50.161,35.258   c-2.842,3.772-4.124,6.456,0.271,10.845c10.393,10.38,53.058,42.967,109.791,56.707c0.989,4.498,3.027,11.152,7.182,17.948   c6.663,10.897,20.142,24.348,46.519,26.548c0.209,0.018,0.418,0.026,0.626,0.026c1.877,0,3.696-0.704,5.09-1.985   c1.547-1.423,2.427-3.43,2.427-5.532V266.94c35.779-1.1,69.676-7.353,96.456-17.917c22.941-9.05,39.494-20.852,48.231-34.117   c10.735,14.009,33.416,34.326,75.081,35.276c0.057,0.001,0.114,0.002,0.171,0.002c2.231,0,4.349-0.992,5.779-2.71   c1.467-1.764,2.049-4.099,1.579-6.344L392.969,198.9z M385.053,163.283l-7.121,34.08c-0.002,0.007-0.372,1.361-0.004,3.054   c0.002,0.008,0.002,0.015,0.004,0.022l7.121,34.079c-37.564-4.218-53.843-27.309-58.541-35.613   C331.227,190.568,347.51,167.5,385.053,163.283z M265.436,235.038c-27.889,11.002-64.222,17.061-102.307,17.061   c-20.156,0-39.096-3.344-55.904-8.13c21.542-15.346,24.317-36.174,22.129-46.611c-0.852-4.064-4.847-6.705-8.907-5.852   c-4.064,0.853-6.674,4.799-5.822,8.863c0.182,0.974,3.99,23.387-26.486,37.283c-9.725-3.672-18.39-7.637-25.728-11.374   c-20.896-10.641-36.288-21.934-44.085-28.402c6.199-5.829,21.128-16.782,43.986-27.689c23.41-11.17,59.903-24.484,100.817-24.484   c38.084,0,74.417,6.059,102.306,17.061c24.783,9.775,40.994,22.866,44.885,36.138C306.428,212.172,290.218,225.262,265.436,235.038   z M159.463,289.224c-18.642-4.126-26.699-16.107-30.159-24.916c9.747,1.606,19.825,2.599,30.159,2.79V289.224z M218.378,134.947   c-17.539-2.799-36.201-4.279-55.25-4.279c-14.305,0-28.071,1.503-41.018,3.95c31.579-20.163,78.983-22.807,97.229-23.031   L218.378,134.947z" fill="#3f2d20"/></g><g transform="matrix(0.1441337615251541 0 0 0.1441337615251541 62.5 237.5)" id="L1_359"><path d="M175.77,27.739c-3.711-2.135-8.199-3.364-12.778-3.364c-2.73,0-5.207,0.443-8.207,1.298V27.9    c0,0,0.389,0,0.389,0c1.401,0,2.762,0.569,4.011,1.382c9.12,5.936,8.6,18.605,8.6,21.388V77.9c3-0.061,3.304-0.1,5.114-0.1    c2.076,0,5.886,0.045,5.886,0.125V40.357C178.785,35.761,177.92,31.458,175.77,27.739z" fill="#84bd93"/><g><path d="M126.073,292.016c-1.986-7.385-3.871-15.287-5.866-23.654    c-3.905-16.376-8.333-34.938-14.583-53.626c-14.331-42.837-16.112-76.196-5.381-99.436c-0.676,1.464-1.317,2.955-1.894,4.5    c-9.652,3.344-18.25,8.724-23.679,17.885c-11.329,19.115-7.662,52.624,10.9,99.594c5.343,13.522,9.792,26.301,14.095,38.66    c8.377,24.056,15.001,42.176,22.688,53.781c3.672,1.357,7.716,1.179,12.278,1.179h0.002c2.24-1,4.426-0.763,6.546-1.468    C133.977,319.025,129.649,305.307,126.073,292.016z" fill="#fdd44b"/><path d="M104.463,311.888c-1.351-2.366-2.678-4.943-3.997-7.728    C101.785,306.945,103.113,309.522,104.463,311.888z" fill="#fdd44b"/></g><g><path d="M240.986,101.372c17.646,2.207,36.973,6.635,46.515,22.738c1.416,2.389,2.598,5.003,3.546,7.84    c-0.948-2.838-2.129-5.452-3.546-7.841c-9.542-16.102-28.868-20.529-46.513-22.737c-0.083-0.011-0.154-0.017-0.236-0.027    C240.834,101.355,240.904,101.362,240.986,101.372z" fill="#fdd44b"/><path d="M247.234,275.939c4.303-12.359,8.753-25.139,14.096-38.66    c18.563-46.97,22.229-80.479,10.901-99.594c-5.429-9.161-14.027-14.541-23.678-17.885c-0.575-1.539-1.214-3.025-1.887-4.484    c10.723,23.24,8.939,56.594-5.387,99.421c-6.25,18.681-10.675,37.237-14.579,53.609c-5.123,21.479-9.548,40.028-16.626,53.795    c-1.367,2.66-2.832,5.076-4.375,7.301c2.126,0.709,4.32,1.21,6.568,1.491c0.001,0,0.001,0,0.001,0    c4.564,0.573,8.609,0.161,12.282-1.198C232.234,318.13,238.858,299.994,247.234,275.939z" fill="#fdd44b"/></g><path d="M238.253,159.14c-0.972-11.485-4.129-21.013-9.515-28.494    c-10.221-14.197-28.826-21.396-55.296-21.396c-26.472,0-45.077,7.199-55.297,21.395c-5.385,7.48-8.542,17.008-9.514,28.491    c-0.348-4.73-0.413-9.209-0.2-13.439c-0.884,17.279,2.919,38.744,11.458,64.27c6.463,19.32,10.973,38.227,14.95,54.907    c1.969,8.259,3.83,16.06,5.759,23.235c8.692,32.302,17.289,43.751,32.853,43.751c21.628,0,28.115-22.975,38.616-67.003    c3.977-16.675,7.22-36.046,14.947-54.89C238.325,182.379,238.777,152.026,238.253,159.14z" fill="#fdd44b"/><path d="M300.441,116.44c-12.929-21.816-37.566-27.489-57.587-29.994   c-9.469-1.184-16.255-1.534-25.232-0.111c-6.778-3.207-14.449-5.527-23.024-6.922V40.357C194.599,18.104,176.494,0,154.24,0   c-6.66,0-13.263,1.66-19.097,4.799c-2.437,1.312-3.956,3.855-3.956,6.623v26.094c0,2.661,1.406,5.123,3.697,6.476   c2.294,1.354,5.127,1.392,7.457,0.11c5.785-3.191,8.501-3,8.996-2.684c1.137,0.733,2.028,4.947,1.768,8.316   c-0.019,0.219-0.028,0.437-0.028,0.656v28.912c-8.881,1.381-16.81,3.737-23.788,7.037c-8.98-1.426-15.766-1.075-25.239,0.109   c-20.02,2.505-44.658,8.178-57.589,29.994c-14.017,23.652-10.794,60.547,9.85,112.792c5.229,13.233,9.627,25.863,13.88,38.078   c7.983,22.928,14.878,42.729,24.086,56.764c9.757,14.871,21.674,22.166,36.295,22.166c1.928,0,3.905-0.127,5.928-0.38   c0.002,0,0.004-0.001,0.006-0.001c5.631-0.704,11.022-2.36,16.072-4.913c5.654,3.749,12.488,5.955,20.874,5.955   c7.921,0,14.843-1.976,20.856-5.964c5.053,2.557,10.449,4.216,16.087,4.922c0.002,0,0.004,0.001,0.004,0.001   c2.026,0.253,4.001,0.38,5.931,0.38c14.621,0,26.539-7.296,36.296-22.165c9.209-14.035,16.103-33.836,24.085-56.762   c4.254-12.215,8.652-24.847,13.881-38.08C311.236,176.986,314.458,140.091,300.441,116.44z M262.505,262.366   c-16.412,47.133-26.099,71.601-50.238,68.567c0,0-0.001,0-0.002,0c-2.248-0.281-4.442-0.783-6.568-1.491   c1.543-2.225,3.008-4.642,4.375-7.301c7.078-13.766,11.502-32.316,16.626-53.795c3.904-16.371,8.33-34.927,14.579-53.609   c16.495-49.308,16.386-86.078-0.323-109.288c-1.129-1.569-2.339-3.061-3.607-4.497c1.159,0.122,2.355,0.258,3.64,0.42   c17.645,2.207,36.971,6.635,46.513,22.737c11.329,19.115,7.662,52.625-10.9,99.596   C271.258,237.227,266.808,250.007,262.505,262.366z M134.635,330.933h-0.002c-24.149,3.034-33.827-21.436-50.238-68.569   c-4.303-12.359-8.753-25.139-14.096-38.66c-18.562-46.97-22.229-80.479-10.9-99.594c9.543-16.102,28.869-20.53,46.515-22.738   c1.283-0.161,2.488-0.3,3.646-0.424c-1.27,1.437-2.482,2.93-3.613,4.501c-16.71,23.21-16.819,59.979-0.323,109.288   c6.25,18.687,10.678,37.249,14.583,53.626c1.995,8.367,3.88,16.269,5.866,23.654c3.576,13.29,7.904,27.026,15.108,37.432   C139.061,330.154,136.875,330.653,134.635,330.933z M140.597,288.108c-1.929-7.175-3.79-14.976-5.759-23.235   c-3.978-16.681-8.487-35.587-14.95-54.907c-14.873-44.461-15.457-76.669-1.734-95.729c10.221-14.197,28.826-21.395,55.297-21.395   c26.47,0,45.076,7.198,55.296,21.396c13.723,19.06,13.14,51.267-1.733,95.728c-6.461,19.314-10.969,38.215-14.946,54.89   c-10.502,44.029-16.988,67.003-38.616,67.003C157.886,331.859,149.289,320.41,140.597,288.108z M146.227,16.339   c2.571-0.855,5.282-1.297,8.012-1.297c13.961,0,25.318,11.356,25.318,25.316v37.568c-1.999-0.08-4.031-0.125-6.107-0.125   c-1.81,0-3.583,0.039-5.335,0.1V50.67c0.186-2.783,0.546-15.922-8.574-21.857c-3.757-2.445-8.21-3.173-13.315-2.188V16.339z" fill="#3f2d20"/></g><g transform="matrix(0.2612474262714386 0 0 0.2612474262714386 217.5 217.5)" id="L1_360"><path d="M180.833,49.402c-0.518-0.449-1.05-0.898-1.614-1.346c-12.775-10.148-37.99-19.742-51.883-19.742    c-2.942,0-4.504,0.46-5.074,0.737c-0.478,1.878,0.583,8.381,6.532,19.087c5.379,7.251,11.334,13.73,16.77,18.049    c5.398,4.289,10.484,6.464,15.112,6.464c6.778,0,11.982-4.759,15.155-8.753c3.59-4.518,5.329-8.907,5.17-13.042    C180.982,50.373,180.906,49.887,180.833,49.402z" fill="#84bd93"/><g><path d="M287.391,156.122c-8.511-28.604-30.387-43.647-54.914-48.516    c15.698,3.128,30.306,10.434,41.022,22.792c-18.998-14.322-44.937-17.888-68.426-13.612c-6.92,1.262-13.643,3.18-19.799,6.091    c-1.065,0.503-3.07,1.506-6.14,0c-6.11-2.998-12.875-4.828-19.803-6.092c-36.732-6.685-79.51,5.754-92.266,48.629    c-3.04,10.217-12.292,41.311,14.178,78.408c8.285,11.612,13.747,25.419,19.027,38.771c5.682,14.363,11.058,27.887,19.425,38.07    c-10.057-6.986-16.552-17.6-22.116-29.838c11.811,26.021,27.805,44.729,73.375,36.756c0.866-0.151,1.719-0.14,2.538-0.003    c0.018,0.003,0.035,0,0.055,0.003c55.337,9.68,67.061-19.957,80.637-54.279c5.28-13.352,10.743-27.159,19.027-38.771    C299.683,197.433,290.431,166.34,287.391,156.122z M111.311,137.601c-26.587,8.527-25.645,36.866-25.592,38.069    c0.184,4.137-3.012,7.66-7.148,7.861c-0.123,0.006-0.249,0.009-0.372,0.009c-3.974,0-7.29-3.099-7.501-7.109    c-0.744-14.149,5.827-43.468,36.019-53.152c3.954-1.269,8.19,0.909,9.458,4.864C117.443,132.098,115.265,136.333,111.311,137.601z    " fill="#ce593f"/><path d="M211.513,105.835c3.329-0.074,6.664,0.013,9.98,0.271    C218.176,105.85,214.843,105.76,211.513,105.835z" fill="#ce593f"/><path d="M222.075,106.151c3.465,0.291,6.907,0.763,10.299,1.435    C228.981,106.916,225.54,106.44,222.075,106.151z" fill="#ce593f"/></g><path d="M106.716,123.278c-30.193,9.684-36.764,39.002-36.019,53.152c0.211,4.011,3.527,7.109,7.501,7.109   c0.123,0,0.249-0.003,0.372-0.009c4.137-0.201,7.333-3.723,7.149-7.861c-0.053-1.203-0.995-29.542,25.592-38.069   c3.954-1.268,6.132-5.503,4.863-9.459C114.906,124.187,110.67,122.009,106.716,123.278z" fill="#3f2d20"/><path d="M301.808,151.833c-6.788-22.816-21.415-40.425-42.296-50.926   c-19.231-9.67-43.058-12.588-67.09-8.211c-3.709,0.677-7.354,1.556-10.923,2.616c2.989-14.846,12.572-43.624,43.006-62.744   c3.517-2.209,4.577-6.852,2.368-10.368c-2.209-3.518-6.853-4.578-10.369-2.368c-9.308,5.848-16.921,12.446-23.161,19.312   c-2.605-5.718-7.076-11.117-13.396-16.138C164.518,10.75,135.902,0,118.708,0c-7.85,0-13.535,2.146-16.898,6.381   c-5.899,7.424-3.901,19.902,5.932,37.089c7.689,13.437,18.596,26.654,28.463,34.495c8.128,6.455,16.359,9.728,24.47,9.728   c2.472,0,4.916-0.317,7.311-0.932c-0.916,3.619-1.543,6.836-1.966,9.501c-4.52-1.497-9.18-2.697-13.945-3.566   c-24.029-4.376-47.855-1.458-67.087,8.212c-20.882,10.501-35.506,28.11-42.294,50.926c-3.559,11.96-14.387,48.355,16.35,91.434   c7.219,10.116,12.108,22.479,17.286,35.567c12.268,31.018,25.966,65.672,74.776,65.668c6.41-0.001,13.443-0.608,21.144-1.891   c7.703,1.284,14.73,1.891,21.144,1.891c48.802-0.001,62.507-34.651,74.776-65.668c5.178-13.088,10.067-25.451,17.286-35.567   C316.195,200.188,305.366,163.793,301.808,151.833z M273.211,234.53c-8.285,11.612-13.747,25.419-19.027,38.771   c-13.577,34.321-25.3,63.959-80.637,54.278c-0.019-0.003-0.037,0-0.055-0.003c-0.819-0.137-1.673-0.148-2.538,0.003   c-55.326,9.68-67.062-19.957-80.638-54.278c-5.28-13.352-10.743-27.159-19.027-38.771c-26.469-37.097-17.217-68.19-14.178-78.408   c12.756-42.875,55.534-55.315,92.266-48.629c6.927,1.264,13.693,3.095,19.803,6.092c3.07,1.506,5.076,0.503,6.14,0   c6.156-2.911,12.879-4.829,19.799-6.091c36.739-6.687,79.515,5.753,92.273,48.628C290.431,166.339,299.683,197.433,273.211,234.53z    M121.722,37.583c-7.339-12.337-8.606-19.773-8.089-21.805c0.57-0.276,2.133-0.736,5.074-0.736   c13.894,0,39.108,9.594,51.883,19.742c6.7,5.322,10.204,10.731,10.409,16.074c0.159,4.135-1.58,8.523-5.171,13.042   c-3.173,3.993-8.377,8.753-15.155,8.753c-4.628,0-9.714-2.175-15.112-6.464C137.58,59.845,128.446,48.885,121.722,37.583z" fill="#3f2d20"/></g></defs><g fi:class="KUsePattern"><pattern id="pattern_L1_351" width="350" height="350" patternUnits="userSpaceOnUse"><use xlink:href="#L1_351" x="-350" y="-350"/><use xlink:href="#L1_351" x="0" y="-350"/><use xlink:href="#L1_351" x="350" y="-350"/><use xlink:href="#L1_351" x="-350" y="0"/><use xlink:href="#L1_351" x="0" y="0"/><use xlink:href="#L1_351" x="350" y="0"/><use xlink:href="#L1_351" x="-350" y="350"/><use xlink:href="#L1_351" x="0" y="350"/><use xlink:href="#L1_351" x="350" y="350"/></pattern><rect x="0" y="0" width="100%" height="100%" fill="url(#pattern_L1_351)"/></g><g fi:class="KUsePattern"><pattern id="pattern_L1_352" width="350" height="350" patternUnits="userSpaceOnUse"><use xlink:href="#L1_352" x="-350" y="-350"/><use xlink:href="#L1_352" x="0" y="-350"/><use xlink:href="#L1_352" x="350" y="-350"/><use xlink:href="#L1_352" x="-350" y="0"/><use xlink:href="#L1_352" x="0" y="0"/><use xlink:href="#L1_352" x="350" y="0"/><use xlink:href="#L1_352" x="-350" y="350"/><use xlink:href="#L1_352" x="0" y="350"/><use xlink:href="#L1_352" x="350" y="350"/></pattern><rect x="0" y="0" width="100%" height="100%" fill="url(#pattern_L1_352)"/></g><g fi:class="KUsePattern"><pattern id="pattern_L1_353" width="350" height="350" patternUnits="userSpaceOnUse"><use xlink:href="#L1_353" x="-350" y="-350"/><use xlink:href="#L1_353" x="0" y="-350"/><use xlink:href="#L1_353" x="350" y="-350"/><use xlink:href="#L1_353" x="-350" y="0"/><use xlink:href="#L1_353" x="0" y="0"/><use xlink:href="#L1_353" x="350" y="0"/><use xlink:href="#L1_353" x="-350" y="350"/><use xlink:href="#L1_353" x="0" y="350"/><use xlink:href="#L1_353" x="350" y="350"/></pattern><rect x="0" y="0" width="100%" height="100%" fill="url(#pattern_L1_353)"/></g><g fi:class="KUsePattern"><pattern id="pattern_L1_354" width="350" height="350" patternUnits="userSpaceOnUse"><use xlink:href="#L1_354" x="-350" y="-350"/><use xlink:href="#L1_354" x="0" y="-350"/><use xlink:href="#L1_354" x="350" y="-350"/><use xlink:href="#L1_354" x="-350" y="0"/><use xlink:href="#L1_354" x="0" y="0"/><use xlink:href="#L1_354" x="350" y="0"/><use xlink:href="#L1_354" x="-350" y="350"/><use xlink:href="#L1_354" x="0" y="350"/><use xlink:href="#L1_354" x="350" y="350"/></pattern><rect x="0" y="0" width="100%" height="100%" fill="url(#pattern_L1_354)"/></g><g fi:class="KUsePattern"><pattern id="pattern_L1_355" width="350" height="350" patternUnits="userSpaceOnUse"><use xlink:href="#L1_355" x="-350" y="-350"/><use xlink:href="#L1_355" x="0" y="-350"/><use xlink:href="#L1_355" x="350" y="-350"/><use xlink:href="#L1_355" x="-350" y="0"/><use xlink:href="#L1_355" x="0" y="0"/><use xlink:href="#L1_355" x="350" y="0"/><use xlink:href="#L1_355" x="-350" y="350"/><use xlink:href="#L1_355" x="0" y="350"/><use xlink:href="#L1_355" x="350" y="350"/></pattern><rect x="0" y="0" width="100%" height="100%" fill="url(#pattern_L1_355)"/></g><g fi:class="KUsePattern"><pattern id="pattern_L1_356" width="350" height="350" patternUnits="userSpaceOnUse"><use xlink:href="#L1_356" x="-350" y="-350"/><use xlink:href="#L1_356" x="0" y="-350"/><use xlink:href="#L1_356" x="350" y="-350"/><use xlink:href="#L1_356" x="-350" y="0"/><use xlink:href="#L1_356" x="0" y="0"/><use xlink:href="#L1_356" x="350" y="0"/><use xlink:href="#L1_356" x="-350" y="350"/><use xlink:href="#L1_356" x="0" y="350"/><use xlink:href="#L1_356" x="350" y="350"/></pattern><rect x="0" y="0" width="100%" height="100%" fill="url(#pattern_L1_356)"/></g><g fi:class="KUsePattern"><pattern id="pattern_L1_357" width="350" height="350" patternUnits="userSpaceOnUse"><use xlink:href="#L1_357" x="-350" y="-350"/><use xlink:href="#L1_357" x="0" y="-350"/><use xlink:href="#L1_357" x="350" y="-350"/><use xlink:href="#L1_357" x="-350" y="0"/><use xlink:href="#L1_357" x="0" y="0"/><use xlink:href="#L1_357" x="350" y="0"/><use xlink:href="#L1_357" x="-350" y="350"/><use xlink:href="#L1_357" x="0" y="350"/><use xlink:href="#L1_357" x="350" y="350"/></pattern><rect x="0" y="0" width="100%" height="100%" fill="url(#pattern_L1_357)"/></g><g fi:class="KUsePattern"><pattern id="pattern_L1_358" width="350" height="350" patternUnits="userSpaceOnUse"><use xlink:href="#L1_358" x="-350" y="-350"/><use xlink:href="#L1_358" x="0" y="-350"/><use xlink:href="#L1_358" x="350" y="-350"/><use xlink:href="#L1_358" x="-350" y="0"/><use xlink:href="#L1_358" x="0" y="0"/><use xlink:href="#L1_358" x="350" y="0"/><use xlink:href="#L1_358" x="-350" y="350"/><use xlink:href="#L1_358" x="0" y="350"/><use xlink:href="#L1_358" x="350" y="350"/></pattern><rect x="0" y="0" width="100%" height="100%" fill="url(#pattern_L1_358)"/></g><g fi:class="KUsePattern"><pattern id="pattern_L1_359" width="350" height="350" patternUnits="userSpaceOnUse"><use xlink:href="#L1_359" x="-350" y="-350"/><use xlink:href="#L1_359" x="0" y="-350"/><use xlink:href="#L1_359" x="350" y="-350"/><use xlink:href="#L1_359" x="-350" y="0"/><use xlink:href="#L1_359" x="0" y="0"/><use xlink:href="#L1_359" x="350" y="0"/><use xlink:href="#L1_359" x="-350" y="350"/><use xlink:href="#L1_359" x="0" y="350"/><use xlink:href="#L1_359" x="350" y="350"/></pattern><rect x="0" y="0" width="100%" height="100%" fill="url(#pattern_L1_359)"/></g><g fi:class="KUsePattern"><pattern id="pattern_L1_360" width="350" height="350" patternUnits="userSpaceOnUse"><use xlink:href="#L1_360" x="-350" y="-350"/><use xlink:href="#L1_360" x="0" y="-350"/><use xlink:href="#L1_360" x="350" y="-350"/><use xlink:href="#L1_360" x="-350" y="0"/><use xlink:href="#L1_360" x="0" y="0"/><use xlink:href="#L1_360" x="350" y="0"/><use xlink:href="#L1_360" x="-350" y="350"/><use xlink:href="#L1_360" x="0" y="350"/><use xlink:href="#L1_360" x="350" y="350"/></pattern><rect x="0" y="0" width="100%" height="100%" fill="url(#pattern_L1_360)"/></g></svg>