<svg xmlns="http://www.w3.org/2000/svg" xmlns:xlink="http://www.w3.org/1999/xlink" xmlns:fi="http://pattern.flaticon.com/" x="0" y="0" width="1000" height="1000" viewBox="0 0 1000 1000"><rect x="0px" y="0px" width="100%" height="100%" opacity="1" fill="#ffffff"/><defs><path d="m425.859375 468.890625h-18.117187c10.664062-10.859375 17.015624-25.679687 17.015624-41.636719 0-7.988281-5.375-14.726562-12.695312-16.828125v-14.910156c0-1.078125-.09375-2.140625-.261719-3.1875 4.230469-3.75 7.054688-9.855469 7.054688-16.609375 0-3.621094-.226563-8.609375-.824219-12.632812 1.140625-2.4375 1.746094-5.113282 1.742188-7.910157 0-2.445312-.476563-5.160156-1.332032-7.847656 3.855469-3.21875 6.316406-8.050781 6.316406-13.453125 0-9.359375-3.84375-30.28125-18.242187-49.324219-2.507813-3.320312-7.234375-3.976562-10.554687-1.464843-3.320313 2.511718-3.976563 7.238281-1.46875 10.558593 15.015624 19.855469 15.191406 40.027344 15.191406 40.230469 0 1.347656-1.097656 2.441406-2.445313 2.441406h-225.871093c-1.347657 0-2.441407-1.09375-2.441407-2.441406 0-.214844.191407-21.847656 16.851563-42.355469 10.796875-13.289062 25.730468-22.960937 44.625-28.96875.636718-.113281 1.246094-.304687 1.820312-.566406 11.855469-3.578125 25.222656-5.75 40.082032-6.5h.046874c.246094 0 .492188-.011719.734376-.035156 3.652343-.171875 7.382812-.265625 11.214843-.269531 31.019531.011718 56.527344 5.753906 75.816407 17.066406 3.589843 2.105468 8.207031.902344 10.3125-2.6875 2.105468-3.589844.902343-8.207032-2.6875-10.3125-21.628907-12.6875-49.703126-19.125-83.441407-19.140625-1.164062 0-2.316406.015625-3.464843.03125l7.070312-61.054688h3.132812c8.859376 0 16.070313-7.214843 16.070313-16.078125v-23.34375c0-8.863281-7.210937-16.074218-16.070313-16.074218h-15.207031l-3.683593-18.5c-1.242188-6.242188-6.695313-10.777344-12.972657-10.777344h-86.949219v-61.933594c0-.765625.421876-1.457031 1.019532-1.679688l43.355468-16.089843c3.902344-1.449219 5.890626-5.785157 4.441407-9.6875-1.445313-3.902344-5.789063-5.894531-9.6875-4.445313l-43.367188 16.097656c-6.480469 2.417969-10.835937 8.769532-10.835937 15.804688v61.933594h-87.882813c-6.273437 0-11.730469 4.535156-12.972656 10.777344l-3.683594 18.5h-15.203125c-8.863281 0-16.074218 7.210937-16.074218 16.074218v23.347656c0 8.863282 7.210937 16.074219 16.074218 16.074219h3.128906l33.574219 289.808594h-65.488281c-9.996094 0-18.125 8.132813-18.125 18.125v6.859375c0 9.992188 8.128906 18.125 18.125 18.125h407.234375c9.996094 0 18.125-8.132812 18.125-18.125v-6.859375c0-9.992187-8.128906-18.125-18.125-18.125zm-241.257813-117.5h219.308594c.515625 1.464844.789063 2.839844.789063 3.792969.003906 1.164062-.402344 2.015625-1.359375 2.839844-1.945313 1.683593-6.59375 3.296874-13.292969 2.316406-4.070313-.59375-6.066406-1.652344-8.597656-2.992188-3.511719-1.859375-7.882813-4.175781-16.171875-4.175781-8 0-12.453125 2.667969-15.707032 4.617187-2.578124 1.542969-4.132812 2.472657-7.964843 2.472657-3.835938 0-5.390625-.929688-7.96875-2.472657-3.25-1.949218-7.703125-4.617187-15.707031-4.617187-8.003907 0-12.457032 2.667969-15.710938 4.617187-2.574219 1.542969-4.128906 2.472657-7.964844 2.472657-3.835937 0-5.390625-.929688-7.964844-2.472657-3.253906-1.949218-7.707031-4.617187-15.710937-4.617187s-12.457031 2.667969-15.710937 4.617187c-2.574219 1.542969-4.128907 2.472657-7.964844 2.472657-3.835938 0-5.386719-.929688-7.964844-2.472657-3.253906-1.949218-7.707031-4.617187-15.710938-4.617187-8.285156 0-12.65625 2.316406-16.167968 4.175781-2.53125 1.339844-4.53125 2.398438-8.597656 2.992188-6.703126.980468-11.347657-.632813-13.292969-2.316406-.238281-.207032-.441407-.414063-.613281-.628907-.003907 0-.003907 0-.003907-.003906-.515625-.640625-.746093-1.335937-.746093-2.210937.007812-.949219.28125-2.324219.796874-3.789063zm205.667969 29.710937c-4.503906 0-8.898437 1.84375-12.050781 5.054688l-15.0625 15.332031c-2.472656 2.515625-6.503906 2.6875-9.183594.394531l-19.507812-16.71875c-3.058594-2.617187-6.964844-4.0625-10.992188-4.0625h-135.949218c-.671876-1.019531-1.6875-3.203124-2.28125-6.4375-.011719-.046874-.015626-.09375-.023438-.140624 4.621094 1.261718 9.890625 1.539062 15.429688.730468 6.640624-.972656 10.425781-2.976562 13.464843-4.585937 2.855469-1.511719 4.574219-2.421875 9.117188-2.421875 3.835937 0 5.390625.929687 7.964843 2.472656 3.253907 1.949219 7.707032 4.617188 15.710938 4.617188s12.457031-2.667969 15.710938-4.617188c2.574218-1.542969 4.128906-2.472656 7.964843-2.472656 3.832031 0 5.386719.929687 7.964844 2.472656 3.253906 1.949219 7.707031 4.617188 15.710937 4.617188 8 0 12.457032-2.667969 15.707032-4.617188 2.578125-1.542969 4.132812-2.472656 7.96875-2.472656 3.832031 0 5.386718.929687 7.964844 2.472656 3.25 1.949219 7.707031 4.617188 15.707031 4.617188 8.003906 0 12.457031-2.667969 15.710937-4.617188 2.574219-1.542969 4.128906-2.472656 7.964844-2.472656 4.542969 0 6.265625.910156 9.117188 2.421875 3.039062 1.609375 6.824218 3.613281 13.46875 4.585937 2.105468.308594 4.175781.460938 6.183593.460938 3.457031 0 6.726563-.472656 9.722657-1.34375.007812.445312.011718.894531.011718 1.34375 0 2.851562-1.273437 4.824218-1.964844 5.386718zm6.722657 15.074219v13.558594h-20.804688l12.785156-13.015625c.335938-.347656.8125-.542969 1.296875-.542969zm-57.019532 13.558594h-148.269531v-13.558594h131.769531c.4375 0 .859375.15625 1.1875.4375zm-158.605468 15.070313h225.875c1.34375 0 2.441406 1.097656 2.441406 2.445312 0 18.675781-11.65625 35.261719-29.117188 41.640625h-172.523437c-17.464844-6.378906-29.117188-22.960937-29.117188-41.640625 0-1.347656 1.09375-2.445312 2.441407-2.445312zm-.5 44.085937h-15.921876l-.808593-35.917969c1.320312 13.753906 7.351562 26.367188 16.730469 35.917969zm6.9375-191.175781c-1.277344 1.398437-2.527344 2.824218-3.722657 4.296875-15.96875 19.65625-20.230469 41.847656-20.230469 51.863281 0 5.363281 2.429688 10.167969 6.242188 13.386719-.867188 2.710937-1.355469 5.449219-1.355469 7.910156-.003906 2.792969.597657 5.46875 1.738281 7.90625-2.078124 9.179687.4375 20.316406 4.546876 26.453125.628906.9375 1.28125 1.734375 1.941406 2.433594-.214844 1.164062-.335938 2.347656-.335938 3.550781v14.886719c-6.761718 1.90625-11.875 7.761718-12.664062 14.914062l-5.542969-246.234375h31.597656zm44.128906-28.246094c-10.726563 3.761719-20.3125 8.652344-28.746094 14.664062l1.910156-85.050781h31.585938zm43.648437-8.660156c-10.035156.769531-19.453125 2.175781-28.242187 4.214844l4.449218-65.941407h30.945313zm-228.171875-76.800782c-.554687 0-1.003906-.449218-1.003906-1v-23.347656c0-.550781.449219-1 1.003906-1h47.039063c4.164062 0 7.535156-3.375 7.535156-7.535156 0-4.164062-3.371094-7.539062-7.535156-7.539062h-16.46875l2.828125-14.203126h186.828125l2.828125 14.203126h-140.949219c-4.164063 0-7.535156 3.375-7.535156 7.539062 0 4.160156 3.371093 7.535156 7.535156 7.535156h171.523437c.550782 0 1 .449219 1 1v23.347656c0 .550782-.449218 1-1 1zm102.457032 304.882813h-18.539063l-19.5625-289.808594h31.582031zm-84.152344-289.808594h30.941406l19.5625 289.808594h-16.933594zm363.195312 314.792969c0 1.683594-1.367187 3.050781-3.050781 3.050781h-407.234375c-1.683594 0-3.050781-1.367187-3.050781-3.050781v-6.859375c0-1.679687 1.367187-3.050781 3.050781-3.050781h407.234375c1.683594 0 3.054687 1.371094 3.054687 3.050781v6.859375zm0 0" transform="matrix(0.07812514901161194 0 0 0.07812514901161194 242.5 67.5)" id="L1_18"/><path d="m494.144531 166.597656c-7.71875-15.277344-17.523437-30.101562-28.429687-43.113281.890625-14.769531-4.285156-28.183594-15.414063-39.171875-22-21.730469-51.601562-34.59375-73.6875-41.753906-5.265625-10.429688-13.433593-18.769532-24.382812-24.742188-29.558594-16.117187-59.183594-17.578125-94.820313-17.816406h-.738281c-35.058594.222656-66.542969 1.714844-96.828125 17.777344-10.929688 5.792968-19.148438 14.175781-24.460938 24.6875-28.886718 8.578125-54.957031 23.347656-73.6875 41.84375-11.128906 10.992187-16.300781 24.40625-15.40625 39.175781-10.910156 13.007813-20.714843 27.835937-28.433593 43.113281-4.382813 8.667969-25.679688 53.464844-14.792969 84.214844 3.671875 10.378906 10.539062 17.886719 20.40625 22.324219 4.695312 2.109375 9.453125 3.039062 14.222656 3.039062 22.164063 0 44.570313-20.097656 61.75-35.507812 4.265625-3.824219 8.292969-7.4375 11.589844-10.046875 7.519531-5.953125 13.820312-10.816406 19.550781-15.09375 8.089844 2.652344 15.847657 4.042968 22.929688 4.042968 2.863281 0 5.621093-.226562 8.242187-.683593 15.148438-2.636719 30.46875-6.09375 45.28125-9.433594l3.804688-.859375c13.019531 4.410156 24.933594 4.625 37.519531 4.839844 2.734375.046875 5.535156.097656 8.433594.1875.078125.003906.160156.003906.238281.003906s.160156 0 .238281-.003906c3.042969-.097656 5.941407-.132813 8.746094-.167969 11.980469-.152344 22.394531-.296875 35.167969-4.84375 15.828125 3.90625 32.332031 7.363281 49.0625 10.277344 2.625.457031 5.378906.683593 8.246094.683593 7.082031 0 14.839843-1.390624 22.929687-4.039062 5.738281 4.285156 12.039063 9.148438 19.542969 15.085938.847656.671874 1.730468 1.394531 2.640625 2.167968 1.417969 1.195313 3.148437 1.777344 4.867187 1.777344 2.152344 0 4.285156-.910156 5.777344-2.679688 2.691406-3.1875 2.289062-7.957031-.902344-10.644531-1.039062-.875-2.039062-1.699219-3.003906-2.464843-4.679688-3.703126-8.894531-6.992188-12.816406-9.996094 4.066406-2.070313 8.160156-4.410156 12.238281-7.039063 20.722656-13.351562 38.101563-31.667969 47.679687-50.253906 1.5625-3.035156 2.898438-6.042969 4.023438-9.019531 7.230469 9.71875 13.765625 20.210937 19.191406 30.949218 8.660156 17.136719 21.363282 51.664063 14.035156 72.359376-2.273437 6.425781-6.316406 10.867187-12.359374 13.582031-10.21875 4.597656-23.753907-.238281-42.59375-15.210938-3.265626-2.597656-8.015626-2.054687-10.613282 1.210938-2.59375 3.265625-2.050781 8.019531 1.214844 10.613281 11.613281 9.230469 27.664062 20.167969 44.070312 20.167969 4.710938 0 9.449219-.902344 14.117188-3 9.867188-4.4375 16.734375-11.945313 20.40625-22.324219 10.886719-30.746094-10.410156-75.546875-14.792969-84.214844zm-392.488281 52.179688c-3.664062 2.898437-7.859375 6.660156-12.300781 10.644531-16.789063 15.058594-42.15625 37.820313-59.691407 29.933594-6.042968-2.714844-10.085937-7.15625-12.359374-13.582031-7.328126-20.695313 5.375-55.222657 14.035156-72.359376 5.425781-10.738281 11.960937-21.234374 19.195312-30.949218 1.121094 2.972656 2.457032 5.976562 4.019532 9.007812 9.578124 18.589844 26.957031 36.90625 47.683593 50.261719 4.082031 2.628906 8.171875 4.96875 12.238281 7.039063-3.917968 3.003906-8.136718 6.292968-12.820312 10.003906zm196.515625-25.167969c-.117187.042969-.234375.089844-.351563.140625-.191406.074219-.382812.15625-.570312.226562-10.941406 4.113282-19.980469 4.226563-31.425781 4.375-2.800781.035157-5.695313.070313-8.792969.164063-2.886719-.089844-5.683594-.136719-8.414062-.183594-12.230469-.207031-22.792969-.386719-33.976563-4.394531-.140625-.050781-.285156-.117188-.429687-.167969-.027344-.015625-.058594-.023437-.089844-.035156-21.828125-8.191406-48.429688-41.15625-62.089844-77.058594-1.480469-3.902343-5.847656-5.859375-9.746094-4.375-3.898437 1.484375-5.855468 5.847657-4.375 9.746094 11.847656 31.136719 32.359375 59.703125 53.054688 75.527344-10.578125 2.339843-21.277344 4.601562-31.804688 6.433593-1.859375.324219-3.8125.480469-5.84375.480469-27.46875-.003906-69.214844-28.652343-85.335937-59.933593-7.042969-13.671876-12.011719-33.355469 4.328125-49.492188 14.800781-14.613281 34.792968-26.703125 57.238281-34.789062-1.40625 7.816406-1.660156 16.363281-.683594 25.539062.441407 4.148438 4.160157 7.15625 8.308594 6.714844s7.15625-4.164063 6.714844-8.3125c-1.316407-12.386719-.1875-22.953125 3.351562-31.648438.300781-.515625.535157-1.066406.707031-1.640625 3.878907-8.527343 10.207032-15.152343 18.972657-19.800781 27.308593-14.480469 55.644531-15.796875 89.933593-16.015625h.4375c33.507813.222656 61.242188 1.542969 87.710938 15.976563 8.746094 4.765624 15.0625 11.488281 18.945312 20.078124.117188.351563.257813.691407.425782 1.015626 3.410156 8.066406 4.761718 17.710937 3.976562 28.929687-2.695312 38.636719-36.136718 98.84375-70.175781 112.5zm145.84375-49.046875c-17.308594 33.59375-64.171875 64.148438-91.175781 59.445312-10.832032-1.890624-21.5625-4.011718-32.070313-6.335937 11.945313-9.082031 23.925781-22.441406 34.519531-38.75 16.214844-24.972656 26.46875-52.949219 28.132813-76.761719.539063-7.703125.210937-14.894531-.945313-21.542968 18.691407 7.03125 40.539063 17.980468 57.210938 34.445312 16.34375 16.136719 11.375 35.828125 4.328125 49.5zm0 0" transform="matrix(0.13205995566171197 -0.03538535847204559 0.03538535847204559 0.13205995566171197 137.31639349863258 149.74853478816533)" id="L1_19"/><g transform="matrix(0.09765621274709702 0 0 0.09765621274709702 62.5 237.5)" id="L1_20"><path d="m498.667969 204.019531c-2.761719-2.929687-5.859375-5.574219-9.21875-7.933593 1.558593-10.976563 3.15625-22.324219-1.183594-32.496094-2.960937-6.941406-7.421875-12.089844-12.101563-16.492188 2.792969-27.855468-6.917968-57.070312-28.367187-78.515625-17.839844-17.84375-41.277344-28.097656-66-28.882812-23.273437-.734375-45.230469 6.980469-62.339844 21.800781-2.863281-.851562-5.753906-1.632812-8.65625-2.367188-7.09375-17.605468-29.203125-29.957031-54.800781-29.957031-25.59375 0-47.707031 12.351563-54.800781 29.957031-2.902344.734376-5.789063 1.515626-8.65625 2.367188-17.105469-14.820312-39.0625-22.539062-62.335938-21.800781-24.722656.785156-48.164062 11.039062-66.003906 28.882812-21.449219 21.449219-31.160156 50.660157-28.367187 78.515625-4.675782 4.402344-9.140626 9.554688-12.101563 16.492188-4.339844 10.171875-2.738281 21.519531-1.183594 32.496094-3.359375 2.359374-6.457031 5.003906-9.21875 7.933593-10.257812 10.882813-14.839843 24.1875-12.894531 37.460938 2.902344 19.832031 20.554688 35.628906 44.0625 39.574219 2.082031.851562 4.324219 1.316406 6.605469 1.316406h409.789062c2.28125 0 4.523438-.464844 6.605469-1.316406 23.511719-3.949219 41.160156-19.742188 44.0625-39.574219 1.945312-13.273438-2.636719-26.578125-12.894531-37.460938zm-117.347657-149.34375c20.902344.664063 40.746094 9.363281 55.882813 24.5 25.332031 25.332031 31.414063 63.34375 16.347656 93.058594-3.164062-6.074219-6.605469-12.007813-10.332031-17.777344 4.664062-16.285156 2.382812-34.121093-6.464844-49.527343-2.0625-3.585938-6.640625-4.824219-10.230468-2.765626-3.585938 2.0625-4.824219 6.640626-2.761719 10.230469 4.40625 7.671875 6.695312 16.09375 6.820312 24.4375-.40625-.515625-.824219-1.027343-1.238281-1.539062-.300781-.375-.601562-.757813-.90625-1.128907-.554688-.679687-1.117188-1.347656-1.679688-2.019531-.621093-.742187-1.246093-1.484375-1.875-2.222656-.339843-.394531-.683593-.785156-1.027343-1.179687-.875-1.003907-1.757813-2.003907-2.652344-2.992188-.167969-.183594-.335937-.367188-.503906-.554688-1.082031-1.1875-2.175781-2.367187-3.285157-3.535156-.027343-.03125-.058593-.0625-.089843-.09375-7.292969-7.671875-15.113281-14.816406-23.414063-21.375-.125-.097656-.25-.203125-.378906-.300781-1.066406-.839844-2.148438-1.667969-3.230469-2.488281-.359375-.269532-.714843-.550782-1.074219-.816406-.597656-.449219-1.203124-.882813-1.804687-1.324219-4.429687-3.25-8.960937-6.324219-13.589844-9.222657 1.621094-.167968 3.265625-.261718 4.933594-.261718 7.910156 0 15.527344 1.820312 22.644531 5.414062 1.085938.546875 2.238282.804688 3.371094.804688 2.738281 0 5.375-1.507813 6.695312-4.117188 1.863282-3.695312.382813-8.199218-3.3125-10.0625-9.230468-4.660156-19.121093-7.023437-29.398437-7.023437-8.179687 0-16.277344 1.644531-23.648437 4.761719-6.089844-3.035157-12.308594-5.78125-18.644532-8.238282 12.996094-8.722656 28.527344-13.15625 44.847656-12.640625zm-125.320312-10.515625c13.339844 0 25.566406 4.160156 33.390625 10.667969-1.277344-.191406-2.554687-.367187-3.835937-.539063-.203126-.027343-.402344-.054687-.605469-.078124-1.21875-.160157-2.4375-.3125-3.660157-.449219-.28125-.03125-.566406-.058594-.851562-.089844-2.324219-.253906-4.65625-.476563-6.996094-.65625-.238281-.019531-.480468-.042969-.722656-.058594-.808594-.0625-1.617188-.109375-2.425781-.160156-.84375-.054687-1.691407-.109375-2.539063-.152344-.707031-.035156-1.417968-.070312-2.125-.097656-1.023437-.046875-2.046875-.082031-3.070312-.113281-.570313-.015625-1.144532-.035156-1.714844-.046875-1.613281-.035157-3.226562-.058594-4.84375-.058594-1.613281 0-3.226562.023437-4.84375.058594-.570312.011719-1.140625.03125-1.710938.046875-1.027343.03125-2.046874.066406-3.070312.113281-.710938.027344-1.421875.0625-2.128906.097656-.847656.046875-1.691406.097657-2.535156.152344-.8125.050781-1.621094.097656-2.429688.160156-.230469.015625-.464844.039063-.695312.054688-2.351563.183593-4.695313.40625-7.03125.660156-.277344.03125-.558594.058594-.839844.089844-1.222656.140625-2.445313.292969-3.667969.449219-.199219.027343-.394531.050781-.59375.078124-1.28125.171876-2.5625.347657-3.839844.539063 7.824219-6.507813 20.050781-10.667969 33.386719-10.667969zm-181.199219 35.015625c15.132813-15.136719 34.980469-23.835937 55.878907-24.5.855468-.027343 1.707031-.039062 2.558593-.039062 15.382813 0 29.980469 4.414062 42.289063 12.683593-6.335938 2.453126-12.554688 5.199219-18.644532 8.234376-7.371093-3.117188-15.464843-4.761719-23.648437-4.761719-10.320313 0-20.246094 2.382812-29.511719 7.082031-3.6875 1.867188-5.164062 6.378906-3.292968 10.066406 1.320312 2.605469 3.957031 4.105469 6.6875 4.105469 1.140624 0 2.296874-.261719 3.382812-.8125 7.144531-3.621094 14.789062-5.457031 22.734375-5.457031 1.667969 0 3.3125.09375 4.933594.261718-4.621094 2.890626-9.144531 5.960938-13.5625 9.199219-.613281.449219-1.230469.894531-1.835938 1.347657-.355469.265624-.703125.539062-1.054687.804687-1.089844.824219-2.175782 1.65625-3.25 2.5-.125.097656-.246094.199219-.371094.296875-8.300781 6.558594-16.125 13.703125-23.417969 21.378906-.03125.03125-.058593.0625-.089843.09375-1.109376 1.167969-2.203126 2.347656-3.285157 3.539063-.167969.183593-.335937.367187-.503906.550781-.894531.988281-1.777344 1.988281-2.652344 2.992188-.339843.394531-.6875.785156-1.027343 1.179687-.628907.738281-1.253907 1.480469-1.875 2.226563-.5625.667968-1.125 1.335937-1.675782 2.011718-.308594.375-.609375.757813-.914062 1.136719-.414063.511719-.828125 1.019531-1.234375 1.53125.125-8.324219 2.40625-16.722656 6.792969-24.382813 2.054687-3.589843.8125-8.167968-2.777344-10.222656-3.589844-2.054687-8.167969-.8125-10.226563 2.777344-8.8125 15.386719-11.078125 33.199219-6.425781 49.457031-3.726562 5.769531-7.167969 11.703125-10.332031 17.777344-15.066407-29.714844-8.980469-67.726563 16.351562-93.058594zm-36.839843 150.941407c-.089844.441406-.183594.882812-.273438 1.328124-.164062.847657-.324219 1.699219-.484375 2.550782-.140625.75-.273437 1.503906-.40625 2.257812-.125.71875-.253906 1.4375-.371094 2.160156-.234375 1.429688-.460937 2.859376-.667969 4.292969-.058593.402344-.109374.808594-.164062 1.210938-.164062 1.1875-.324219 2.378906-.46875 3.570312-.066406.53125-.128906 1.0625-.1875 1.59375-.136719 1.171875-.261719 2.347657-.378906 3.523438-.042969.421875-.085938.839843-.125 1.261719-.148438 1.566406-.28125 3.132812-.394532 4.707031-.023437.351562-.042968.703125-.066406 1.054687-.058594.835938-.117187 1.671875-.164062 2.507813-10.164063-4.945313-17.140625-13.214844-18.546875-22.828125-1.265625-8.644532 1.921875-17.527344 8.976562-25.011719 2.8125-2.980469 6.089844-5.597656 9.734375-7.800781.226563-.113282.441406-.234375.652344-.371094 3.480469-2.03125 7.269531-3.703125 11.300781-4.949219-3.300781 9.425781-5.957031 19.089844-7.964843 28.941407zm-1.3125-41.546876c-.921876-7.296874-1.304688-14.007812.867187-19.097656.59375-1.386718 1.296875-2.6875 2.097656-3.929687 2.140625 6.785156 5.085938 13.351562 8.871094 19.554687-4.09375.832032-8.054687 1.996094-11.835937 3.472656zm426.652343 76.816407c-.011719.0625-.027343.125-.042969.183593-.019531.078126-.042968.148438-.066406.21875-.242187.644532-.742187 1.105469-1.203125 1.335938-.015625.007812-.03125.015625-.046875.023438-.285156.136718-.625.242187-1.042968.242187h-409.792969c-.417969 0-.761719-.105469-1.042969-.242187-.015625-.007813-.03125-.015626-.046875-.023438-.460937-.230469-.964844-.691406-1.203125-1.335938-.027344-.070312-.050781-.140624-.070312-.214843-.015626-.0625-.027344-.125-.039063-.1875-.027344-.152344-.042969-.316407-.035156-.492188v-.003906c.074219-1.597656.171875-3.195313.285156-4.789063.035156-.53125.085937-1.058593.125-1.585937.082031-1.0625.167969-2.121094.265625-3.179687.058594-.652344.132812-1.304688.199219-1.953126.09375-.925781.191406-1.847656.296875-2.769531.085937-.726562.179687-1.453125.273437-2.179687.105469-.832032.210938-1.664063.324219-2.492188.113281-.800781.234375-1.601562.355469-2.402344.109375-.726562.222656-1.453124.339843-2.183593.144532-.894531.296876-1.789063.453126-2.683594.105468-.597656.214843-1.191406.324218-1.785156.1875-1.019531.382813-2.039063.585938-3.050781.085937-.425782.171875-.847657.261718-1.273438.242188-1.179688.492188-2.363281.761719-3.539062.039063-.183594.082031-.363282.125-.546876 2.671875-11.683593 6.359375-23.128906 11.054688-34.25.074219-.171874.125-.351562.183593-.53125.363282-.851562.738282-1.699218 1.113282-2.546874.0625-.121094.132812-.234376.1875-.355469 6.710937-15.128907 15.148437-29.257813 25.039062-42.160157.152344-.203124.304688-.402343.457032-.601562.828124-1.066406 1.667968-2.121094 2.511718-3.171875.335938-.417969.667969-.839844 1.007813-1.253906.601562-.734375 1.210937-1.457031 1.824219-2.183594.574218-.683594 1.144531-1.375 1.734374-2.054687.144532-.167969.292969-.332032.4375-.5 4.214844-4.847657 8.667969-9.523438 13.359376-14.011719 2.402343-2.300781 4.855468-4.535157 7.347656-6.703125.039062-.03125.074218-.066406.113281-.097656 1.128906-.984376 2.273437-1.949219 3.421875-2.90625.226562-.183594.453125-.375.679688-.558594 1-.824219 2.007812-1.636719 3.019531-2.441406.425781-.335938.851562-.671876 1.277343-1.003907.847657-.664062 1.699219-1.320312 2.558594-1.96875.671875-.507812 1.347656-1.007812 2.023438-1.503906.644531-.476563 1.289062-.953125 1.9375-1.421875 1.050781-.753906 2.109375-1.496094 3.171875-2.230469.304687-.210937.605469-.421875.910156-.632812 16.457031-11.238281 34.597656-20.152344 53.941406-26.3125.085938-.027344.164063-.066407.246094-.097657 5.082031-1.609374 10.234375-3.015624 15.441406-4.226562.019531-.007812.042969-.007812.0625-.011719 30.898438-7.203125 63.695313-7.203125 94.59375 0 .023438.003907.046875.003907.070313.011719 5.203125 1.210938 10.351562 2.617188 15.433594 4.226562.082031.027344.160156.070313.246093.09375 19.34375 6.164063 37.484375 15.078126 53.941407 26.316407.304687.207031.605468.421875.910156.632812 1.0625.734375 2.121094 1.476563 3.171875 2.230469.648437.46875 1.292969.945312 1.9375 1.417969.675781.5 1.351562 1 2.023437 1.507812.859375.648438 1.710938 1.304688 2.558594 1.96875.425781.332031.851562.664063 1.277344 1.003907 1.011718.800781 2.019531 1.617187 3.019531 2.441406.226563.183594.453125.371094.679687.558594 1.148438.957031 2.289063 1.921874 3.421876 2.90625.039062.03125.074218.0625.113281.097656 2.492187 2.167968 4.945312 4.402344 7.347656 6.699218 4.691406 4.488282 9.144531 9.167969 13.359375 14.015626.144531.167968.292969.332031.4375.5.589844.679687 1.15625 1.367187 1.734375 2.054687.613281.726563 1.222656 1.449219 1.824219 2.183594.339844.414062.671875.835937 1.007812 1.253906.84375 1.050781 1.683594 2.105469 2.511719 3.171875.152344.199219.304687.398438.457031.597656 9.894532 12.90625 18.328125 27.03125 25.039063 42.160156.054687.125.125.238282.1875.359376.375.847656.75 1.695312 1.113281 2.546874.058594.175782.109375.355469.183594.53125 4.695312 11.121094 8.382812 22.566407 11.054687 34.253907.042969.179687.085938.359375.125.539062.265625 1.179688.519531 2.363281.761719 3.546875.089844.421875.175781.84375.261719 1.265625.203125 1.015625.398437 2.035157.585937 3.054688.109375.59375.21875 1.1875.320313 1.78125.160156.898437.3125 1.792969.457031 2.691406.117188.726563.230469 1.449219.339844 2.175781.121094.804688.242187 1.605469.351562 2.410156.117188.824219.222656 1.65625.328125 2.484376.09375.726562.1875 1.453124.273438 2.183593.105469.917969.199219 1.84375.296875 2.765625.066406.652344.136718 1.304688.199218 1.957032.097657 1.058593.179688 2.117187.261719 3.175781.042969.53125.089844 1.058593.128907 1.589843.109374 1.59375.207031 3.191407.285156 4.789063.003906.179687-.015625.339844-.039063.496094zm.226563-80.304688c3.777344-6.195312 6.722656-12.757812 8.863281-19.539062.796875 1.242187 1.503906 2.542969 2.09375 3.929687 2.171875 5.089844 1.792969 11.796875.871094 19.089844-.089844-.035156-.1875-.0625-.277344-.097656-1.011719-.390625-2.039063-.757813-3.078125-1.101563-.261719-.089843-.523438-.179687-.789062-.265625-1.140626-.363281-2.292969-.707031-3.460938-1.019531-.246094-.066406-.496094-.121094-.742188-.183594-.960937-.246093-1.925781-.46875-2.902343-.675781-.195313-.042969-.382813-.097656-.578125-.136719zm33.210937 54.226563c-1.40625 9.613281-8.382812 17.882812-18.542969 22.828125-.046874-.835938-.109374-1.671875-.164062-2.503907-.023438-.355468-.046875-.707031-.070312-1.0625-.113282-1.570312-.246094-3.136718-.390626-4.703124-.039062-.421876-.085937-.84375-.128906-1.265626-.117187-1.171874-.242187-2.34375-.375-3.515624-.0625-.535157-.125-1.066407-.191406-1.601563-.144531-1.1875-.300781-2.371094-.464844-3.554687-.054687-.410157-.105468-.816407-.167968-1.222657-.207032-1.433593-.429688-2.863281-.667969-4.289062-.117188-.726563-.246094-1.445313-.371094-2.167969-.132813-.75-.265625-1.5-.40625-2.25-.15625-.851562-.316406-1.707031-.484375-2.558594-.089844-.4375-.179688-.875-.269531-1.308594-2.007813-9.851562-4.664063-19.511718-7.964844-28.933593.289063.089843.578125.183593.863281.277343.488282.15625.972656.324219 1.457032.492188.550781.199219 1.101562.402344 1.644531.617188.28125.109374.554687.226562.832031.339843 2.3125.960938 4.550781 2.0625 6.695312 3.328125.089844.054688.191407.09375.285157.144532 3.710937 2.222656 7.054687 4.871093 9.910156 7.902343 7.050781 7.480469 10.238281 16.363281 8.972656 25.007813zm0 0"/><path d="m170.757812 32.617188c4.714844-.085938 10.09375 1.066406 15.789063 2.273437 6.085937 1.289063 12.316406 2.609375 18.507813 2.609375 2.445312 0 4.882812-.203125 7.300781-.699219 8.394531-1.722656 15.816406-6.878906 22.992187-11.863281 7.367188-5.121094 14.328125-9.953125 20.652344-9.953125 6.328125 0 13.285156 4.835937 20.65625 9.953125 7.175781 4.984375 14.597656 10.140625 22.992188 11.863281 8.542968 1.75 17.320312-.109375 25.808593-1.910156 6.242188-1.324219 12.140625-2.570313 17.148438-2.210937 4.117187.296874 7.714843-2.8125 8.007812-6.941407.296875-4.125-2.808593-7.710937-6.9375-8.007812-7.117187-.507813-14.339843 1.023437-21.324219 2.503906-7.308593 1.546875-14.214843 3.007813-19.695312 1.886719-5.382812-1.101563-11.246094-5.175782-17.453125-9.488282-8.9375-6.210937-18.183594-12.632812-29.203125-12.632812-11.015625 0-20.261719 6.421875-29.199219 12.632812-6.207031 4.3125-12.070312 8.386719-17.453125 9.488282-5.480468 1.125-12.386718-.339844-19.695312-1.886719-6.253906-1.328125-12.734375-2.691406-19.125-2.597656-4.136719.066406-7.441406 3.472656-7.375 7.609375.0625 4.136718 3.488281 7.445312 7.605468 7.371094zm0 0"/></g><path d="m233.582031 169.015625c-4.710937-14.625-17.113281-24.195313-34.589843-27.019531 4.789062-8.730469 8.066406-22.046875 3.800781-36.855469-7.199219-24.996094-31.113281-25.320313-44.113281-25.429687 5.488281-10.566407 10.878906-27.253907 7.0625-43.867188-2.625-11.425781-11.097657-26.390625-36.550782-32.785156-15.195312-3.816406-31.238281-3.246094-39.449218-2.566406-4.015626.335937-7.257813 3.449218-7.714844 7.402343-.460938 4 1.921875 7.671875 5.800781 8.929688 5.898437 1.90625 13.351563 5.964843 15.328125 14.445312 2.402344 10.3125-1.019531 24.859375-49.234375 46.003907-16.320313 7.15625-26.308594 17.265624-29.679687 30.042968-3.972657 15.042969 2.304687 29.847656 8.5 39.855469-5.148438 1.433594-11.011719 3.878906-16.273438 7.578125-10.378906 7.300781-15.902344 17.519531-15.96875 29.554688-.082031 14.980468 4.902344 24.972656 10.8125 31.554687-.941406 1.816406-1.480469 3.871094-1.480469 6.050781v9.722656c0 17.78125 12.082031 32.789063 28.464844 37.261719l10.6875 39.847657c0 .003906.003906.003906.003906.007812l34.941407 130.296875c.003906.003906.003906.007813.003906.015625l15.75 58.722656c2.28125 8.5 9.730468 14.214844 18.53125 14.214844 8.804687 0 16.253906-5.714844 18.53125-14.21875l61.386718-228.886719c16.386719-4.472656 28.46875-19.480469 28.46875-37.261719v-9.722656c0-2.105468-.507812-4.089844-1.386718-5.855468 8.558594-8.671876 15.96875-23.460938 8.367187-47.039063zm-111.324219 324.882813c-.75 2.796874-3.074218 3.097656-4.039062 3.097656s-3.292969-.300782-4.042969-3.097656l-11.71875-43.695313c9.386719 3.945313 18.921875 7.671875 28.535157 11.128906zm25.273438-94.246094c-2.222656-.824219-4.441406-1.65625-6.625-2.496094-3.867188-1.484375-8.207031.441406-9.695312 4.308594-1.488282 3.867187.4375 8.207031 4.308593 9.695312 2.671875 1.027344 5.386719 2.042969 8.113281 3.039063l-8.738281 32.585937c-12.667969-4.589844-25.203125-9.644531-37.394531-15.078125l-11.414062-42.5625c5.402343 2.753907 10.863281 5.417969 16.332031 7.96875 1.027343.476563 2.105469.703125 3.164062.703125 2.828125 0 5.535157-1.605468 6.804688-4.335937 1.75-3.757813.125-8.222657-3.632813-9.96875-9.441406-4.398438-18.828125-9.15625-27.96875-14.132813l-12.167968-45.371094c27.289062 17.34375 56.632812 31.925782 87.546874 43.472657zm12.53125-46.726563c-34.761719-13.109375-67.449219-30.179687-97.316406-50.800781l-8.546875-31.863281h19.140625c28.863281 20.769531 60.847656 37.917969 95.207031 51.039062zm12.390625-46.199219c-25.628906-9.890624-49.867187-22.109374-72.378906-36.464843h82.160156zm38.402344-98.027343h-126.464844c-4.144531 0-7.503906 3.355469-7.503906 7.5s3.359375 7.503906 7.503906 7.503906h127.207031v7.929687c0 11.957032-8.933594 21.863282-20.476562 23.40625-.003906.003907-.007813 0-.011719.003907-.527344.066406-1.050781.121093-1.5625.15625-.015625 0-.035156.003906-.050781.003906-.519532.035156-1.027344.050781-1.519532.050781h-139.515624c-.496094 0-1.003907-.015625-1.523438-.050781-.015625 0-.03125-.003906-.050781-.003906-.511719-.035157-1.03125-.085938-1.558594-.15625-.007813-.003907-.011719 0-.015625-.003907-11.542969-1.542968-20.476562-11.449218-20.476562-23.40625v-7.929687h24.40625c4.144531 0 7.503906-3.359375 7.503906-7.503906s-3.359375-7.5-7.503906-7.5h-23.738282c-6.695312-5.347657-10.058594-13.515625-10-24.3125.09375-17.105469 19.445313-23.03125 26.210938-23.757813.316406-.03125.617187-.097656.925781-.160156 3.023437 3.710938 6.457031 7.707031 9.136719 10.226562 1.449218 1.359376 3.292968 2.03125 5.136718 2.03125 2 0 3.992188-.792968 5.46875-2.363281 2.835938-3.023437 2.691407-7.769531-.332031-10.605469-4.078125-3.832031-11.703125-13.625-14.398437-17.214843-4.609375-6.640625-12-19.667969-8.902344-31.398438 2.144531-8.132812 9.277344-14.90625 21.199219-20.132812 30.640625-13.4375 64.902343-32.757813 57.820312-63.152344-1.171875-5.011719-3.304687-9.109375-5.925781-12.453125 16.273438 1.363281 35.351562 6.710938 39.277344 23.796875 3.179687 13.84375-2.523438 28.007813-6.75 35.421875-2.898438 4.800781-12.355469 17.960938-22.015625 22.445312-3.757813 1.746094-5.390625 6.207032-3.644531 9.964844 1.269531 2.734375 3.980468 4.34375 6.808593 4.34375 1.058594 0 2.132813-.222656 3.15625-.699218 7.878907-3.65625 14.84375-10.449219 19.929688-16.484376.207031.039063.410156.09375.621093.117188 2.722657.347656 5.835938.371094 9.132813.398438 15.152344.128906 26.175781 1.246093 30.019531 14.582031 3.21875 11.183593.09375 21.046875-3.035156 26.339843-1.558594 2.101563-10.171875 13.429688-21.324219 22.582032-3.203125 2.628906-3.667969 7.355468-1.039062 10.558594 1.480469 1.808593 3.632812 2.746093 5.800781 2.746093 1.675781 0 3.359375-.558593 4.753906-1.703125 5.582032-4.582031 10.535156-9.5625 14.484375-13.914062.648438.148437 1.3125.242187 1.992188.269531 10.929687.40625 24.882812 3.761719 29.292969 17.445313 5.078124 15.765624 2.316406 27.265624-8.449219 35.082031zm0 0" transform="matrix(0.17578154802322388 0 0 0.17578154802322388 217.5 217.5)" id="L1_21"/><path d="m452.511719 381.117188v-17.015626c0-4.585937-1.015625-9.003906-2.90625-12.992187 11.273437-1.859375 19.976562-11.164063 20.519531-22.710937.3125-6.691407-2.054688-13.039063-6.667969-17.875-3.132812-3.285157-7.144531-5.605469-11.492187-6.730469.351562-1.851563.546875-3.738281.546875-5.644531v-17.773438c2.835937-1.410156 5.417969-3.078125 7.652343-5.015625 6.539063-5.664063 9.992188-13.125 9.984376-21.574219-.007813-13.035156-8.414063-24.132812-20.070313-28.164062 1.582031-3.710938 2.433594-7.75 2.433594-11.917969v-18.433594c13.363281-1.1875 23.875-12.441406 23.875-26.105469 0-1.96875-.414063-48.703124-36.441407-93.046874-18.304687-22.53125-42.535156-40.375-72.019531-53.035157-35.628906-15.296875-79.195312-23.0624998-129.484375-23.082031-57.558594.0195312-106.140625 10.167969-144.390625 30.160156-3.671875 1.917969-5.09375 6.453125-3.171875 10.125 1.917969 3.675782 6.457032 5.097656 10.125 3.175782 36.082032-18.859376 82.324219-28.429688 137.4375-28.449219 48.242188.015625 89.8125 7.371093 123.5625 21.863281 27.230469 11.691406 49.535156 28.078125 66.292969 48.707031 26.167969 32.207031 33.082031 68.757813 33.082031 83.582031 0 6.179688-5.027344 11.207032-11.207031 11.207032h-423.453125c-6.179688 0-11.207031-5.027344-11.207031-11.207032 0-6.855468 1.949219-23.511718 9.261719-42.457031 9.917968-25.699219 26.085937-47.582031 48.0625-65.035156 3.246093-2.578125 3.789062-7.300781 1.210937-10.546875s-7.300781-3.785156-10.546875-1.207031c-62.28125 49.472656-63 116.417969-63 119.246093 0 13.667969 10.515625 24.917969 23.878906 26.105469v18.4375c0 4.164063.847656 8.203125 2.433594 11.917969-11.660156 4.027344-20.0625 15.125-20.074219 28.160156-.003906 8.449219 3.449219 15.910156 9.988281 21.574219 2.234376 1.941406 4.8125 3.609375 7.652344 5.019531v17.769532c0 1.933593.199219 3.847656.558594 5.722656-10.113281 2.679687-17.667969 11.472656-18.171875 22.207031-.3125 6.691406 2.054687 13.039063 6.667969 17.875 3.695312 3.871094 8.605468 6.402344 13.847656 7.214844-1.871094 3.976562-2.902344 8.375-2.902344 12.933593v17.015626c-13.367187 1.1875-23.878906 12.4375-23.878906 26.105468 0 57.773438 47.003906 104.777344 104.777344 104.777344h266.332031c57.773437 0 104.777344-47.003906 104.777344-104.777344.003906-13.667968-10.511719-24.917968-23.875-26.105468zm-413.121094-185.738282h398.113281v18.328125c0 3.851563-1.445312 7.484375-3.996094 10.289063h-390.125c-2.546874-2.804688-3.992187-6.4375-3.992187-10.289063zm-17.640625 58.417969c.007812-8.15625 6.613281-14.789063 14.734375-14.789063h403.925781c8.117188 0 14.726563 6.632813 14.730469 14.789063.003906 4.070313-1.566406 7.417969-4.804687 10.222656-6.382813 5.527344-18.203126 7.824219-30.859376 6-8.910156-1.285156-13.597656-3.734375-18.5625-6.328125-6.621093-3.460937-13.46875-7.039062-27.5-7.039062-13.300781 0-20.210937 4.085937-26.3125 7.691406-5.296874 3.128906-9.484374 5.601562-18.679687 5.601562s-13.378906-2.472656-18.675781-5.601562c-6.097656-3.605469-13.011719-7.691406-26.308594-7.691406-13.300781 0-20.214844 4.085937-26.3125 7.691406-5.296875 3.128906-9.484375 5.601562-18.679688 5.601562-9.195312 0-13.378906-2.472656-18.675781-5.601562-6.097656-3.605469-13.011719-7.691406-26.3125-7.691406-13.296875 0-20.210937 4.085937-26.3125 7.691406-5.296875 3.128906-9.480469 5.601562-18.675781 5.601562s-13.378906-2.472656-18.675781-5.601562c-6.101563-3.605469-13.015625-7.691406-26.3125-7.691406-14.035157 0-20.878907 3.578125-27.5 7.039062-4.964844 2.59375-9.652344 5.042969-18.5625 6.328125-12.652344 1.824219-24.480469-.472656-30.859375-6-3.238282-2.804687-4.8125-6.152343-4.808594-10.222656zm2.542969 79.792969c-1.753907-1.835938-2.652344-4.253906-2.53125-6.808594.226562-4.824219 4.566406-8.75 9.667969-8.75h295.101562c4.144531 0 7.503906-3.359375 7.503906-7.503906 0-4.144532-3.359375-7.503906-7.503906-7.503906h-286.335938c-.527343-1.5625-.804687-3.203126-.804687-4.875v-13.207032c3.09375.464844 6.320313.703125 9.636719.703125 3.433594 0 6.960937-.253906 10.535156-.769531 11.445312-1.652344 17.777344-4.960938 23.367188-7.882812 5.921874-3.09375 10.203124-5.328126 20.550781-5.328126 9.195312 0 13.378906 2.472657 18.675781 5.601563 6.101562 3.601563 13.015625 7.6875 26.3125 7.6875 13.300781 0 20.210938-4.085937 26.3125-7.6875 5.296875-3.128906 9.480469-5.601563 18.675781-5.601563 9.195313 0 13.378907 2.472657 18.675781 5.601563 6.101563 3.601563 13.015626 7.6875 26.3125 7.6875 13.300782 0 20.214844-4.085937 26.3125-7.6875 5.296876-3.128906 9.484376-5.601563 18.679688-5.601563 9.191406 0 13.375 2.472657 18.671875 5.601563 6.101563 3.601563 13.015625 7.6875 26.3125 7.6875 13.300781 0 20.214844-4.085937 26.3125-7.6875 5.300781-3.128906 9.484375-5.601563 18.679687-5.601563 10.347657 0 14.625 2.234376 20.550782 5.328126 5.585937 2.921874 11.921875 6.230468 23.367187 7.882812 7.03125 1.015625 13.867188.996094 20.171875.054688v13.21875c0 1.671874-.28125 3.3125-.804687 4.875h-75.125c-4.148438 0-7.507813 3.359374-7.507813 7.503906 0 4.144531 3.359375 7.503906 7.507813 7.503906h84.363281c2.539062 0 4.90625 1.015625 6.660156 2.855469 1.753906 1.835937 2.652344 4.253906 2.535156 6.808593-.230468 4.824219-4.566406 8.75-9.667968 8.75-3.992188 0-7.972656.304688-11.910156.894532-.101563.011718-.203126.027344-.304688.042968-9.152344 1.40625-18.050781 4.378907-26.210938 8.800782l-42.515624 23.03125c-12.644532 6.847656-28.039063 7.449218-41.175782 1.601562l-61.578125-27.402344c-10.390625-4.625-21.425781-6.96875-32.800781-6.96875h-198.011719c-2.542969 0-4.90625-1.015624-6.664062-2.855468zm413.207031 30.511718v16.90625h-63.234375l39.921875-21.625c5.734375-3.109374 11.921875-5.332031 18.296875-6.621093 3.179687 2.886719 5.015625 6.960937 5.015625 11.339843zm-128.171875 16.90625h-269.9375v-16.90625c0-5.097656 2.519531-9.800781 6.667969-12.648437h182.910156c9.257812 0 18.238281 1.90625 26.699219 5.671875zm62.285156 115.980469h-266.335937c-49.496094 0-89.765625-40.265625-89.765625-89.765625 0-6.179687 5.027343-11.207031 11.207031-11.207031h423.453125c6.179687 0 11.207031 5.027344 11.207031 11.207031 0 49.5-40.269531 89.765625-89.765625 89.765625zm0 0" transform="matrix(0.16979198020095337 0.04549562397612663 -0.04549562397612663 0.16979198020095337 318.03282592565984 -53.81818405646065)" id="L1_22"/><g transform="matrix(0.078125 0 0 0.078125 155 330)" id="L1_23"><path d="m367.210938.0195312c-1.335938-.0117187-2.671876-.0195312-4.007813-.0195312-67.375 0-132.738281 13.195312-194.277344 39.226562-59.433593 25.136719-112.808593 61.125-158.65625 106.96875l-.371093.375c-13.210938 13.238282-13.195313 34.777344.035156 48.003907l19.253906 19.257812c6.4375 6.4375 15.019531 9.980469 24.167969 9.980469h.007812c9.15625-.003906 17.738281-3.550781 24.179688-9.996094l.34375-.34375c2.757812-2.75 6.417969-4.261718 10.328125-4.261718h.179687c4.027344.046874 7.777344 1.675781 10.5625 4.585937l39.21875 41.023437c3.980469 4.164063 9.339844 6.492188 15.085938 6.558594h.242187c5.65625 0 10.96875-2.203125 14.988282-6.21875 8.320312-8.324218 8.476562-22.015625.339843-30.523437l-28.230469-29.527344c-2.519531-2.636719-2.652343-6.800781-.296874-9.277344 1.25-1.3125 2.929687-2.035156 4.730468-2.035156h.007813c1.796875 0 3.472656.714844 4.714843 2.011719l8.886719 9.296875c8.105469 8.480469 21.25 9.207031 29.925781 1.664062 4.488282-3.90625 7.109376-9.320312 7.382813-15.25.269531-5.847656-1.894531-11.625-5.941406-15.855469l-6.445313-6.742187c-3.316406-3.46875-4.726562-8.167969-3.875-12.890625.847656-4.6875 3.785156-8.5625 8.058594-10.625 54.941406-26.554688 113.972656-40.019531 175.453125-40.019531 1.195313 0 2.386719.003906 3.578125.015625 9.128906.09375 17.660156-3.402344 24.125-9.808594 6.488281-6.429688 10.058594-15.003906 10.058594-24.136719v-27.460937c.003906-18.574219-15.140625-33.816406-33.753906-33.9765628zm18.769531 61.4335938c0 5.105469-1.996094 9.898437-5.621094 13.488281-3.605469 3.574219-8.394531 5.554688-13.441406 5.46875-1.238281-.011718-2.472657-.015625-3.714844-.015625-63.757813 0-124.984375 13.964844-181.972656 41.511719-8.640625 4.171875-14.574219 11.992188-16.285157 21.453125-1.71875 9.496094 1.121094 18.941406 7.785157 25.914063l6.449219 6.742187c1.242187 1.300781 1.882812 3.011719 1.800781 4.808594s-.878907 3.445312-2.246094 4.632812c-2.582031 2.246094-6.734375 1.925781-9.257813-.710937l-8.886718-9.296875c-4.039063-4.222657-9.703125-6.644531-15.550782-6.644531-.007812 0-.011718 0-.019531 0-5.9375.003906-11.464843 2.382812-15.570312 6.691406-7.925781 8.324218-7.785157 21.488281.320312 29.964844l28.230469 29.527343c2.507812 2.625 2.457031 7.003907-.105469 9.570313-1.199219 1.199218-2.796875 1.820312-4.464843 1.832031-1.679688-.019531-3.25-.707031-4.425782-1.929687l-39.21875-41.023438c-5.589844-5.847656-13.128906-9.121094-21.21875-9.214844-.121094-.003906-.238281-.003906-.355468-.003906-7.910157 0-15.324219 3.0625-20.894532 8.625l-.117187.117188-.078125.074218-.183594.1875c-3.605469 3.609375-8.429688 5.597656-13.578125 5.597656 0 0 0 0-.003906 0-5.144531 0-9.964844-1.984374-13.570313-5.589843l-19.257812-19.257813c-7.390625-7.390625-7.402344-19.421875-.003906-26.835937l.355468-.355469c44.460938-44.464844 96.238282-79.375 153.886719-103.757812 59.679687-25.242188 123.078125-38.039063 188.4375-38.039063 1.292969 0 2.582031.003906 3.871094.015625h.003906c10.421875.09375 18.902344 8.613281 18.902344 18.992188zm0 0"/><path d="m378.242188 114.371094c-4.140626 0-7.492188 3.355468-7.492188 7.492187v369.425781c0 3.515626-2.679688 4.898438-3.503906 5.238282-.820313.339844-3.691406 1.257812-6.175782-1.226563l-263.484374-263.484375c-2.925782-2.925781-7.671876-2.925781-10.597657 0-2.925781 2.925782-2.925781 7.671875 0 10.597656l263.484375 263.484376c4 4 9.15625 6.101562 14.472656 6.101562 2.679688 0 5.402344-.535156 8.039063-1.625 7.863281-3.257812 12.75-10.570312 12.75-19.085938v-369.425781c0-4.136719-3.355469-7.492187-7.492187-7.492187zm0 0"/><path d="m321.4375 104.769531c-18.023438 0-32.683594 14.660157-32.683594 32.679688s14.660156 32.679687 32.683594 32.679687c18.019531 0 32.679688-14.660156 32.679688-32.679687s-14.660157-32.679688-32.679688-32.679688zm0 50.375c-9.757812 0-17.695312-7.9375-17.695312-17.695312 0-9.757813 7.9375-17.691407 17.695312-17.691407 9.753906 0 17.691406 7.933594 17.691406 17.691407 0 9.757812-7.9375 17.695312-17.691406 17.695312zm0 0"/><path d="m192.636719 298.136719c0 16.6875 13.578125 30.265625 30.269531 30.265625 16.6875 0 30.265625-13.578125 30.265625-30.265625 0-16.691407-13.578125-30.269531-30.265625-30.269531-16.691406 0-30.269531 13.578124-30.269531 30.269531zm30.269531-15.28125c8.425781 0 15.28125 6.855469 15.28125 15.28125s-6.855469 15.28125-15.28125 15.28125-15.285156-6.855469-15.285156-15.28125 6.859375-15.28125 15.285156-15.28125zm0 0"/><path d="m332.21875 263.371094c-17.277344 0-31.335938 14.058594-31.335938 31.335937 0 17.277344 14.058594 31.332031 31.335938 31.332031s31.332031-14.054687 31.332031-31.332031c0-17.277343-14.058593-31.335937-31.332031-31.335937zm0 47.679687c-9.015625 0-16.347656-7.332031-16.347656-16.34375 0-9.015625 7.332031-16.347656 16.347656-16.347656 9.011719 0 16.34375 7.332031 16.34375 16.347656 0 9.011719-7.332031 16.34375-16.34375 16.34375zm0 0"/><path d="m357.566406 385.3125c0-18.410156-14.980468-33.386719-33.386718-33.386719h-5.507813c-18.410156 0-33.390625 14.976563-33.390625 33.386719 0 7.988281 6.5 14.484375 14.484375 14.484375h1.964844l-.3125 5.863281c-.191407 3.644532 1.136719 7.253906 3.644531 9.902344 2.511719 2.648438 6.046875 4.167969 9.695312 4.167969h13.332032c3.648437 0 7.179687-1.519531 9.691406-4.167969s3.839844-6.257812 3.648438-9.902344l-.3125-5.863281h1.964843c7.984375.003906 14.484375-6.496094 14.484375-14.484375zm-21.464844-.5c-2.796874 0-5.503906 1.164062-7.425781 3.191406-1.925781 2.03125-2.941406 4.796875-2.792969 7.582032l.488282 9.15625h-9.894532l.488282-9.15625c.148437-2.792969-.871094-5.554688-2.796875-7.582032-1.921875-2.03125-4.628907-3.191406-7.421875-3.191406h-6.46875c.265625-9.917969 8.414062-17.898438 18.394531-17.898438h5.507813c9.976562 0 18.125 7.980469 18.390624 17.898438zm0 0"/><path d="m253.421875 160.210938c-20.960937 0-38.011719 17.050781-38.011719 38.015624v6.488282c0 20.960937 17.050782 38.011718 38.011719 38.011718 8.675781 0 15.734375-7.054687 15.734375-15.730468v-3.726563l8.320312.441407c3.9375.214843 7.820313-1.222657 10.675782-3.929688 2.855468-2.710938 4.492187-6.519531 4.492187-10.453125v-15.714844c0-3.933593-1.636719-7.746093-4.492187-10.453125-2.855469-2.707031-6.757813-4.140625-10.675782-3.929687l-8.320312.441406v-3.726563c0-8.675781-7.054688-15.734374-15.734375-15.734374zm24.238281 34.015624v14.484376l-12.199218-.648438c-2.933594-.148438-5.820313.910156-7.945313 2.925781s-3.347656 4.851563-3.347656 7.78125v8.222657c0 .414062-.332031.746093-.742188.746093-12.699219 0-23.027343-10.328125-23.027343-23.023437v-6.492188c0-12.695312 10.328124-23.027344 23.027343-23.027344.410157 0 .742188.335938.742188.746094v8.226563c0 2.929687 1.222656 5.765625 3.347656 7.78125s5.019531 3.074219 7.945313 2.921875zm0 0"/></g><g transform="matrix(0.0390625 0 0 0.0390625 77.5 340)" id="L1_24"><path d="m259.855469 99.359375 19.78125-11.851563c3.554687-2.128906 4.710937-6.734374 2.582031-10.289062-2.128906-3.550781-6.734375-4.707031-10.289062-2.578125l-19.785157 11.851563c-3.550781 2.128906-4.707031 6.738281-2.578125 10.289062 1.40625 2.347656 3.890625 3.648438 6.441406 3.648438 1.3125 0 2.640626-.34375 3.847657-1.070313zm0 0"/><path d="m470.472656 185.855469c22.898438 0 41.527344-18.628907 41.527344-41.527344v-102.800781c0-22.898438-18.628906-41.527344-41.527344-41.527344h-428.945312c-22.898438 0-41.527344 18.628906-41.527344 41.527344v102.796875c0 22.898437 18.628906 41.53125 41.527344 41.53125h18.683594l30.066406 258.386719h-66.390625c-13.171875 0-23.886719 10.714843-23.886719 23.886718 0 24.007813 19.53125 43.539063 43.539062 43.539063h424.921876c24.007812 0 43.539062-19.53125 43.539062-43.539063 0-13.171875-10.714844-23.886718-23.886719-23.886718h-66.386719l2.625-22.570313c.480469-4.117187-2.46875-7.839844-6.582031-8.316406-4.113281-.480469-7.835937 2.46875-8.316406 6.582031l-2.828125 24.304688h-92.0625c35.765625-32.375 37.042969-93.324219 36.367188-113.804688-.1875-5.550781-4.679688-9.898438-10.234376-9.898438h-169.390624c-5.550782 0-10.046876 4.347657-10.230469 9.898438-.675781 20.480469.601562 81.425781 36.363281 113.804688h-92.058594l-30.066406-258.386719h18.417969c4.140625 0 7.5-3.359375 7.5-7.5s-3.359375-7.5-7.5-7.5h-52.203125c-14.628906 0-26.527344-11.902344-26.527344-26.527344v-102.800781c0-14.625 11.898438-26.527344 26.527344-26.527344h428.945312c14.625 0 26.527344 11.898438 26.527344 26.527344v102.796875c0 14.628906-11.898438 26.53125-26.527344 26.53125h-341.84375c-4.144531 0-7.5 3.355469-7.5 7.5 0 4.140625 3.355469 7.5 7.5 7.5h50.207032v30.613281c0 19.246094 12.421874 35.636719 29.664062 41.605469v13.652343c0 10.453126 8.507812 18.960938 18.960938 18.960938h5.421874c10.453126 0 18.960938-8.507812 18.960938-18.960938v-11.238281h8.316406v11.238281c0 10.453126 8.503906 18.960938 18.960938 18.960938h5.417968c10.457032 0 18.960938-8.507812 18.960938-18.960938v-13.652343c8.382812-2.902344 15.632812-8.257813 20.859375-15.21875h34.597656c2.730469 4.507812 7.667969 7.539062 13.3125 7.539062h56.910157l-15.664063 134.625c-.480469 4.113281 2.46875 7.835938 6.582031 8.316407.292969.03125.585938.050781.875.050781 3.753906 0 6.996094-2.816407 7.441406-6.632813l15.863282-136.359375h52.15625c8.582031 0 15.566406-6.984375 15.566406-15.570312v-26.441407c0-8.585937-6.984375-15.570312-15.566406-15.570312h-45.453125l.808593-6.957031zm-294.503906 149.683593h160.0625c.25 25.6875-3.855469 89.636719-48.972656 108.703126h-62.117188c-45.121094-19.070313-49.222656-83.015626-48.972656-108.703126zm312.144531 123.703126c4.902344 0 8.886719 3.984374 8.886719 8.886718 0 15.734375-12.804688 28.539063-28.539062 28.539063h-424.921876c-15.734374 0-28.539062-12.804688-28.539062-28.539063 0-4.902344 3.984375-8.886718 8.886719-8.886718zm-251.273437-187.515626c0 2.183594-1.777344 3.960938-3.960938 3.960938h-5.417968c-2.183594 0-3.960938-1.777344-3.960938-3.960938v-11.234374h13.339844zm51.660156 0c0 2.183594-1.777344 3.960938-3.960938 3.960938h-5.417968c-2.183594 0-3.960938-1.777344-3.960938-3.960938v-11.234374h13.339844zm29.667969-55.257812c0 16.003906-13.019531 29.023438-29.023438 29.023438h-66.289062c-16 0-29.019531-13.019532-29.019531-29.023438v-30.613281h124.332031zm38.53125 11.386719h-25.035157c.976563-3.632813 1.503907-7.449219 1.503907-11.386719v-1.113281h23.53125zm2.253906-27.5h-25.789063v-14.5h103.523438l-.808594 6.960937h-63.613281c-5.644531-.003906-10.582031 3.027344-13.3125 7.539063zm137.480469 7.457031c.3125 0 .566406.257812.566406.570312v26.441407c0 .316406-.253906.570312-.566406.570312h-124.164063c-.292969 0-.527343-.226562-.558593-.511719 0 0 0-.003906 0-.007812l-.011719-.171875v-26.316406c0-.003907 0-.003907 0-.007813 0-.3125.253906-.566406.570312-.566406zm0 0"/><path d="m310.574219 92.925781c0-30.089843-24.480469-54.570312-54.574219-54.570312s-54.574219 24.480469-54.574219 54.570312c0 30.09375 24.480469 54.574219 54.574219 54.574219s54.574219-24.480469 54.574219-54.574219zm-94.148438 0c0-21.820312 17.753907-39.570312 39.574219-39.570312s39.574219 17.75 39.574219 39.570312c0 21.820313-17.753907 39.574219-39.574219 39.574219s-39.574219-17.753906-39.574219-39.574219zm0 0"/><path d="m176.34375 110.769531v-35.683593c0-9.371094-7.621094-16.992188-16.988281-16.992188h-106.441407c-9.367187 0-16.988281 7.621094-16.988281 16.992188v35.683593c0 9.371094 7.621094 16.992188 16.988281 16.992188h106.441407c9.367187 0 16.988281-7.621094 16.988281-16.992188zm-125.421875 0v-35.683593c0-1.097657.894531-1.992188 1.992187-1.992188h106.441407c1.097656 0 1.988281.894531 1.988281 1.992188v35.683593c0 1.097657-.890625 1.992188-1.988281 1.992188h-106.441407c-1.097656 0-1.992187-.894531-1.992187-1.992188zm0 0"/><path d="m397.648438 92.925781c0-19.207031-15.625-34.832031-34.832032-34.832031-19.207031 0-34.832031 15.625-34.832031 34.832031s15.625 34.835938 34.832031 34.835938c19.207032 0 34.832032-15.628907 34.832032-34.835938zm-54.667969 0c0-10.933593 8.898437-19.832031 19.835937-19.832031 10.933594 0 19.832032 8.898438 19.832032 19.832031 0 10.9375-8.898438 19.835938-19.832032 19.835938-10.9375 0-19.835937-8.898438-19.835937-19.835938zm0 0"/><path d="m476.078125 92.925781c0-19.207031-15.628906-34.832031-34.835937-34.832031-19.207032 0-34.832032 15.625-34.832032 34.832031s15.625 34.835938 34.832032 34.835938c19.207031 0 34.835937-15.628907 34.835937-34.835938zm-54.667969 0c0-10.933593 8.898438-19.832031 19.832032-19.832031 10.9375 0 19.832031 8.898438 19.832031 19.832031 0 10.9375-8.894531 19.835938-19.832031 19.835938-10.933594 0-19.832032-8.898438-19.832032-19.835938zm0 0"/></g><g transform="matrix(0.03906251862645149 0 0 0.03906251862645149 252.5 340)" id="L1_25"><path d="m454.367188 171.148438-29.507813-29.65625c-4.207031-4.226563-10.679687-5.402344-16.101563-2.917969l-53.472656 24.492187h-5.097656l77.941406-107.804687c2.253906-3.117188 3.140625-6.921875 2.507813-10.714844-.640625-3.789063-2.722657-7.097656-5.867188-9.304687l-11.390625-8.003907c-3.148437-2.210937-6.96875-3.050781-10.742187-2.359375-3.785157.6875-7.0625 2.8125-9.230469 5.992188l-72.347656 106.027344c-4.613282-2.324219-9.605469-3.742188-14.808594-4.183594l37.8125-109.425782c1.257812-3.636718 1.007812-7.535156-.695312-10.980468-1.707032-3.445313-4.65625-6.007813-8.308594-7.214844l-13.214844-4.367188c-3.652344-1.203124-7.550781-.90625-10.972656.847657-3.421875 1.753906-5.941406 4.738281-7.097656 8.402343l-36.222657 114.855469c-7.375-11.386719-20.226562-18.851562-34.453125-18.851562-7.769531 0-15.144531 2.21875-21.445312 6.097656 1.917968-10.667969 2.339844-20.40625 1.742187-26.542969-.59375-6.082031-2.136719-9.773437-5.011719-11.96875-2.183593-1.667968-4.871093-2.308594-7.554687-1.796875-6.28125 1.183594-10.257813 7.742188-18.179687 20.808594-5.011719 8.265625-11.25 18.554687-19.121094 28.992187-3.394532 4.507813-8.328125 8.253907-14.597656 12.046876-.625-1.585938-1.523438-2.917969-2.703126-4.011719-2.214843-2.0625-5.160156-2.964844-8.289062-2.558594-3.128906.414063-7.859375 1.035156-24.9375 25.839844-2.175781 3.15625-4.734375 6.238281-7.605469 9.160156-.332031.335937-.628906.679687-.945312 1.019531h-.703125l-53.472656-24.492187c-5.421876-2.484375-11.890626-1.3125-16.097657 2.917969l-29.511719 29.65625c-3.199218 3.214843-4.6914058 7.808593-3.996093 12.289062.695312 4.480469 3.515625 8.40625 7.539062 10.496094l45.367188 23.589844 47.644531 276.382812c1.808594 10.484375 10.84375 18.09375 21.480469 18.09375h213.632812c10.640625 0 19.671875-7.609375 21.476563-18.09375l47.648437-276.382812 45.367188-23.589844c4.023437-2.09375 6.839843-6.015625 7.539062-10.496094s-.796875-9.074219-3.996093-12.289062zm-93.042969 33.839843h-41.445313l14.546875-20.117187c.484375.097656.980469.152344 1.480469.152344.105469 0 .210938 0 .324219-.003907 12.195312.039063 22.421875 8.566407 25.09375 19.96875zm44.078125-164.878906 9.96875 7-102.535156 141.820313c-.078126-.25-.171876-.492188-.253907-.742188-.046875-.132812-.09375-.265625-.140625-.398438-.84375-2.429687-1.882812-4.722656-3.140625-6.839843zm-92.996094 109.46875-13.792969 20.210937c-1.371093-.898437-2.8125-1.714843-4.328125-2.429687l6.777344-19.617187c.550781-.035157 1.101562-.058594 1.652344-.058594 3.378906-.003906 6.644531.65625 9.691406 1.894531zm5.523438-134.222656 11.566406 3.820312-49.917969 144.453125c-2.675781-.191406-5.4375-.160156-8.253906.097656-.0625.003907-.128907.007813-.195313.011719zm-55.464844 165.601562c7.140625-2.425781 14.429687-2.988281 20.519531-1.585937.070313.015625.132813.023437.203125.035156 3.960938.933594 8.015625 2.84375 11.140625 6.492188.007813.011718.015625.023437.023437.035156 1.21875 1.425781 2.238282 3.058594 3.058594 4.886718.015625.03125.027344.058594.042969.089844.390625.882813.730469 1.808594 1.03125 2.777344.027344.09375.054687.191406.085937.289062.109376.378907.214844.765626.308594 1.152344.03125.125.066406.25.09375.378906.117188.484376.222656.980469.316406 1.484376v.015624c.003907.007813.003907.011719.003907.019532.222656 1.210937.472656 2.414062.730469 3.605468.082031.367188.164062.730469.25 1.097657.195312.863281.402343 1.71875.617187 2.566406.058594.230469.109375.464844.167969.691406h-59.65625c-.015625-.007812-.03125-.019531-.046875-.03125-.542969-.367187-1.097657-.726562-1.652344-1.085937-.132813-.085938-.257813-.171875-.390625-.257813-.695312-.445312-1.398438-.882812-2.105469-1.3125 4.855469-10.464843 14.703125-17.761719 25.019531-21.285156.082032-.023437.160157-.03125.238282-.058594zm-62.53125-35.070312c.039062-.0625.078125-.121094.113281-.183594 1.460937.15625 2.957031-.117187 4.285156-.808594 1.875-.976562 3.253907-2.6875 3.808594-4.726562 3.046875-11.230469 13.3125-19.070313 24.960937-19.070313 12.761719 0 23.765626 9.503906 25.59375 22.113282.214844 1.472656.863282 2.824218 1.828126 3.917968l-6.59375 20.898438c-12.445313 5.070312-23.867188 14.304687-30.105469 27.242187-19.152344-8.691406-39.859375-13.003906-53.640625-15.078125.042968-.042968.089844-.09375.128906-.136718.664062-.6875 1.347656-1.40625 2.058594-2.148438.121094-.128906.242187-.253906.367187-.382812.714844-.753907 1.453125-1.53125 2.210938-2.332032.121093-.128906.242187-.257812.367187-.386718.777344-.820313 1.570313-1.667969 2.386719-2.535157.113281-.121093.226563-.246093.34375-.367187.832031-.890625 1.683594-1.800782 2.550781-2.738282.105469-.113281.210938-.230468.316406-.34375.890626-.957031 1.792969-1.9375 2.714844-2.941406.089844-.09375.175782-.191406.261719-.285156.953125-1.035156 1.917969-2.09375 2.898437-3.175781.050782-.054688.105469-.113281.15625-.171875 1.019532-1.125 2.050782-2.265625 3.097657-3.433594.003906-.003906.011719-.011719.015625-.015625 1.078125-1.207031 2.171875-2.429687 3.277344-3.675781.019531-.023438.035156-.046875.054687-.066406.558594-.632813 1.101563-1.285157 1.632813-1.949219.140624-.175781.277343-.363281.414062-.542969.421875-.539062.835938-1.085938 1.238281-1.644531.136719-.191407.269531-.390625.40625-.585938.414063-.585937.820313-1.183593 1.214844-1.792969.109375-.171874.222656-.339843.328125-.511718.449219-.703125.886719-1.417969 1.308594-2.140625zm-86.1875 29.554687c.027344-.035156.054687-.070312.082031-.105468.707031-.933594 1.492187-1.820313 2.34375-2.691407 3.488281-3.542969 6.609375-7.308593 9.277344-11.183593 4.875-7.082032 8.410156-11.679688 10.894531-14.648438.804688 1.320312 1.914062 2.460938 3.265625 3.316406 3.136719 1.980469 7.105469 2.101563 10.355469.3125 10.996094-6.039062 19.5625-11.714844 25.636718-19.769531 8.328126-11.050781 14.789063-21.699219 19.976563-30.257813.921875-1.523437 1.878906-3.097656 2.816406-4.625-.652343 10.527344-3.328125 25.730469-9.105469 37.921876-2.179687 4.566406-4.621093 8.398437-7.265624 11.386718-18.101563 20.433594-33.222657 35.292969-33.375 35.441406-.242188.238282-.457032.488282-.660157.746094-.046875.0625-.09375.125-.140625.191406-.179687.246094-.347656.5-.496094.761719-.007812.019531-.023437.039063-.035156.058594-.160156.292969-.296875.59375-.417968.902344-.019532.054687-.039063.109375-.058594.164062-.101563.277344-.183594.558594-.253906.847657-.007813.039062-.019532.074218-.027344.113281-.070313.320312-.117188.636719-.144532.960937-.003906.0625-.003906.125-.007812.1875-.019531.28125-.019531.570313-.007812.855469.003906.046875.003906.097656.007812.148437.023438.328126.070312.65625.136719.980469.007812.046875.019531.09375.03125.140625.070312.3125.160156.621094.269531.925782.007812.015624.007812.03125.015625.050781.003906.003906.007813.011719.007813.019531.121093.320312.265624.632812.433593.9375.019531.042969.046875.082031.070313.125.144531.253906.304687.503906.480468.746094.035157.042968.0625.089844.097657.132812.183593.238282.378906.46875.59375.691406.019531.019532.039062.03125.058593.050782.03125.035156.066407.0625.101563.09375.207031.203125.425781.386718.652344.5625.054687.042968.109375.082031.164062.125.546875.390625 1.128907.707031 1.742188.9375.054687.019531.109375.039062.164062.058594.285157.101562.574219.183593.867188.25.039062.007812.074219.019531.109375.027343.324218.066407.648437.109375.976562.132813.03125 0 .058594.011718.089844.011718.371094.023438 27.613281 1.855469 54.144531 11.511719h-95.796875c-.191406-.792969-.371094-1.589843-.539062-2.390625-3.058594-14.605468-1.601563-21.714844 2.46875-27.15625zm-17.398438 29.546875h-17.78125l15.976563-16.058593c-.023438 4.78125.589843 10.09375 1.804687 16.058593zm-51.457031-52.835937c0 .003906-.003906.003906-.003906.003906zm-28.734375 28.878906 28.335938-28.476562 44.601562 20.425781-30.152344 30.300781zm355.917969 141.179688h-46.296875c-4.175782 0-7.558594 3.382812-7.558594 7.558593 0 4.171875 3.382812 7.554688 7.558594 7.554688h43.691406l-7.121094 41.3125h-35.625c-4.171875 0-7.558594 3.382812-7.558594 7.558593 0 4.171876 3.386719 7.554688 7.558594 7.554688h33.015625l-16.820312 97.589844c-.554688 3.214844-3.324219 5.546875-6.585938 5.546875h-213.628906c-3.261719 0-6.03125-2.332031-6.585937-5.546875l-16.824219-97.589844h32.316406c4.175781 0 7.558594-3.382812 7.558594-7.554688 0-4.175781-3.382813-7.558593-7.558594-7.558593h-34.921875l-7.121094-41.3125h43.6875c4.175782 0 7.558594-3.382813 7.558594-7.554688 0-4.175781-3.382812-7.558593-7.558594-7.558593h-46.292968l-17.601563-102.105469h320.316406zm3.636719-122 4.753906 4.777343h-3.769532c-.234374-1.625-.5625-3.21875-.984374-4.777343zm24.382812 3.066406-30.152344-30.296875 44.597656-20.425781 28.339844 28.476562zm0 0"/><path d="m229.515625 288.097656c-39.457031 0-71.558594 32.101563-71.558594 71.5625 0 39.457032 32.101563 71.5625 71.558594 71.5625 39.460937 0 71.5625-32.105468 71.5625-71.5625 0-39.457031-32.101563-71.5625-71.5625-71.5625zm0 128.007813c-31.121094 0-56.445313-25.320313-56.445313-56.445313s25.324219-56.445312 56.445313-56.445312c31.125 0 56.445313 25.320312 56.445313 56.445312s-25.320313 56.445313-56.445313 56.445313zm0 0"/></g><g transform="matrix(0.078125 0 0 0.078125 67.5 67.5)" id="L1_26"><path d="m233.667969 339.535156h-18.761719c-4.140625 0-7.5 3.359375-7.5 7.5s3.359375 7.5 7.5 7.5h18.761719c4.140625 0 7.5-3.359375 7.5-7.5s-3.359375-7.5-7.5-7.5zm0 0"/><path d="m181.453125 239.511719h-17.882813c-23.542968 0-45.691406 9.152343-62.371093 25.765625-7.558594 7.53125-16.078125 13.992187-25.324219 19.207031-5.148438 2.90625-7.765625 8.9375-6.367188 14.667969 3.375 13.8125 15.664063 23.460937 29.882813 23.460937h82.0625c5.8125 0 10.539063-4.726562 10.539063-10.539062v-62.023438c0-5.8125-4.726563-10.539062-10.539063-10.539062zm-4.460937 68.101562h-77.601563c-6.839844 0-12.808594-4.355469-14.945313-10.75 9.960938-5.753906 19.152344-12.800781 27.339844-20.957031 13.847656-13.796875 32.238282-21.394531 51.785156-21.394531h13.421876zm0 0"/><path d="m358.945312 292.859375c-3.144531-1.730469-6.25-3.625-9.230468-5.640625l-48.203125-32.5625c-14.664063-9.90625-31.769531-15.144531-49.46875-15.144531h-36.878907c-5.328124 0-9.664062 4.335937-9.664062 9.664062v63.773438c0 5.328125 4.335938 9.664062 9.664062 9.664062h143.824219c6.074219 0 11.042969-4.917969 11.078125-10.964843.039063-7.796876-4.222656-14.996094-11.121094-18.789063zm-138.445312 14.753906v-53.101562h31.542969c14.691406 0 28.894531 4.347656 41.070312 12.574219l48.203125 32.5625c3.359375 2.269531 6.859375 4.40625 10.398438 6.355468.761718.417969 1.414062.96875 1.9375 1.609375zm0 0"/><path d="m91.050781 374.988281c-6.546875 0-12.703125 2.550781-17.335937 7.183594-4.625 4.625-7.171875 10.78125-7.171875 17.335937 0 6.550782 2.546875 12.710938 7.171875 17.335938 4.628906 4.628906 10.789062 7.179688 17.335937 7.179688 6.550781 0 12.707031-2.550782 17.335938-7.179688 4.628906-4.628906 7.179687-10.785156 7.179687-17.335938 0-6.546874-2.546875-12.707031-7.179687-17.335937-4.628907-4.632813-10.785157-7.183594-17.335938-7.183594zm6.726563 31.25c-1.792969 1.796875-4.183594 2.785157-6.726563 2.785157s-4.933593-.988282-6.730469-2.789063c-1.789062-1.789063-2.777343-4.179687-2.777343-6.726563 0-2.546874.988281-4.9375 2.777343-6.730468 1.800782-1.796875 4.191407-2.789063 6.730469-2.789063 2.542969 0 4.933594.992188 6.730469 2.789063s2.785156 4.1875 2.785156 6.730468c0 2.542969-.988281 4.929688-2.789062 6.730469zm0 0"/><path d="m420.050781 374.988281c-6.546875 0-12.703125 2.550781-17.335937 7.183594-4.625 4.625-7.171875 10.78125-7.171875 17.335937 0 6.550782 2.546875 12.710938 7.171875 17.335938 4.628906 4.628906 10.789062 7.179688 17.335937 7.179688 6.550781 0 12.707031-2.550782 17.335938-7.179688 4.632812-4.628906 7.183593-10.785156 7.183593-17.335938 0-6.546874-2.550781-12.707031-7.183593-17.335937-4.628907-4.632813-10.785157-7.183594-17.335938-7.183594zm6.730469 31.25c-1.796875 1.796875-4.1875 2.785157-6.730469 2.785157s-4.933593-.988282-6.730469-2.789063c-1.792968-1.789063-2.777343-4.179687-2.777343-6.726563 0-2.546874.984375-4.9375 2.777343-6.730468 1.796876-1.796875 4.1875-2.789063 6.730469-2.789063s4.933594.992188 6.730469 2.789063 2.785156 4.1875 2.785156 6.730468c0 2.542969-.988281 4.929688-2.785156 6.730469zm0 0"/><path d="m505.683594 327.253906-2.300782-3.824218c-.003906-.003907-.003906-.003907-.007812-.007813-8.707031-14.445313-23.183594-24.613281-39.726562-27.902344l-66.511719-13.226562c-13.308594-2.644531-26.300781-10.6875-34.914063-16.507813l-48.199218-32.5625c-.523438-.351562-1.054688-.683594-1.578126-1.023437h107.039063c10.6875 0 19.382813-8.695313 19.382813-19.382813v-54.871094c10.730468-5.308593 18.128906-16.371093 18.128906-29.132812v-13.117188c0-.015624 0-.035156 0-.050781 0-.074219-.011719-.148437-.011719-.222656-.007813-.214844-.019531-.425781-.046875-.632813-.007812-.085937-.027344-.171874-.039062-.257812-.03125-.203125-.070313-.40625-.121094-.605469-.015625-.078125-.035156-.15625-.058594-.234375-.0625-.226562-.136719-.449218-.21875-.664062-.011719-.035156-.019531-.074219-.035156-.109375l-.046875-.121094c-.003907-.007813-.007813-.019531-.011719-.027344l-13.757812-34.511719c-2.109376-5.296874-7.15625-8.71875-12.855469-8.71875h-210.511719c-5.699219 0-10.746094 3.421876-12.855469 8.71875l-13.757812 34.511719c-.003907.007813-.007813.015625-.011719.027344l-.050781.125c-.011719.035156-.019531.070313-.035157.109375-.082031.214844-.15625.4375-.21875.664062-.019531.074219-.039062.152344-.058593.230469-.046875.199219-.089844.402344-.121094.605469-.011719.085938-.027344.171875-.039063.257812-.023437.207032-.039062.421876-.042968.632813-.003906.074219-.011719.148437-.011719.222656 0 .015625-.003906.035157-.003906.050781v13.117188c0 14.226562 9.195312 26.339844 21.949219 30.726562v53.277344c0 .480469.042968.957032.078124 1.433594h-50.535156c-29.496094 0-57.246094 11.464844-78.140625 32.285156-13.167969 13.117188-29.742187 22.0625-47.9375 25.875l-10.460937 2.191406c-15.652344 3.277344-27.011719 17.265626-27.011719 33.257813v19.066406c-.0039062.097657-.015625.191407-.015625.289063v30.003906c0 .097656.0117188.195312.015625.292969v12.925781c0 8.503906 5.019531 16.226562 12.792969 19.679688l31.613281 14.054687c1.03125 10.40625 5.519531 20.53125 13.476563 28.488281 9.140624 9.140625 21.148437 13.710938 33.15625 13.710938 12.003906 0 24.011718-4.570313 33.152343-13.710938 7.230469-7.230468 11.589844-16.253906 13.097657-25.652344h236.464843c1.546875 9.671876 6.070313 18.589844 13.128907 25.652344 8.855468 8.855469 20.628906 13.734375 33.15625 13.734375 12.519531 0 24.296874-4.878906 33.148437-13.734375 7.0625-7.0625 11.585937-15.980468 13.132813-25.652344h18.429687c15.015625 0 27.234375-12.21875 27.234375-27.238281v-29.796875c0-8.003906-2.183594-15.863281-6.316406-22.71875zm-81.816406-114.4375c0 2.417969-1.96875 4.382813-4.382813 4.382813h-142.042969c-8.265625-1.945313-16.773437-2.949219-25.398437-2.949219h-22.769531c-.148438-.417969-.25-.890625-.25-1.433594v-51.828125c8.21875-1.132812 15.46875-5.34375 20.535156-11.4375 5.964844 7.175781 14.953125 11.753907 24.992187 11.753907 10.039063 0 19.027344-4.578126 24.992188-11.753907 5.964843 7.175781 14.953125 11.753907 24.992187 11.753907 10.039063 0 19.027344-4.578126 24.992188-11.753907 5.964844 7.175781 14.953125 11.753907 24.992187 11.753907 10.039063 0 19.027344-4.578126 24.992188-11.753907 5.835937 7.019531 14.574219 11.546875 24.351562 11.734375v51.53125zm-166.808594-84.003906v-5.617188h34.984375v5.617188c0 9.644531-7.847657 17.492188-17.492188 17.492188s-17.492187-7.847657-17.492187-17.492188zm49.984375 0v-5.617188h34.984375v5.617188c0 9.644531-7.847656 17.492188-17.492188 17.492188-9.644531 0-17.492187-7.847657-17.492187-17.492188zm49.984375 0v-5.617188h34.984375v5.617188c0 9.644531-7.847657 17.492188-17.492188 17.492188s-17.492187-7.847657-17.492187-17.492188zm84.96875-5.617188v5.617188c0 8.40625-5.964844 15.445312-13.886719 17.113281-.125.027344-.253906.042969-.382813.066407-.390624.074218-.78125.136718-1.179687.183593-.160156.015625-.320313.035157-.480469.046875-.511718.046875-1.03125.082032-1.558594.082032-9.648437 0-17.492187-7.847657-17.492187-17.492188v-5.617188zm-221.929688-38.65625h208.9375l9.429688 23.65625h-227.796875zm-12.992187 44.273438v-5.617188h34.984375v5.617188c0 9.644531-7.84375 17.492188-17.492188 17.492188-.5 0-.992187-.035157-1.484375-.078126-.171875-.011718-.339843-.027343-.519531-.046874-8.703125-1-15.488281-8.402344-15.488281-17.367188zm-192.058594 205.902344h9.90625v15.003906h-9.90625zm98.582031 87.339844c-12.433594 12.433593-32.660156 12.433593-45.09375 0-12.433594-12.433594-12.433594-32.664063 0-45.09375 6.214844-6.21875 14.382813-9.324219 22.546875-9.324219 8.167969 0 16.332031 3.105469 22.546875 9.324219 12.433594 12.433593 12.433594 32.660156 0 45.09375zm329 0c-6.019531 6.019531-14.027344 9.339843-22.546875 9.339843-8.515625 0-16.523437-3.320312-22.546875-9.339843-6.023437-6.023438-9.339844-14.03125-9.339844-22.546876 0-8.519531 3.316407-16.527343 9.339844-22.546874 6.023438-6.023438 14.03125-9.339844 22.546875-9.339844 8.519531 0 16.523438 3.316406 22.546875 9.339844 6.023438 6.019531 9.339844 14.027343 9.339844 22.546874 0 8.515626-3.316406 16.523438-9.339844 22.546876zm54.402344-42.285157c0 6.75-5.488281 12.238281-12.234375 12.238281h-18.429687c-1.546876-9.671874-6.070313-18.59375-13.128907-25.65625-8.855469-8.855468-20.632812-13.730468-33.152343-13.730468-12.527344 0-24.300782 4.875-33.15625 13.730468-7.058594 7.0625-11.582032 15.984376-13.128907 25.65625h-236.464843c-1.511719-9.398437-5.871094-18.425781-13.101563-25.65625-18.277344-18.28125-48.023437-18.277343-66.304687 0-6.261719 6.265626-10.378907 13.875-12.351563 21.90625l-26.648437-11.847656c-2.359376-1.046875-3.882813-3.390625-3.882813-5.972656v-5.71875h13.15625c6.476563 0 11.75-5.269531 11.75-11.75v-21.503906c0-6.480469-5.273437-11.75-11.75-11.75h-13.15625v-11.855469c0-8.933594 6.34375-16.746094 15.089844-18.578125l10.460937-2.191406c21.042969-4.40625 40.214844-14.757813 55.445313-29.929688 18.0625-18 42.054687-27.910156 67.554687-27.910156h88.476563c7.527343 0 14.949219.886719 22.160156 2.597656.285156.09375.582031.164063.882813.21875 10.824218 2.679688 21.148437 7.242188 30.539062 13.585938l48.199219 32.5625c10.511719 7.101562 24.597656 15.652344 40.386719 18.792968l66.511718 13.226563c7.359375 1.460937 14.164063 4.75 19.851563 9.4375-10.425781 1.816406-18.382813 10.925781-18.382813 21.867187v11.496094c0 6.652344 5.414063 12.066406 12.070313 12.066406h22.738281zm0-29.667969h-19.804688v-8.5625c0-3.972656 3.230469-7.207031 7.203126-7.207031h8.039062l.398438.664063c2.726562 4.519531 4.164062 9.699218 4.164062 14.976562zm0 0"/><path d="m159.585938 49.929688h8.839843v136.921874c0 4.144532 3.359375 7.5 7.5 7.5s7.5-3.355468 7.5-7.5v-136.921874h286.039063v223.398437c0 4.140625 3.355468 7.5 7.5 7.5 4.140625 0 7.5-3.359375 7.5-7.5v-223.398437h8.839844c6.085937 0 11.039062-4.953126 11.039062-11.039063v-27.851563c0-6.085937-4.953125-11.039062-11.039062-11.039062h-333.71875c-6.085938 0-11.039063 4.953125-11.039063 11.039062v27.851563c0 6.085937 4.953125 11.039063 11.039063 11.039063zm3.960937-34.929688h325.796875v19.929688h-325.796875zm0 0"/></g><g transform="matrix(0.13671875 0 0 0.13671875 315 140)" id="L1_27"><path d="m503.945312 213.863281c4.515626-.132812 8.054688-3.769531 8.054688-8.28125v-29.96875c0-.019531-.003906-.042969-.003906-.066406 0-.160156-.011719-.320313-.023438-.480469-.007812-.09375-.007812-.1875-.019531-.28125-.015625-.128906-.039063-.253906-.058594-.378906s-.039062-.246094-.0625-.367188c-.019531-.085937-.046875-.167968-.066406-.253906-.039063-.15625-.078125-.308594-.125-.460937-.015625-.054688-.039063-.105469-.054687-.15625-.0625-.175781-.125-.351563-.199219-.523438-.023438-.046875-.046875-.097656-.070313-.144531-.078125-.167969-.15625-.335938-.242187-.492188-.050781-.089843-.105469-.175781-.160157-.265624-.070312-.113282-.136718-.230469-.210937-.339844-.089844-.132813-.1875-.253906-.285156-.378906-.046875-.0625-.09375-.128907-.144531-.191407-.109376-.132812-.226563-.257812-.347657-.382812-.046875-.050781-.089843-.101563-.140625-.152344-.105468-.105469-.222656-.203125-.335937-.304687-.070313-.0625-.136719-.128907-.210938-.1875-.09375-.078126-.191406-.144532-.289062-.21875-.105469-.078126-.210938-.15625-.320313-.230469-.078125-.050781-.160156-.097657-.242187-.144531-.136719-.085938-.273438-.167969-.414063-.242188-.019531-.007812-.039062-.023438-.058594-.035156l-267.539062-136.816406c-3.6875-1.882813-8.207031-.425782-10.089844 3.261718-1.886718 3.6875-.425781 8.207032 3.261719 10.09375l239.816406 122.644532h-66.714843c-4.144532 0-7.5 3.355468-7.5 7.496093 0 4.144531 3.355468 7.5 7.5 7.5h90.351562v16.5625c-15.28125 3.382813-26.480469 16.882813-26.480469 33.164063 0 16.277344 11.203125 29.777344 26.480469 33.160156v88.074219c0 5.832031-4.746094 10.578125-10.578125 10.578125h-220.496094c3.667969-5.421875 5.808594-11.957032 5.808594-18.980469 0-18.738281-15.242187-33.980469-33.980469-33.980469-18.734375 0-33.980468 15.242188-33.980468 33.980469 0 7.023437 2.144531 13.558594 5.808593 18.980469h-184.003906c-5.832031 0-10.578125-4.746094-10.578125-10.578125v-8.007813c21.589844-1.417968 38.722656-19.4375 38.722656-41.378906 0-21.945312-17.132812-39.960938-38.722656-41.378906v-80.195313h253.671875c4.140625 0 7.5-3.355469 7.5-7.5 0-4.140625-3.359375-7.496093-7.5-7.496093h-253.496094c1.804688-39.394532 17.804688-76.34375 45.515625-104.726563 29.414063-30.132813 68.761719-47.316406 110.789063-48.386719 1.546875-.042968 3.074219.300782 4.417969.988282l26.292968 13.445312c3.6875 1.882812 8.203125.425781 10.089844-3.265625 1.886719-3.6875.425781-8.203125-3.261719-10.089844l-26.292969-13.445312c-3.5625-1.820313-7.585937-2.714844-11.625-2.63281275-45.960937 1.17578175-88.984374 19.96484375-121.144531 52.90624975-32.214843 33-49.957031 76.578125-49.957031 122.703125v90.511719c0 6.667969 5.425781 12.09375 12.089844 12.09375h.164062c14.597656 0 26.46875 11.875 26.46875 26.46875 0 14.597656-11.871094 26.472656-26.515625 26.472656-6.730469-.003906-12.207031 5.472656-12.207031 12.203125v10.710938c0 14.101562 11.472656 25.578125 25.578125 25.578125h460.84375c14.105469 0 25.578125-11.476563 25.578125-25.578125v-93.980469c0-4.511719-3.539062-8.148438-8.0625-8.285156-10.328125-.296875-18.417969-8.628906-18.417969-18.96875 0-10.34375 8.089844-18.675782 18.425781-18.976563zm-266.191406 150.789063c-10.464844 0-18.980468-8.515625-18.980468-18.980469s8.515624-18.980469 18.980468-18.980469c10.46875 0 18.980469 8.515625 18.980469 18.980469s-8.511719 18.980469-18.980469 18.980469zm0 0"/><path d="m337.496094 145.355469c-23.253906 0-41.46875 13.292969-41.46875 30.257812 0 16.96875 18.214844 30.261719 41.46875 30.261719s41.46875-13.292969 41.46875-30.261719c0-16.964843-18.214844-30.257812-41.46875-30.257812zm0 45.519531c-12.519532 0-26.46875-6.269531-26.46875-15.261719 0-8.992187 13.949218-15.257812 26.46875-15.257812 12.519531 0 26.46875 6.265625 26.46875 15.257812 0 8.992188-13.949219 15.261719-26.46875 15.261719zm0 0"/><path d="m78.132812 239.8125c0 27.046875 22.003907 49.050781 49.050782 49.050781 27.050781 0 49.054687-22.003906 49.054687-49.050781s-22.003906-49.050781-49.054687-49.050781c-27.046875 0-49.050782 22.003906-49.050782 49.050781zm83.105469 0c0 18.777344-15.277343 34.054688-34.054687 34.054688s-34.050782-15.277344-34.050782-34.054688 15.273438-34.050781 34.050782-34.050781 34.054687 15.273437 34.054687 34.050781zm0 0"/><path d="m146.820312 27.074219c-18.429687 0-33.421874 12.949219-33.421874 28.867187 0 15.917969 14.992187 28.867188 33.421874 28.867188 18.425782 0 33.421876-12.949219 33.421876-28.867188 0-15.917968-14.996094-28.867187-33.421876-28.867187zm0 42.734375c-9.988281 0-18.425781-6.351563-18.425781-13.867188 0-7.519531 8.4375-13.867187 18.425781-13.867187 9.984376 0 18.421876 6.351562 18.421876 13.867187s-8.4375 13.867188-18.421876 13.867188zm0 0"/><path d="m352.585938 304.6875c0 26.398438 21.476562 47.875 47.875 47.875 26.398437 0 47.875-21.476562 47.875-47.875s-21.476563-47.875-47.875-47.875c-26.398438 0-47.875 21.476562-47.875 47.875zm47.875-32.878906c18.128906 0 32.875 14.75 32.875 32.878906s-14.746094 32.875-32.875 32.875c-18.128907 0-32.875-14.746094-32.875-32.875s14.746093-32.878906 32.875-32.878906zm0 0"/></g></defs><g fi:class="KUsePattern"><pattern id="pattern_L1_18" width="350" height="350" patternUnits="userSpaceOnUse"><use xlink:href="#L1_18" x="-350" y="-350"/><use xlink:href="#L1_18" x="0" y="-350"/><use xlink:href="#L1_18" x="350" y="-350"/><use xlink:href="#L1_18" x="-350" y="0"/><use xlink:href="#L1_18" x="0" y="0"/><use xlink:href="#L1_18" x="350" y="0"/><use xlink:href="#L1_18" x="-350" y="350"/><use xlink:href="#L1_18" x="0" y="350"/><use xlink:href="#L1_18" x="350" y="350"/></pattern><rect x="0" y="0" width="100%" height="100%" fill="url(#pattern_L1_18)"/></g><g fi:class="KUsePattern"><pattern id="pattern_L1_19" width="350" height="350" patternUnits="userSpaceOnUse"><use xlink:href="#L1_19" x="-350" y="-350"/><use xlink:href="#L1_19" x="0" y="-350"/><use xlink:href="#L1_19" x="350" y="-350"/><use xlink:href="#L1_19" x="-350" y="0"/><use xlink:href="#L1_19" x="0" y="0"/><use xlink:href="#L1_19" x="350" y="0"/><use xlink:href="#L1_19" x="-350" y="350"/><use xlink:href="#L1_19" x="0" y="350"/><use xlink:href="#L1_19" x="350" y="350"/></pattern><rect x="0" y="0" width="100%" height="100%" fill="url(#pattern_L1_19)"/></g><g fi:class="KUsePattern"><pattern id="pattern_L1_20" width="350" height="350" patternUnits="userSpaceOnUse"><use xlink:href="#L1_20" x="-350" y="-350"/><use xlink:href="#L1_20" x="0" y="-350"/><use xlink:href="#L1_20" x="350" y="-350"/><use xlink:href="#L1_20" x="-350" y="0"/><use xlink:href="#L1_20" x="0" y="0"/><use xlink:href="#L1_20" x="350" y="0"/><use xlink:href="#L1_20" x="-350" y="350"/><use xlink:href="#L1_20" x="0" y="350"/><use xlink:href="#L1_20" x="350" y="350"/></pattern><rect x="0" y="0" width="100%" height="100%" fill="url(#pattern_L1_20)"/></g><g fi:class="KUsePattern"><pattern id="pattern_L1_21" width="350" height="350" patternUnits="userSpaceOnUse"><use xlink:href="#L1_21" x="-350" y="-350"/><use xlink:href="#L1_21" x="0" y="-350"/><use xlink:href="#L1_21" x="350" y="-350"/><use xlink:href="#L1_21" x="-350" y="0"/><use xlink:href="#L1_21" x="0" y="0"/><use xlink:href="#L1_21" x="350" y="0"/><use xlink:href="#L1_21" x="-350" y="350"/><use xlink:href="#L1_21" x="0" y="350"/><use xlink:href="#L1_21" x="350" y="350"/></pattern><rect x="0" y="0" width="100%" height="100%" fill="url(#pattern_L1_21)"/></g><g fi:class="KUsePattern"><pattern id="pattern_L1_22" width="350" height="350" patternUnits="userSpaceOnUse"><use xlink:href="#L1_22" x="-350" y="-350"/><use xlink:href="#L1_22" x="0" y="-350"/><use xlink:href="#L1_22" x="350" y="-350"/><use xlink:href="#L1_22" x="-350" y="0"/><use xlink:href="#L1_22" x="0" y="0"/><use xlink:href="#L1_22" x="350" y="0"/><use xlink:href="#L1_22" x="-350" y="350"/><use xlink:href="#L1_22" x="0" y="350"/><use xlink:href="#L1_22" x="350" y="350"/></pattern><rect x="0" y="0" width="100%" height="100%" fill="url(#pattern_L1_22)"/></g><g fi:class="KUsePattern"><pattern id="pattern_L1_23" width="350" height="350" patternUnits="userSpaceOnUse"><use xlink:href="#L1_23" x="-350" y="-350"/><use xlink:href="#L1_23" x="0" y="-350"/><use xlink:href="#L1_23" x="350" y="-350"/><use xlink:href="#L1_23" x="-350" y="0"/><use xlink:href="#L1_23" x="0" y="0"/><use xlink:href="#L1_23" x="350" y="0"/><use xlink:href="#L1_23" x="-350" y="350"/><use xlink:href="#L1_23" x="0" y="350"/><use xlink:href="#L1_23" x="350" y="350"/></pattern><rect x="0" y="0" width="100%" height="100%" fill="url(#pattern_L1_23)"/></g><g fi:class="KUsePattern"><pattern id="pattern_L1_24" width="350" height="350" patternUnits="userSpaceOnUse"><use xlink:href="#L1_24" x="-350" y="-350"/><use xlink:href="#L1_24" x="0" y="-350"/><use xlink:href="#L1_24" x="350" y="-350"/><use xlink:href="#L1_24" x="-350" y="0"/><use xlink:href="#L1_24" x="0" y="0"/><use xlink:href="#L1_24" x="350" y="0"/><use xlink:href="#L1_24" x="-350" y="350"/><use xlink:href="#L1_24" x="0" y="350"/><use xlink:href="#L1_24" x="350" y="350"/></pattern><rect x="0" y="0" width="100%" height="100%" fill="url(#pattern_L1_24)"/></g><g fi:class="KUsePattern"><pattern id="pattern_L1_25" width="350" height="350" patternUnits="userSpaceOnUse"><use xlink:href="#L1_25" x="-350" y="-350"/><use xlink:href="#L1_25" x="0" y="-350"/><use xlink:href="#L1_25" x="350" y="-350"/><use xlink:href="#L1_25" x="-350" y="0"/><use xlink:href="#L1_25" x="0" y="0"/><use xlink:href="#L1_25" x="350" y="0"/><use xlink:href="#L1_25" x="-350" y="350"/><use xlink:href="#L1_25" x="0" y="350"/><use xlink:href="#L1_25" x="350" y="350"/></pattern><rect x="0" y="0" width="100%" height="100%" fill="url(#pattern_L1_25)"/></g><g fi:class="KUsePattern"><pattern id="pattern_L1_26" width="350" height="350" patternUnits="userSpaceOnUse"><use xlink:href="#L1_26" x="-350" y="-350"/><use xlink:href="#L1_26" x="0" y="-350"/><use xlink:href="#L1_26" x="350" y="-350"/><use xlink:href="#L1_26" x="-350" y="0"/><use xlink:href="#L1_26" x="0" y="0"/><use xlink:href="#L1_26" x="350" y="0"/><use xlink:href="#L1_26" x="-350" y="350"/><use xlink:href="#L1_26" x="0" y="350"/><use xlink:href="#L1_26" x="350" y="350"/></pattern><rect x="0" y="0" width="100%" height="100%" fill="url(#pattern_L1_26)"/></g><g fi:class="KUsePattern"><pattern id="pattern_L1_27" width="350" height="350" patternUnits="userSpaceOnUse"><use xlink:href="#L1_27" x="-350" y="-350"/><use xlink:href="#L1_27" x="0" y="-350"/><use xlink:href="#L1_27" x="350" y="-350"/><use xlink:href="#L1_27" x="-350" y="0"/><use xlink:href="#L1_27" x="0" y="0"/><use xlink:href="#L1_27" x="350" y="0"/><use xlink:href="#L1_27" x="-350" y="350"/><use xlink:href="#L1_27" x="0" y="350"/><use xlink:href="#L1_27" x="350" y="350"/></pattern><rect x="0" y="0" width="100%" height="100%" fill="url(#pattern_L1_27)"/></g></svg>