<svg xmlns="http://www.w3.org/2000/svg" xmlns:xlink="http://www.w3.org/1999/xlink" xmlns:fi="http://pattern.flaticon.com/" x="0" y="0" width="400" height="400" viewBox="0 0 933.3333333333334 933.3333333333334"><rect x="0px" y="0px" width="100%" height="100%" opacity="1" fill="#ffffff"/><defs><path d="m449.765625 482.792969-17.097656-100.089844c-4.574219-26.769531-24.429688-48.777344-50.589844-56.066406l-87.53125-24.394531c-3.6875-1.027344-7.625-.746094-11.109375.710937-.992188-1.164063-1.859375-2.507813-2.554688-3.941406h9.34375c14.789063 0 28.984376-6.273438 38.945313-17.210938 9.957031-10.933593 14.878906-25.652343 13.496094-40.378906l-4.085938-43.585937c4.410157-3.933594 7.203125-9.636719 7.203125-15.992188v-10.808594c0-6.320312-2.765625-12.195312-7.425781-16.21875v-88.570312c0-24.636719-16.769531-45.6875-40.785156-51.195313l-57.363281-13.15625c-11.222657-2.574219-23.074219-2.523437-34.273438.140625l-53.808594 12.8125c-23.765625 5.65625-40.363281 26.667969-40.363281 51.097656v88.894532c-4.539063 3.9375-7.429687 9.730468-7.429687 16.195312v10.808594c0 6.355469 2.796874 12.058594 7.207031 15.992188l-4.085938 43.585937c-1.382812 14.726563 3.539063 29.445313 13.496094 40.378906 9.957031 10.9375 24.152344 17.210938 38.945313 17.210938h9.339843c-.695312 1.433593-1.558593 2.777343-2.550781 3.941406-3.488281-1.457031-7.421875-1.738281-11.109375-.710937l-87.53125 24.394531c-26.160156 7.289062-46.019531 29.296875-50.589844 56.066406l-.960937 5.609375c-.691406 4.070312 2.042968 7.933594 6.113281 8.628906.425781.074219.847656.109375 1.265625.109375 3.578125 0 6.738281-2.578125 7.363281-6.222656l.957031-5.605469c3.601563-21.09375 19.25-38.4375 39.867188-44.183594l11.308594-3.152343v95.3125l-2.21875 1.789062c-.867188.703125-1.566406 1.589844-2.046875 2.59375l-5.328125 11.15625c-.480469 1.007813-.730469 2.109375-.730469 3.222657v45.085937h-48.046875c-2.96875 0-5.765625-1.300781-7.679688-3.566406-1.910156-2.265625-2.722656-5.246094-2.222656-8.167969l10.273438-60.152344c.695312-4.070312-2.039063-7.933594-6.109375-8.628906-4.066407-.691406-7.933594 2.039062-8.628907 6.109375l-10.273437 60.152344c-1.242187 7.277343.773437 14.6875 5.535156 20.328125 4.757813 5.644531 11.722657 8.878906 19.105469 8.878906h400.125c7.382812 0 14.34375-3.234375 19.105469-8.878906 4.757812-5.640625 6.777343-13.050782 5.535156-20.328125zm-114.367187-153.644531 11.152343 3.109374 5.238281 1.457032v87.394531l-15.222656-12.292969c-.378906-.304687-.769531-.597656-1.167968-.878906zm-17.28125-57.414063c-7.238282 7.945313-17.140626 12.324219-27.890626 12.324219h-11.195312v-13.40625c6.886719-5.589844 12.5625-11.726563 17.09375-17.492188 13.707031-17.433594 21.101562-36.640625 23.0625-49.867187h4.890625l3.703125 39.527343c1.003906 10.699219-2.429688 20.96875-9.664062 28.914063zm-45.964844 73.570313c2.003906 4.222656 4.339844 12.125 3 15.6875-.21875.582031-.460938.835937-1.035156 1.085937-2.203126.953125-10.71875.460937-27.789063-7.304687v-25.367188c17.007813-7.738281 25.515625-8.253906 27.761719-7.316406.113281.0625.230468.117187.347656.175781.347656.207031.542969.460937.714844.921875 1.339844 3.558594-.996094 11.464844-2.992188 15.671875-.972656 2.03125-.972656 4.410156-.007812 6.445313zm-53.992188-30.773438c-2.53125 0-4.910156.664062-6.976562 1.820312-11.78125-5.464843-21.546875-8.566406-29.238282-9.304687 2.527344-4.625 4-9.886719 4.085938-15.144531 0-.015625.003906-.035156.003906-.050782.007813-.136718.011719-.292968.011719-.414062v-10.847656c10.890625 5.757812 23.847656 9.617187 39.015625 9.617187s28.125-3.859375 39.015625-9.617187v10.847656c0 .121094.003906.273438.011719.410156 0 .015625.003906.035156.003906.054688.082031 5.257812 1.554688 10.519531 4.085938 15.140625-7.691407.742187-17.457032 3.84375-29.238282 9.308593-2.066406-1.15625-4.445312-1.820312-6.976562-1.820312zm13.21875 14.953125v25.210937h-12.632812v-25.210937zm-53.414062 9.375c-1.734375-3.617187-4.390625-11.925781-2.992188-15.664063.171875-.464843.367188-.722656.71875-.929687.117188-.058594.234375-.113281.347656-.175781.5-.207032 1.3125-.347656 2.464844-.347656 4.003906 0 12.089844 1.65625 25.292969 7.664062v25.367188c-17.070313 7.765624-25.582031 8.261718-27.789063 7.304687-.574218-.246094-.816406-.5-1.035156-1.085937-1.339844-3.558594.996094-11.464844 2.992188-15.671876.976562-2.042968.976562-4.417968 0-6.460937zm89.433594-78.125c-.226563.152344-.441407.316406-.648438.488281-10.75 7.945313-24.566406 14.03125-41.6875 14.03125s-30.9375-6.085937-41.691406-14.03125c-.203125-.171875-.421875-.335937-.644532-.488281-6.945312-5.238281-12.582031-11.234375-16.972656-16.816406-13.25-16.851563-20.402344-36.914063-20.402344-47.238281v-51.863282c.425782-.105468.847657-.222656 1.269532-.351562 21.277344-6.535156 42.976562-10.433594 64.558594-11.59375 15.628906 16.386718 44.023437 35.289062 93.59375 39.96875v23.839844c0 10.320312-7.152344 30.382812-20.40625 47.238281-4.386719 5.582031-10.027344 11.574219-16.96875 16.816406zm-34.015626-128.085937c23.480469.761718 46.988282 4.710937 70.117188 11.816406.53125.164062 1.0625.300781 1.59375.425781.136719.03125.277344.0625.414062.09375.5.109375 1 .207031 1.503907.285156.035156.003907.074219.011719.109375.019531.527344.078126 1.058594.132813 1.585937.179688.148438.011719.292969.019531.441407.03125.476562.03125.953124.050781 1.425781.054688.054687 0 .101562.003906.152343.003906h.042969c.460938 0 .917969-.015625 1.371094-.042969.152344-.011719.300781-.027344.449219-.035156.316406-.027344.636718-.054688.953125-.09375.171875-.019531.339843-.042969.511719-.066407.308593-.042968.617187-.089843.925781-.144531.15625-.03125.3125-.054687.46875-.085937.398437-.082032.796875-.171875 1.195312-.269532.054688-.015624.113281-.027343.167969-.042968.449219-.117188.894531-.246094 1.335938-.390625.144531-.046875.285156-.097657.425781-.144531.308593-.105469.617187-.21875.921875-.335938.15625-.058594.316406-.125.472656-.1875.300781-.125.601562-.257812.898438-.394531.140624-.0625.28125-.125.421874-.191407.417969-.203124.832032-.414062 1.246094-.640624.011719-.003907.019532-.007813.027344-.011719.011719-.007813.019531-.011719.027344-.015625.277344-.15625.550781-.3125.820312-.476563v16.855469c-3.484375-.011719-7.054687-.132812-10.679687-.367188-38.429688-2.488281-63.386719-13.789062-79.347657-25.828124zm97.453126 41.003906v8.191406c0 3.582031-2.914063 6.496094-6.496094 6.496094h-4.613282v-14.597656c3.785157.089843 7.503907.058593 11.109376-.089844zm-204.121094-107.707032c0-17.476562 11.875-32.507812 28.875-36.554687l53.8125-12.808594c8.976562-2.136719 18.472656-2.175781 27.464844-.113281l57.367187 13.15625c17.175781 3.9375 29.171875 19 29.171875 36.621094v34.921875c-46.136719-15.621094-93.226562-20.171875-140.132812-13.53125-4.085938.578125-6.933594 4.359375-6.351563 8.449219.578125 4.089843 4.355469 6.933593 8.449219 6.355468 45.664062-6.46875 91.554687-1.742187 136.507812 14.023438l-1.867187 6.941406c-.691407 2.570312-2.355469 4.695312-4.683594 5.984375-2.300781 1.269531-4.941406 1.546875-7.4375.78125 0-.003906-.003906-.003906-.003906-.003906-30.917969-9.496094-62.5-13.667969-93.875-12.398438-23.996094.96875-48.144531 5.140625-71.777344 12.398438 0 0-.003906 0-.003906.003906-.296875.089844-.597657.164063-.898438.226563-.894531.179687-1.816406.230468-2.757812.144531-.070313-.007813-.136719-.007813-.207031-.011719-1.234376-.136719-2.445313-.519531-3.574219-1.140625-2.328125-1.289063-3.992188-3.414063-4.683594-5.984375l-1.867187-6.933594c7.816406-2.742187 15.710937-5.175781 23.554687-7.242187 3.992187-1.050781 6.375-5.140625 5.324219-9.132813-1.050782-3.992187-5.144532-6.378906-9.132813-5.328125-7.082031 1.867188-14.203125 4.007813-21.273437 6.402344zm0 76.035157c.277344.167969.558594.335937.84375.496093.925781.511719 1.875.957032 2.839844 1.34375v5.765626h-3.683594zm-7.425782 39.863281v-10.808594c0-3.582031 2.914063-6.5 6.496094-6.5h4.613282v23.804688h-4.613282c-3.582031 0-6.496094-2.914063-6.496094-6.496094zm40.605469 102.214844c-10.746093 0-20.652343-4.378906-27.886719-12.324219-7.234374-7.945313-10.667968-18.214844-9.664062-28.917969l3.703125-39.523437h4.890625c1.960938 13.226562 9.355469 32.433593 23.0625 49.867187 4.53125 5.761719 10.210938 11.902344 17.09375 17.492188v13.40625zm-30.230469 40.925781 29.929688-8.339844c.59375-.164062 1.238281-.042969 1.730469.324219.019531.011719.035156.023438.050781.035156-.140625.316406-.289062.628906-.410156.957032-3.128906 8.363281-.011719 18.71875 2.117187 24.128906-2.128906 5.414062-5.246093 15.765625-2.117187 24.132812 1.644531 4.398438 4.792968 7.714844 9.101562 9.578125 2.351563 1.019531 5.160156 1.527344 8.414063 1.527344 8.136719 0 19.085937-3.183594 32.703125-9.5 2.066406 1.15625 4.445312 1.820313 6.976562 1.820313h13.800782c2.535156 0 4.910156-.664063 6.980468-1.820313 13.617188 6.316406 24.5625 9.5 32.699219 9.5 3.257813 0 6.066406-.507813 8.417969-1.527344 4.308594-1.863281 7.457031-5.179687 9.101562-9.578125 3.125-8.367187.007813-18.71875-2.117187-24.132812 2.125-5.410156 5.242187-15.765625 2.117187-24.128906-.125-.328126-.269531-.640626-.410156-.957032.015625-.011718.03125-.023437.050781-.035156.492188-.367188 1.136719-.488281 1.730469-.324219l29.914062 8.339844v78.992187h-190.78125zm-31.339843 8.734375 5.839843-1.628906 10.550782-2.9375v78.796875c-.398438.277343-.78125.566406-1.15625.867187l-15.234375 12.304688zm263.804687 163.328125h-274.132812v-43.390625l3.871094-8.101562 31.082031-25.105469c.285156-.226563.59375-.429688.90625-.609375.257812-.144532.535156-.269532.820312-.382813.816407-.335937 1.695313-.527343 2.589844-.527343h195.59375c.894531 0 1.769531.191406 2.589844.527343.28125.113281.558593.238281.816406.382813.292969.167968.574219.355468.835937.566406.023438.015625.050782.027344.070313.046875l31.085937 25.105469 3.871094 8.097656zm70.671875-3.566406c-1.910156 2.265625-4.710937 3.566406-7.675781 3.566406h-48.046875v-45.085937c0-1.113282-.25-2.214844-.730469-3.222657l-5.328125-11.15625c-.480469-1.003906-1.179687-1.890625-2.050781-2.59375l-2.226562-1.796875v-95.308594l11.320312 3.15625c20.617188 5.742188 36.261719 23.085938 39.867188 44.179688l17.097656 100.09375c.496094 2.921875-.3125 5.898438-2.226563 8.167969zm0 0" transform="matrix(0.20376190543174744 0 0 0.20376190543174744 85.91338646390255 19.836950302124023)" id="L1_161" fill="#000000"/><path d="m449.765625 482.792969-17.097656-100.089844c-4.570313-26.769531-24.429688-48.777344-50.589844-56.066406l-87.53125-24.394531c-3.6875-1.027344-7.621094-.742188-11.109375.710937-2.644531-3.105469-4.40625-7.488281-4.40625-11.515625v-20.785156c6.882812-5.589844 12.5625-11.726563 17.089844-17.492188 13.707031-17.433594 21.105468-36.640625 23.066406-49.867187h5.152344c11.828125 0 21.449218-9.621094 21.449218-21.449219v-10.808594c0-6.316406-2.765624-12.191406-7.429687-16.21875v-88.570312c0-24.636719-16.769531-45.6875-40.785156-51.195313l-57.363281-13.15625c-11.222657-2.574219-23.074219-2.523437-34.273438.140625l-53.8125 12.8125c-23.765625 5.65625-40.363281 26.667969-40.363281 51.097656v88.871094c-4.660157 4.023438-7.425781 9.898438-7.425781 16.21875v10.808594c0 11.828125 9.621093 21.449219 21.449218 21.449219h5.148438c1.960937 13.222656 9.359375 32.433593 23.066406 49.867187 4.53125 5.761719 10.207031 11.902344 17.09375 17.492188v20.78125c0 4.03125-1.761719 8.410156-4.40625 11.515625-3.488281-1.453125-7.425781-1.738281-11.109375-.710938l-87.53125 24.394531c-26.160156 7.292969-46.019531 29.300782-50.59375 56.066407l-.945313 5.542969c-.695312 4.070312 2.039063 7.933593 6.109376 8.628906.425781.074218.851562.109375 1.269531.109375 3.574219 0 6.734375-2.574219 7.359375-6.21875l.945312-5.542969c3.605469-21.09375 19.253906-38.4375 39.867188-44.183594l11.308594-3.148437v95.308593l-2.214844 1.792969c-.867188.699219-1.566406 1.585938-2.046875 2.589844l-5.332031 11.15625c-.480469 1.007813-.730469 2.109375-.730469 3.226563v45.085937h-48.042969c-2.96875 0-5.765625-1.304687-7.679688-3.570313-1.910156-2.265624-2.722656-5.246093-2.222656-8.167968l10.308594-60.34375c.695312-4.070313-2.042969-7.933594-6.109375-8.628906-4.070313-.691407-7.933594 2.042968-8.628906 6.109374l-10.308594 60.347657c-1.242187 7.273437.773437 14.683593 5.535156 20.328125 4.757813 5.640625 11.722657 8.878906 19.105469 8.878906h400.125c7.382812 0 14.34375-3.234375 19.105469-8.878906 4.757812-5.640625 6.777343-13.050782 5.535156-20.328125zm-114.367187-153.644531 16.386718 4.566406v87.394531l-15.21875-12.292969c-.011718-.007812-.023437-.015625-.035156-.023437-.367188-.296875-.746094-.582031-1.132812-.855469zm-25.203126-172.148438v-11.457031c4.269532.09375 8.507813-.933594 12.367188-3.066407.289062-.160156.566406-.328124.84375-.496093v10.535156c-3.800781.660156-8.550781 1.957031-13.210938 4.484375zm20.640626 14.035156v10.808594c0 3.582031-2.914063 6.496094-6.496094 6.496094h-4.613282v-19.332032c3.828126-1.558593 7.609376-2.019531 9.582032-2.15625.972656 1.15625 1.527344 2.625 1.527344 4.183594zm-200.4375 17.304688h-4.613282c-3.582031 0-6.496094-2.914063-6.496094-6.496094v-10.808594c0-1.558594.554688-3.027344 1.523438-4.179687 1.988281.136719 5.765625.601562 9.585938 2.152343zm-3.683594-35.824219v-10.535156c.277344.167969.558594.335937.84375.496093 3.699218 2.042969 7.746094 3.082032 11.835937 3.082032.179688 0 .355469-.015625.535157-.023438v11.464844c-4.664063-2.527344-9.414063-3.824219-13.214844-4.484375zm18.566406-23.253906-.753906.222656c-.765625.226563-1.53125.453125-2.296875.6875-2.496094.765625-5.136719.488281-7.4375-.78125-2.328125-1.289063-3.992188-3.414063-4.683594-5.984375l-1.867187-6.945312c8.011718-2.8125 16.113281-5.289063 24.15625-7.390626 3.996093-1.042968 6.386718-5.125 5.34375-9.121093-1.042969-3.996094-5.125-6.386719-9.121094-5.34375-7.296875 1.902343-14.628906 4.109375-21.90625 6.574219v-35.234376c0-17.476562 11.871094-32.507812 28.875-36.554687l53.808594-12.808594c8.980468-2.136719 18.476562-2.175781 27.46875-.113281l57.363281 13.15625c17.179687 3.9375 29.175781 19 29.175781 36.621094v34.929687c-46.140625-15.625-93.234375-20.183593-140.148438-13.539062-4.085937.582031-6.933593 4.363281-6.351562 8.453125.578125 4.085937 4.363281 6.933594 8.449219 6.351562 45.671875-6.46875 91.570312-1.75 136.527343 14.019532l-1.867187 6.945312c-.695313 2.570312-2.359375 4.695312-4.6875 5.984375-2.296875 1.269531-4.941406 1.546875-7.433594.78125h-.003906c-.765625-.238281-1.535156-.460937-2.304687-.6875l-.746094-.21875s-.003906 0-.003906-.003906c-52.953126-15.652344-106.59375-15.652344-159.546876 0-.003906 0-.003906 0-.007812 0zm20.472656 114.65625c-13.25-16.855469-20.402344-36.917969-20.402344-47.238281v-20.449219c1.039063-.09375 2.082032-.34375 3.082032-.761719 3.914062-1.632812 6.445312-5.429688 6.445312-9.671875v-23.722656c46.613282-12.789063 93.75-12.789063 140.363282 0v23.722656c0 4.242187 2.53125 8.039063 6.445312 9.671875 1.003906.417969 2.042969.667969 3.085938.761719v20.449219c0 10.320312-7.152344 30.382812-20.40625 47.238281-4.386719 5.578125-10.023438 11.574219-16.96875 16.816406-.226563.152344-.441407.316406-.652344.492187-10.75 7.945313-24.566406 14.027344-41.683594 14.027344-17.121094 0-30.941406-6.085937-41.691406-14.03125-.207032-.171875-.421875-.335937-.644532-.488281-6.945312-5.242187-12.585937-11.234375-16.972656-16.816406zm52.40625 70.613281c-2.53125 0-4.910156.664062-6.976562 1.820312-11.78125-5.464843-21.546875-8.566406-29.242188-9.304687 2.605469-4.761719 4.105469-10.199219 4.105469-15.609375v-10.847656c10.886719 5.757812 23.847656 9.617187 39.015625 9.617187s28.125-3.859375 39.015625-9.617187v10.847656c0 5.410156 1.496094 10.847656 4.101563 15.605469-7.691407.742187-17.460938 3.84375-29.238282 9.308593-2.070312-1.15625-4.449218-1.820312-6.980468-1.820312zm13.214844 14.953125v25.210937h-12.628906v-25.210937zm-53.410156 9.375c-1.734375-3.617187-4.394532-11.925781-2.996094-15.664063.175781-.46875.371094-.726562.730469-.9375.113281-.054687.226562-.105468.335937-.167968.503906-.210938 1.316406-.347656 2.46875-.347656 4.003906 0 12.089844 1.65625 25.292969 7.664062v25.367188c-17.070313 7.765624-25.582031 8.257812-27.789063 7.304687-.574218-.25-.816406-.503906-1.035156-1.085937-1.339844-3.5625.996094-11.464844 2.992188-15.671876.976562-2.042968.976562-4.417968 0-6.460937zm68.363281-9.453125c17.011719-7.742188 25.523437-8.257812 27.761719-7.3125.101562.054688.207031.101562.308594.152344.371093.214844.574218.46875.75.941406 1.339843 3.558594-.996094 11.464844-2.988282 15.671875-.976562 2.042969-.976562 4.417969 0 6.460937 1.734375 3.617188 4.390625 11.925782 2.992188 15.664063-.21875.589844-.460938.847656-1.035156 1.09375-2.203126.957031-10.71875.460937-27.789063-7.304687zm-116.664063-4.421875 29.929688-8.339844c.589844-.164062 1.238281-.042969 1.730469.324219.015625.011719.035156.023438.046875.035156-.136719.316406-.285156.628906-.40625.957032-3.128906 8.363281-.011719 18.71875 2.117187 24.128906-2.128906 5.414062-5.246093 15.765625-2.117187 24.132812 1.644531 4.398438 4.792968 7.714844 9.101562 9.578125 2.351563 1.019531 5.15625 1.527344 8.414063 1.527344 8.136719 0 19.085937-3.183594 32.699219-9.5 2.070312 1.15625 4.449218 1.820313 6.980468 1.820313h13.800782c2.53125 0 4.910156-.664063 6.980468-1.820313 13.617188 6.316406 24.5625 9.5 32.699219 9.5 3.257813 0 6.066406-.507813 8.417969-1.527344 4.308594-1.863281 7.457031-5.179687 9.101562-9.578125 3.125-8.367187.007813-18.71875-2.117187-24.132812 2.125-5.410156 5.242187-15.765625 2.117187-24.128906-.125-.328126-.273437-.640626-.410156-.957032.015625-.011718.03125-.023437.046875-.035156.5-.371094 1.132813-.488281 1.734375-.324219l29.914062 8.335938v78.996093h-190.78125zm-31.34375 8.734375 5.84375-1.628906 10.546876-2.9375v78.796875c-.394532.277343-.78125.566406-1.15625.867187l-15.234376 12.304688zm263.804688 163.328125h-274.128906v-43.390625l3.871094-8.101562 31.082031-25.105469c.285156-.226563.59375-.429688.90625-.609375.257812-.144532.535156-.269532.820312-.382813.816407-.335937 1.695313-.527343 2.589844-.527343h195.59375c.894531 0 1.773437.195312 2.59375.53125.28125.113281.554687.234374.8125.378906.289063.164062.570313.355468.835937.5625.019532.019531.046876.03125.070313.046875 0 0 0 .003906.003906.003906l31.082031 25.105469 3.871094 8.097656v43.390625zm70.675781-3.566406c-1.914062 2.265625-4.710937 3.566406-7.679687 3.566406h-48.042969v-45.085937c0-1.113282-.25-2.214844-.730469-3.222657l-5.328125-11.152343c-.484375-1.007813-1.183593-1.894532-2.050781-2.597657l-2.230469-1.800781v-95.304688l11.324219 3.15625c20.613281 5.746094 36.261719 23.085938 39.867188 44.179688l17.09375 100.09375c.5 2.921875-.308594 5.898438-2.222657 8.167969zm0 0" transform="matrix(0.16920389235019684 0 0 0.16920389235019684 269.68104911582543 189.48924831861257)" id="L1_162" fill="#000000"/><g transform="matrix(0.08123113949501326 0.04351668308493618 -0.04351668308493618 0.08123113949501326 289.4363208109418 50.83486726282595)" id="L1_163"><path d="m498.667969 204.019531c-2.761719-2.929687-5.859375-5.574219-9.21875-7.933593 1.558593-10.976563 3.15625-22.324219-1.183594-32.496094-2.960937-6.941406-7.421875-12.089844-12.101563-16.492188 2.792969-27.855468-6.917968-57.070312-28.367187-78.515625-17.839844-17.84375-41.277344-28.097656-66-28.882812-23.273437-.734375-45.230469 6.980469-62.339844 21.800781-2.863281-.851562-5.753906-1.632812-8.65625-2.367188-7.09375-17.605468-29.203125-29.957031-54.800781-29.957031-25.59375 0-47.707031 12.351563-54.800781 29.957031-2.902344.734376-5.789063 1.515626-8.65625 2.367188-17.105469-14.820312-39.0625-22.539062-62.335938-21.800781-24.722656.785156-48.164062 11.039062-66.003906 28.882812-21.449219 21.449219-31.160156 50.660157-28.367187 78.515625-4.675782 4.402344-9.140626 9.554688-12.101563 16.492188-4.339844 10.171875-2.738281 21.519531-1.183594 32.496094-3.359375 2.359374-6.457031 5.003906-9.21875 7.933593-10.257812 10.882813-14.839843 24.1875-12.894531 37.460938 2.902344 19.832031 20.554688 35.628906 44.0625 39.574219 2.082031.851562 4.324219 1.316406 6.605469 1.316406h409.789062c2.28125 0 4.523438-.464844 6.605469-1.316406 23.511719-3.949219 41.160156-19.742188 44.0625-39.574219 1.945312-13.273438-2.636719-26.578125-12.894531-37.460938zm-117.347657-149.34375c20.902344.664063 40.746094 9.363281 55.882813 24.5 25.332031 25.332031 31.414063 63.34375 16.347656 93.058594-3.164062-6.074219-6.605469-12.007813-10.332031-17.777344 4.664062-16.285156 2.382812-34.121093-6.464844-49.527343-2.0625-3.585938-6.640625-4.824219-10.230468-2.765626-3.585938 2.0625-4.824219 6.640626-2.761719 10.230469 4.40625 7.671875 6.695312 16.09375 6.820312 24.4375-.40625-.515625-.824219-1.027343-1.238281-1.539062-.300781-.375-.601562-.757813-.90625-1.128907-.554688-.679687-1.117188-1.347656-1.679688-2.019531-.621093-.742187-1.246093-1.484375-1.875-2.222656-.339843-.394531-.683593-.785156-1.027343-1.179687-.875-1.003907-1.757813-2.003907-2.652344-2.992188-.167969-.183594-.335937-.367188-.503906-.554688-1.082031-1.1875-2.175781-2.367187-3.285157-3.535156-.027343-.03125-.058593-.0625-.089843-.09375-7.292969-7.671875-15.113281-14.816406-23.414063-21.375-.125-.097656-.25-.203125-.378906-.300781-1.066406-.839844-2.148438-1.667969-3.230469-2.488281-.359375-.269532-.714843-.550782-1.074219-.816406-.597656-.449219-1.203124-.882813-1.804687-1.324219-4.429687-3.25-8.960937-6.324219-13.589844-9.222657 1.621094-.167968 3.265625-.261718 4.933594-.261718 7.910156 0 15.527344 1.820312 22.644531 5.414062 1.085938.546875 2.238282.804688 3.371094.804688 2.738281 0 5.375-1.507813 6.695312-4.117188 1.863282-3.695312.382813-8.199218-3.3125-10.0625-9.230468-4.660156-19.121093-7.023437-29.398437-7.023437-8.179687 0-16.277344 1.644531-23.648437 4.761719-6.089844-3.035157-12.308594-5.78125-18.644532-8.238282 12.996094-8.722656 28.527344-13.15625 44.847656-12.640625zm-125.320312-10.515625c13.339844 0 25.566406 4.160156 33.390625 10.667969-1.277344-.191406-2.554687-.367187-3.835937-.539063-.203126-.027343-.402344-.054687-.605469-.078124-1.21875-.160157-2.4375-.3125-3.660157-.449219-.28125-.03125-.566406-.058594-.851562-.089844-2.324219-.253906-4.65625-.476563-6.996094-.65625-.238281-.019531-.480468-.042969-.722656-.058594-.808594-.0625-1.617188-.109375-2.425781-.160156-.84375-.054687-1.691407-.109375-2.539063-.152344-.707031-.035156-1.417968-.070312-2.125-.097656-1.023437-.046875-2.046875-.082031-3.070312-.113281-.570313-.015625-1.144532-.035156-1.714844-.046875-1.613281-.035157-3.226562-.058594-4.84375-.058594-1.613281 0-3.226562.023437-4.84375.058594-.570312.011719-1.140625.03125-1.710938.046875-1.027343.03125-2.046874.066406-3.070312.113281-.710938.027344-1.421875.0625-2.128906.097656-.847656.046875-1.691406.097657-2.535156.152344-.8125.050781-1.621094.097656-2.429688.160156-.230469.015625-.464844.039063-.695312.054688-2.351563.183593-4.695313.40625-7.03125.660156-.277344.03125-.558594.058594-.839844.089844-1.222656.140625-2.445313.292969-3.667969.449219-.199219.027343-.394531.050781-.59375.078124-1.28125.171876-2.5625.347657-3.839844.539063 7.824219-6.507813 20.050781-10.667969 33.386719-10.667969zm-181.199219 35.015625c15.132813-15.136719 34.980469-23.835937 55.878907-24.5.855468-.027343 1.707031-.039062 2.558593-.039062 15.382813 0 29.980469 4.414062 42.289063 12.683593-6.335938 2.453126-12.554688 5.199219-18.644532 8.234376-7.371093-3.117188-15.464843-4.761719-23.648437-4.761719-10.320313 0-20.246094 2.382812-29.511719 7.082031-3.6875 1.867188-5.164062 6.378906-3.292968 10.066406 1.320312 2.605469 3.957031 4.105469 6.6875 4.105469 1.140624 0 2.296874-.261719 3.382812-.8125 7.144531-3.621094 14.789062-5.457031 22.734375-5.457031 1.667969 0 3.3125.09375 4.933594.261718-4.621094 2.890626-9.144531 5.960938-13.5625 9.199219-.613281.449219-1.230469.894531-1.835938 1.347657-.355469.265624-.703125.539062-1.054687.804687-1.089844.824219-2.175782 1.65625-3.25 2.5-.125.097656-.246094.199219-.371094.296875-8.300781 6.558594-16.125 13.703125-23.417969 21.378906-.03125.03125-.058593.0625-.089843.09375-1.109376 1.167969-2.203126 2.347656-3.285157 3.539063-.167969.183593-.335937.367187-.503906.550781-.894531.988281-1.777344 1.988281-2.652344 2.992188-.339843.394531-.6875.785156-1.027343 1.179687-.628907.738281-1.253907 1.480469-1.875 2.226563-.5625.667968-1.125 1.335937-1.675782 2.011718-.308594.375-.609375.757813-.914062 1.136719-.414063.511719-.828125 1.019531-1.234375 1.53125.125-8.324219 2.40625-16.722656 6.792969-24.382813 2.054687-3.589843.8125-8.167968-2.777344-10.222656-3.589844-2.054687-8.167969-.8125-10.226563 2.777344-8.8125 15.386719-11.078125 33.199219-6.425781 49.457031-3.726562 5.769531-7.167969 11.703125-10.332031 17.777344-15.066407-29.714844-8.980469-67.726563 16.351562-93.058594zm-36.839843 150.941407c-.089844.441406-.183594.882812-.273438 1.328124-.164062.847657-.324219 1.699219-.484375 2.550782-.140625.75-.273437 1.503906-.40625 2.257812-.125.71875-.253906 1.4375-.371094 2.160156-.234375 1.429688-.460937 2.859376-.667969 4.292969-.058593.402344-.109374.808594-.164062 1.210938-.164062 1.1875-.324219 2.378906-.46875 3.570312-.066406.53125-.128906 1.0625-.1875 1.59375-.136719 1.171875-.261719 2.347657-.378906 3.523438-.042969.421875-.085938.839843-.125 1.261719-.148438 1.566406-.28125 3.132812-.394532 4.707031-.023437.351562-.042968.703125-.066406 1.054687-.058594.835938-.117187 1.671875-.164062 2.507813-10.164063-4.945313-17.140625-13.214844-18.546875-22.828125-1.265625-8.644532 1.921875-17.527344 8.976562-25.011719 2.8125-2.980469 6.089844-5.597656 9.734375-7.800781.226563-.113282.441406-.234375.652344-.371094 3.480469-2.03125 7.269531-3.703125 11.300781-4.949219-3.300781 9.425781-5.957031 19.089844-7.964843 28.941407zm-1.3125-41.546876c-.921876-7.296874-1.304688-14.007812.867187-19.097656.59375-1.386718 1.296875-2.6875 2.097656-3.929687 2.140625 6.785156 5.085938 13.351562 8.871094 19.554687-4.09375.832032-8.054687 1.996094-11.835937 3.472656zm426.652343 76.816407c-.011719.0625-.027343.125-.042969.183593-.019531.078126-.042968.148438-.066406.21875-.242187.644532-.742187 1.105469-1.203125 1.335938-.015625.007812-.03125.015625-.046875.023438-.285156.136718-.625.242187-1.042968.242187h-409.792969c-.417969 0-.761719-.105469-1.042969-.242187-.015625-.007813-.03125-.015626-.046875-.023438-.460937-.230469-.964844-.691406-1.203125-1.335938-.027344-.070312-.050781-.140624-.070312-.214843-.015626-.0625-.027344-.125-.039063-.1875-.027344-.152344-.042969-.316407-.035156-.492188v-.003906c.074219-1.597656.171875-3.195313.285156-4.789063.035156-.53125.085937-1.058593.125-1.585937.082031-1.0625.167969-2.121094.265625-3.179687.058594-.652344.132812-1.304688.199219-1.953126.09375-.925781.191406-1.847656.296875-2.769531.085937-.726562.179687-1.453125.273437-2.179687.105469-.832032.210938-1.664063.324219-2.492188.113281-.800781.234375-1.601562.355469-2.402344.109375-.726562.222656-1.453124.339843-2.183593.144532-.894531.296876-1.789063.453126-2.683594.105468-.597656.214843-1.191406.324218-1.785156.1875-1.019531.382813-2.039063.585938-3.050781.085937-.425782.171875-.847657.261718-1.273438.242188-1.179688.492188-2.363281.761719-3.539062.039063-.183594.082031-.363282.125-.546876 2.671875-11.683593 6.359375-23.128906 11.054688-34.25.074219-.171874.125-.351562.183593-.53125.363282-.851562.738282-1.699218 1.113282-2.546874.0625-.121094.132812-.234376.1875-.355469 6.710937-15.128907 15.148437-29.257813 25.039062-42.160157.152344-.203124.304688-.402343.457032-.601562.828124-1.066406 1.667968-2.121094 2.511718-3.171875.335938-.417969.667969-.839844 1.007813-1.253906.601562-.734375 1.210937-1.457031 1.824219-2.183594.574218-.683594 1.144531-1.375 1.734374-2.054687.144532-.167969.292969-.332032.4375-.5 4.214844-4.847657 8.667969-9.523438 13.359376-14.011719 2.402343-2.300781 4.855468-4.535157 7.347656-6.703125.039062-.03125.074218-.066406.113281-.097656 1.128906-.984376 2.273437-1.949219 3.421875-2.90625.226562-.183594.453125-.375.679688-.558594 1-.824219 2.007812-1.636719 3.019531-2.441406.425781-.335938.851562-.671876 1.277343-1.003907.847657-.664062 1.699219-1.320312 2.558594-1.96875.671875-.507812 1.347656-1.007812 2.023438-1.503906.644531-.476563 1.289062-.953125 1.9375-1.421875 1.050781-.753906 2.109375-1.496094 3.171875-2.230469.304687-.210937.605469-.421875.910156-.632812 16.457031-11.238281 34.597656-20.152344 53.941406-26.3125.085938-.027344.164063-.066407.246094-.097657 5.082031-1.609374 10.234375-3.015624 15.441406-4.226562.019531-.007812.042969-.007812.0625-.011719 30.898438-7.203125 63.695313-7.203125 94.59375 0 .023438.003907.046875.003907.070313.011719 5.203125 1.210938 10.351562 2.617188 15.433594 4.226562.082031.027344.160156.070313.246093.09375 19.34375 6.164063 37.484375 15.078126 53.941407 26.316407.304687.207031.605468.421875.910156.632812 1.0625.734375 2.121094 1.476563 3.171875 2.230469.648437.46875 1.292969.945312 1.9375 1.417969.675781.5 1.351562 1 2.023437 1.507812.859375.648438 1.710938 1.304688 2.558594 1.96875.425781.332031.851562.664063 1.277344 1.003907 1.011718.800781 2.019531 1.617187 3.019531 2.441406.226563.183594.453125.371094.679687.558594 1.148438.957031 2.289063 1.921874 3.421876 2.90625.039062.03125.074218.0625.113281.097656 2.492187 2.167968 4.945312 4.402344 7.347656 6.699218 4.691406 4.488282 9.144531 9.167969 13.359375 14.015626.144531.167968.292969.332031.4375.5.589844.679687 1.15625 1.367187 1.734375 2.054687.613281.726563 1.222656 1.449219 1.824219 2.183594.339844.414062.671875.835937 1.007812 1.253906.84375 1.050781 1.683594 2.105469 2.511719 3.171875.152344.199219.304687.398438.457031.597656 9.894532 12.90625 18.328125 27.03125 25.039063 42.160156.054687.125.125.238282.1875.359376.375.847656.75 1.695312 1.113281 2.546874.058594.175782.109375.355469.183594.53125 4.695312 11.121094 8.382812 22.566407 11.054687 34.253907.042969.179687.085938.359375.125.539062.265625 1.179688.519531 2.363281.761719 3.546875.089844.421875.175781.84375.261719 1.265625.203125 1.015625.398437 2.035157.585937 3.054688.109375.59375.21875 1.1875.320313 1.78125.160156.898437.3125 1.792969.457031 2.691406.117188.726563.230469 1.449219.339844 2.175781.121094.804688.242187 1.605469.351562 2.410156.117188.824219.222656 1.65625.328125 2.484376.09375.726562.1875 1.453124.273438 2.183593.105469.917969.199219 1.84375.296875 2.765625.066406.652344.136718 1.304688.199218 1.957032.097657 1.058593.179688 2.117187.261719 3.175781.042969.53125.089844 1.058593.128907 1.589843.109374 1.59375.207031 3.191407.285156 4.789063.003906.179687-.015625.339844-.039063.496094zm.226563-80.304688c3.777344-6.195312 6.722656-12.757812 8.863281-19.539062.796875 1.242187 1.503906 2.542969 2.09375 3.929687 2.171875 5.089844 1.792969 11.796875.871094 19.089844-.089844-.035156-.1875-.0625-.277344-.097656-1.011719-.390625-2.039063-.757813-3.078125-1.101563-.261719-.089843-.523438-.179687-.789062-.265625-1.140626-.363281-2.292969-.707031-3.460938-1.019531-.246094-.066406-.496094-.121094-.742188-.183594-.960937-.246093-1.925781-.46875-2.902343-.675781-.195313-.042969-.382813-.097656-.578125-.136719zm33.210937 54.226563c-1.40625 9.613281-8.382812 17.882812-18.542969 22.828125-.046874-.835938-.109374-1.671875-.164062-2.503907-.023438-.355468-.046875-.707031-.070312-1.0625-.113282-1.570312-.246094-3.136718-.390626-4.703124-.039062-.421876-.085937-.84375-.128906-1.265626-.117187-1.171874-.242187-2.34375-.375-3.515624-.0625-.535157-.125-1.066407-.191406-1.601563-.144531-1.1875-.300781-2.371094-.464844-3.554687-.054687-.410157-.105468-.816407-.167968-1.222657-.207032-1.433593-.429688-2.863281-.667969-4.289062-.117188-.726563-.246094-1.445313-.371094-2.167969-.132813-.75-.265625-1.5-.40625-2.25-.15625-.851562-.316406-1.707031-.484375-2.558594-.089844-.4375-.179688-.875-.269531-1.308594-2.007813-9.851562-4.664063-19.511718-7.964844-28.933593.289063.089843.578125.183593.863281.277343.488282.15625.972656.324219 1.457032.492188.550781.199219 1.101562.402344 1.644531.617188.28125.109374.554687.226562.832031.339843 2.3125.960938 4.550781 2.0625 6.695312 3.328125.089844.054688.191407.09375.285157.144532 3.710937 2.222656 7.054687 4.871093 9.910156 7.902343 7.050781 7.480469 10.238281 16.363281 8.972656 25.007813zm0 0" fill="#000000"/><path d="m170.757812 32.617188c4.714844-.085938 10.09375 1.066406 15.789063 2.273437 6.085937 1.289063 12.316406 2.609375 18.507813 2.609375 2.445312 0 4.882812-.203125 7.300781-.699219 8.394531-1.722656 15.816406-6.878906 22.992187-11.863281 7.367188-5.121094 14.328125-9.953125 20.652344-9.953125 6.328125 0 13.285156 4.835937 20.65625 9.953125 7.175781 4.984375 14.597656 10.140625 22.992188 11.863281 8.542968 1.75 17.320312-.109375 25.808593-1.910156 6.242188-1.324219 12.140625-2.570313 17.148438-2.210937 4.117187.296874 7.714843-2.8125 8.007812-6.941407.296875-4.125-2.808593-7.710937-6.9375-8.007812-7.117187-.507813-14.339843 1.023437-21.324219 2.503906-7.308593 1.546875-14.214843 3.007813-19.695312 1.886719-5.382812-1.101563-11.246094-5.175782-17.453125-9.488282-8.9375-6.210937-18.183594-12.632812-29.203125-12.632812-11.015625 0-20.261719 6.421875-29.199219 12.632812-6.207031 4.3125-12.070312 8.386719-17.453125 9.488282-5.480468 1.125-12.386718-.339844-19.695312-1.886719-6.253906-1.328125-12.734375-2.691406-19.125-2.597656-4.136719.066406-7.441406 3.472656-7.375 7.609375.0625 4.136718 3.488281 7.445312 7.605468 7.371094zm0 0" fill="#000000"/></g><g transform="matrix(0.1171877384185791 0 0 0.1171877384185791 117.99999976562458 213.00000017578168)" id="L1_165"><path d="m151.441406 155.839844-10.1875-9.472656v-4.753907c1.203125-.683593 2.304688-1.5625 3.230469-2.636719 2.320313-2.683593 3.355469-6.234374 2.84375-9.746093l-3.253906-22.25c-.867188-5.953125-6.058594-10.4375-12.074219-10.4375h-25.609375l-9.265625-83.625c-.816406-7.363281-7.019531-12.917969-14.429688-12.917969h-9.363281c-7.410156 0-13.609375 5.554688-14.429687 12.917969l-9.261719 83.621093h-25.613281c-6.011719 0-11.207032 4.488282-12.074219 10.441407l-3.253906 22.25c-.511719 3.511719.523437 7.0625 2.84375 9.746093.925781 1.074219 2.027343 1.953126 3.234375 2.636719v4.753907l-10.191406 9.472656c-2.597657 2.414062-4.085938 5.832031-4.085938 9.375v316.292968c0 16.8125 13.675781 30.492188 30.492188 30.492188h94.042968c16.8125 0 30.492188-13.679688 30.492188-30.492188v-316.292968c0-3.542969-1.488282-6.960938-4.085938-9.375zm-77.679687-140.839844h8.503906l9.03125 81.539062h-26.566406zm-47.316407 96.539062h103.140626l2.433593 16.664063h-108.011719zm114.082032 369.96875c0 8.542969-6.949219 15.492188-15.492188 15.492188h-94.042968c-8.542969 0-15.492188-6.949219-15.492188-15.492188v-58.816406h125.027344zm0-252.96875h-75.574219c-4.140625 0-7.5 3.355469-7.5 7.5 0 4.140626 3.359375 7.5 7.5 7.5h75.574219v164.152344h-125.027344v-164.152344h14.558594c4.140625 0 7.5-3.359374 7.5-7.5 0-4.144531-3.359375-7.5-7.5-7.5h-14.558594v-62.367187l10.1875-9.472656c2.597656-2.410157 4.085938-5.828125 4.085938-9.375v-4.125h96.480468v4.125c0 3.546875 1.488282 6.964843 4.082032 9.375l10.191406 9.472656zm.699218-61.71875.003907.003907v.003906c0-.003906-.003907-.007813-.003907-.007813zm0 0"/><path d="m360.402344 155.839844-10.191406-9.472656v-4.753907c1.207031-.683593 2.304687-1.5625 3.234374-2.636719 2.320313-2.683593 3.355469-6.234374 2.84375-9.746093l-3.253906-22.25c-.867187-5.953125-6.058594-10.4375-12.074218-10.4375h-25.609376l-9.265624-83.625c-.816407-7.363281-7.019532-12.917969-14.429688-12.917969h-9.363281c-7.410157 0-13.613281 5.554688-14.429688 12.917969l-9.261719 83.621093h-25.613281c-6.011719 0-11.207031 4.488282-12.074219 10.441407l-3.253906 22.25c-.511718 3.511719.523438 7.0625 2.84375 9.746093.929688 1.074219 2.027344 1.953126 3.234375 2.636719v4.753907l-10.191406 9.472656c-2.597656 2.414062-4.085937 5.828125-4.085937 9.375v316.292968c0 16.8125 13.679687 30.492188 30.492187 30.492188h94.046875c16.8125 0 30.492188-13.679688 30.492188-30.492188v-316.292968c-.003907-3.542969-1.492188-6.960938-4.089844-9.375zm-77.675782-140.839844h8.5l9.03125 81.539062h-26.566406zm-47.320312 96.539062h103.136719l2.4375 16.664063h-108.011719zm114.082031 296.152344h-70.648437c-4.144532 0-7.5 3.359375-7.5 7.5 0 4.144532 3.355468 7.5 7.5 7.5h70.648437v58.816406c0 8.542969-6.949219 15.492188-15.492187 15.492188h-94.042969c-8.542969 0-15.496094-6.949219-15.496094-15.492188v-58.816406h19.488281c4.140626 0 7.5-3.355468 7.5-7.5 0-4.140625-3.359374-7.5-7.5-7.5h-19.488281v-164.152344h125.03125zm0-179.152344h-125.027343v-62.367187l10.1875-9.472656c2.597656-2.410157 4.085937-5.828125 4.085937-9.375v-4.125h96.476563v4.125c0 3.546875 1.492187 6.964843 4.085937 9.375l10.191406 9.472656zm0 0"/></g><g transform="matrix(0.1171875 0 0 0.1171875 7 140)" id="L1_166"><path d="m367.210938.0195312c-1.335938-.0117187-2.671876-.0195312-4.007813-.0195312-67.375 0-132.738281 13.195312-194.277344 39.226562-59.433593 25.136719-112.808593 61.125-158.65625 106.96875l-.371093.375c-13.210938 13.238282-13.195313 34.777344.035156 48.003907l19.253906 19.257812c6.4375 6.4375 15.019531 9.980469 24.167969 9.980469h.007812c9.15625-.003906 17.738281-3.550781 24.179688-9.996094l.34375-.34375c2.757812-2.75 6.417969-4.261718 10.328125-4.261718h.179687c4.027344.046874 7.777344 1.675781 10.5625 4.585937l39.21875 41.023437c3.980469 4.164063 9.339844 6.492188 15.085938 6.558594h.242187c5.65625 0 10.96875-2.203125 14.988282-6.21875 8.320312-8.324218 8.476562-22.015625.339843-30.523437l-28.230469-29.527344c-2.519531-2.636719-2.652343-6.800781-.296874-9.277344 1.25-1.3125 2.929687-2.035156 4.730468-2.035156h.007813c1.796875 0 3.472656.714844 4.714843 2.011719l8.886719 9.296875c8.105469 8.480469 21.25 9.207031 29.925781 1.664062 4.488282-3.90625 7.109376-9.320312 7.382813-15.25.269531-5.847656-1.894531-11.625-5.941406-15.855469l-6.445313-6.742187c-3.316406-3.46875-4.726562-8.167969-3.875-12.890625.847656-4.6875 3.785156-8.5625 8.058594-10.625 54.941406-26.554688 113.972656-40.019531 175.453125-40.019531 1.195313 0 2.386719.003906 3.578125.015625 9.128906.09375 17.660156-3.402344 24.125-9.808594 6.488281-6.429688 10.058594-15.003906 10.058594-24.136719v-27.460937c.003906-18.574219-15.140625-33.816406-33.753906-33.9765628zm18.769531 61.4335938c0 5.105469-1.996094 9.898437-5.621094 13.488281-3.605469 3.574219-8.394531 5.554688-13.441406 5.46875-1.238281-.011718-2.472657-.015625-3.714844-.015625-63.757813 0-124.984375 13.964844-181.972656 41.511719-8.640625 4.171875-14.574219 11.992188-16.285157 21.453125-1.71875 9.496094 1.121094 18.941406 7.785157 25.914063l6.449219 6.742187c1.242187 1.300781 1.882812 3.011719 1.800781 4.808594s-.878907 3.445312-2.246094 4.632812c-2.582031 2.246094-6.734375 1.925781-9.257813-.710937l-8.886718-9.296875c-4.039063-4.222657-9.703125-6.644531-15.550782-6.644531-.007812 0-.011718 0-.019531 0-5.9375.003906-11.464843 2.382812-15.570312 6.691406-7.925781 8.324218-7.785157 21.488281.320312 29.964844l28.230469 29.527343c2.507812 2.625 2.457031 7.003907-.105469 9.570313-1.199219 1.199218-2.796875 1.820312-4.464843 1.832031-1.679688-.019531-3.25-.707031-4.425782-1.929687l-39.21875-41.023438c-5.589844-5.847656-13.128906-9.121094-21.21875-9.214844-.121094-.003906-.238281-.003906-.355468-.003906-7.910157 0-15.324219 3.0625-20.894532 8.625l-.117187.117188-.078125.074218-.183594.1875c-3.605469 3.609375-8.429688 5.597656-13.578125 5.597656 0 0 0 0-.003906 0-5.144531 0-9.964844-1.984374-13.570313-5.589843l-19.257812-19.257813c-7.390625-7.390625-7.402344-19.421875-.003906-26.835937l.355468-.355469c44.460938-44.464844 96.238282-79.375 153.886719-103.757812 59.679687-25.242188 123.078125-38.039063 188.4375-38.039063 1.292969 0 2.582031.003906 3.871094.015625h.003906c10.421875.09375 18.902344 8.613281 18.902344 18.992188zm0 0"/><path d="m378.242188 114.371094c-4.140626 0-7.492188 3.355468-7.492188 7.492187v369.425781c0 3.515626-2.679688 4.898438-3.503906 5.238282-.820313.339844-3.691406 1.257812-6.175782-1.226563l-263.484374-263.484375c-2.925782-2.925781-7.671876-2.925781-10.597657 0-2.925781 2.925782-2.925781 7.671875 0 10.597656l263.484375 263.484376c4 4 9.15625 6.101562 14.472656 6.101562 2.679688 0 5.402344-.535156 8.039063-1.625 7.863281-3.257812 12.75-10.570312 12.75-19.085938v-369.425781c0-4.136719-3.355469-7.492187-7.492187-7.492187zm0 0"/><path d="m321.4375 104.769531c-18.023438 0-32.683594 14.660157-32.683594 32.679688s14.660156 32.679687 32.683594 32.679687c18.019531 0 32.679688-14.660156 32.679688-32.679687s-14.660157-32.679688-32.679688-32.679688zm0 50.375c-9.757812 0-17.695312-7.9375-17.695312-17.695312 0-9.757813 7.9375-17.691407 17.695312-17.691407 9.753906 0 17.691406 7.933594 17.691406 17.691407 0 9.757812-7.9375 17.695312-17.691406 17.695312zm0 0"/><path d="m192.636719 298.136719c0 16.6875 13.578125 30.265625 30.269531 30.265625 16.6875 0 30.265625-13.578125 30.265625-30.265625 0-16.691407-13.578125-30.269531-30.265625-30.269531-16.691406 0-30.269531 13.578124-30.269531 30.269531zm30.269531-15.28125c8.425781 0 15.28125 6.855469 15.28125 15.28125s-6.855469 15.28125-15.28125 15.28125-15.285156-6.855469-15.285156-15.28125 6.859375-15.28125 15.285156-15.28125zm0 0"/><path d="m332.21875 263.371094c-17.277344 0-31.335938 14.058594-31.335938 31.335937 0 17.277344 14.058594 31.332031 31.335938 31.332031s31.332031-14.054687 31.332031-31.332031c0-17.277343-14.058593-31.335937-31.332031-31.335937zm0 47.679687c-9.015625 0-16.347656-7.332031-16.347656-16.34375 0-9.015625 7.332031-16.347656 16.347656-16.347656 9.011719 0 16.34375 7.332031 16.34375 16.347656 0 9.011719-7.332031 16.34375-16.34375 16.34375zm0 0"/><path d="m357.566406 385.3125c0-18.410156-14.980468-33.386719-33.386718-33.386719h-5.507813c-18.410156 0-33.390625 14.976563-33.390625 33.386719 0 7.988281 6.5 14.484375 14.484375 14.484375h1.964844l-.3125 5.863281c-.191407 3.644532 1.136719 7.253906 3.644531 9.902344 2.511719 2.648438 6.046875 4.167969 9.695312 4.167969h13.332032c3.648437 0 7.179687-1.519531 9.691406-4.167969s3.839844-6.257812 3.648438-9.902344l-.3125-5.863281h1.964843c7.984375.003906 14.484375-6.496094 14.484375-14.484375zm-21.464844-.5c-2.796874 0-5.503906 1.164062-7.425781 3.191406-1.925781 2.03125-2.941406 4.796875-2.792969 7.582032l.488282 9.15625h-9.894532l.488282-9.15625c.148437-2.792969-.871094-5.554688-2.796875-7.582032-1.921875-2.03125-4.628907-3.191406-7.421875-3.191406h-6.46875c.265625-9.917969 8.414062-17.898438 18.394531-17.898438h5.507813c9.976562 0 18.125 7.980469 18.390624 17.898438zm0 0"/><path d="m253.421875 160.210938c-20.960937 0-38.011719 17.050781-38.011719 38.015624v6.488282c0 20.960937 17.050782 38.011718 38.011719 38.011718 8.675781 0 15.734375-7.054687 15.734375-15.730468v-3.726563l8.320312.441407c3.9375.214843 7.820313-1.222657 10.675782-3.929688 2.855468-2.710938 4.492187-6.519531 4.492187-10.453125v-15.714844c0-3.933593-1.636719-7.746093-4.492187-10.453125-2.855469-2.707031-6.757813-4.140625-10.675782-3.929687l-8.320312.441406v-3.726563c0-8.675781-7.054688-15.734374-15.734375-15.734374zm24.238281 34.015624v14.484376l-12.199218-.648438c-2.933594-.148438-5.820313.910156-7.945313 2.925781s-3.347656 4.851563-3.347656 7.78125v8.222657c0 .414062-.332031.746093-.742188.746093-12.699219 0-23.027343-10.328125-23.027343-23.023437v-6.492188c0-12.695312 10.328124-23.027344 23.027343-23.027344.410157 0 .742188.335938.742188.746094v8.226563c0 2.929687 1.222656 5.765625 3.347656 7.78125s5.019531 3.074219 7.945313 2.921875zm0 0"/></g><g transform="matrix(0.11718793213367462 0 0 0.11718793213367462 201.99999992675748 313)" id="L1_167"><path d="m280.289062 6.285156c-.679687-4.09375-4.542968-6.863281-8.648437-6.183594l-63.421875 10.546876c-4.8125.800781-8.730469 4.183593-10.226562 8.824218l-14.570313 45.171875h-161.535156c-6.339844 0-11.972657 3.785157-14.355469 9.640625-3.558594 8.746094-7.65625 24.828125-6.953125 51.753906.867187 33.140626 8.785156 73.570313 23.535156 120.171876 28.75 90.820312 20.765625 180.484374 14.011719 223.660156-.199219 1.273437-.402344 2.539062-.609375 3.796875-.0625.382812-.125.769531-.1875 1.140625-.324219 1.929687-.65625 3.84375-.996094 5.730468-1.414062 7.800782.691407 15.769532 5.777344 21.859376 2.839844 3.398437 6.425781 5.992187 10.417969 7.617187 3.167968 1.292969 6.59375 1.984375 10.113281 1.984375h130.058594c3.34375 0 6.601562-.628906 9.632812-1.796875 4.183594-1.613281 7.945313-4.269531 10.898438-7.808594 5.082031-6.085937 7.191406-14.054687 5.777343-21.855469-.3125-1.71875-.613281-3.464843-.910156-5.21875-.050781-.304687-.105468-.605468-.15625-.910156-1.035156-6.191406-1.976562-12.570312-2.808594-19.039062 0-.003906 0-.003906 0-.007813-1.179687-9.195312-2.140624-18.5625-2.859374-28.042969-.3125-4.140624-3.933594-7.234374-8.0625-6.925781-4.140626.3125-7.242188 3.925781-6.925782 8.0625.644532 8.484375 1.480469 16.875 2.484375 25.148438-2.011719 1.53125-4.476562 2.386719-7.070312 2.386719h-130.058594c-2.582031 0-5.03125-.847657-7.039063-2.363282 6.398438-52.007812 8.546876-130.75-17.15625-211.953125-17.816406-56.28125-22.785156-95.210937-22.855468-121.027343h16.617187l-13.050781 22.605468c-2.804688 4.863282-1.136719 11.101563 3.726562 13.910156l32.546876 18.792969c1.597656.921875 3.347656 1.359375 5.074218 1.359375 3.519532 0 6.949219-1.824218 8.835938-5.089844l18.789062-32.542968c2.808594-4.863282 1.136719-11.105469-3.726562-13.914063l-8.875-5.121093h48.285156c4.152344 0 7.515625-3.363282 7.515625-7.515626 0-4.152343-3.363281-7.515624-7.515625-7.515624h-107.648438c1.132813-13.597657 3.6875-21.730469 5.289063-25.667969.066406-.167969.238281-.273438.433594-.273438h156.683593l-8.367187 25.941407h-11.421875c-4.148438 0-7.515625 3.363281-7.515625 7.515624 0 4.152344 3.367187 7.515626 7.515625 7.515626h81.027344c-.007813 1.617187-.027344 3.28125-.074219 5-.828125 31.730468-8.511719 70.769531-22.839844 116.027343-14.671875 46.347657-21.796875 97.058594-21.1875 150.734375.050781 4.117188 3.40625 7.425782 7.515625 7.425782h.085938c4.152344-.046876 7.476562-3.449219 7.429687-7.597657-.59375-52.074219 6.296875-101.203125 20.484375-146.027343 19.789063-62.507813 24.367188-104.992188 23.472656-132.738282.003907-.113281.019532-.226562.019532-.339844 0-.320312-.027344-.632812-.066406-.941406-.757813-19.421875-4.203126-31.425781-6.839844-37.90625-2.382813-5.859375-8.019532-9.640625-14.355469-9.640625h-34.238281l12.699218-39.371093 62.195313-10.34375c4.09375-.679688 6.859375-4.550782 6.179687-8.644532zm-229.164062 476.917969c.765625-4.238281 1.542969-8.855469 2.300781-13.804687 2.910157 1.066406 6.019531 1.625 9.214844 1.625h130.058594c3.195312 0 6.308593-.5625 9.222656-1.628907.707031 4.660157 1.472656 9.265625 2.292969 13.808594.617187 3.414063-.304688 6.898437-2.527344 9.5625-1.117188 1.335937-2.492188 2.386719-4.027344 3.105469-1.53125.714844-3.222656 1.097656-4.960937 1.097656h-130.058594c-1.304687 0-2.582031-.214844-3.789063-.625-2.003906-.683594-3.804687-1.910156-5.199218-3.578125-2.226563-2.664063-3.148438-6.148437-2.527344-9.5625zm-2.585938-360.78125 24.148438 13.941406-13.941406 24.152344-24.148438-13.941406zm184.914063-42.746094c.195313 0 .367187.105469.433594.273438 1.730469 4.25 4.226562 12.394531 5.34375 25.667969h-53.234375l8.367187-25.941407zm0 0"/><path d="m117.734375 216.78125c2 1.65625 4.425781 2.460938 6.839844 2.460938 3.089843 0 6.160156-1.320313 8.28125-3.882813l28.980469-34.984375c1.832031-2.210938 2.695312-5 2.425781-7.855469-.269531-2.859375-1.632813-5.4375-3.84375-7.269531l-34.988281-28.980469c-4.558594-3.78125-11.34375-3.140625-15.121094 1.417969l-28.980469 34.988281c-1.832031 2.207031-2.691406 4.996094-2.421875 7.855469.265625 2.855469 1.632812 5.4375 3.839844 7.265625zm1.414063-66.199219 28.375 23.507813-23.503907 28.378906-28.378906-23.507812zm0 0"/><path d="m123.027344 279.277344 39.5 29.554687c1.925781 1.441407 4.214844 2.199219 6.578125 2.199219.527343 0 1.058593-.039062 1.59375-.117188 2.910156-.417968 5.488281-1.945312 7.25-4.300781l29.558593-39.503906c1.761719-2.355469 2.5-5.257813 2.082032-8.167969-.421875-2.914062-1.949219-5.492187-4.304688-7.25l-39.503906-29.558594c-4.863281-3.636718-11.78125-2.640624-15.417969 2.222657l-29.558593 39.5c-3.636719 4.863281-2.640626 11.78125 2.222656 15.421875zm36.96875-42.703125 33.074218 24.746093-24.75 33.074219-33.074218-24.746093zm0 0"/><path d="m182.640625 177.210938c.128906 0 .257813-.003907.386719-.007813l30.394531-1.203125c5.332031-.210938 9.496094-4.714844 9.285156-10.046875l-1.199219-30.402344c-.214843-5.324219-4.746093-9.480469-10.046874-9.277343l-30.394532 1.199218c-5.332031.210938-9.496094 4.71875-9.289062 10.046875l1.203125 30.394531c.203125 5.203126 4.5 9.296876 9.660156 9.296876zm24.058594-35.707032.777343 19.6875-19.691406.78125-.777344-19.691406zm0 0"/><path d="m97.433594 218.457031-31.941406 3.246094c-2.601563.265625-4.945313 1.523437-6.601563 3.554687-1.652344 2.027344-2.417969 4.574219-2.152344 7.179688l3.242188 31.9375c.265625 2.605469 1.527343 4.949219 3.554687 6.601562 1.765625 1.441407 3.925782 2.207032 6.171875 2.207032.335938 0 .671875-.019532 1.007813-.050782l31.941406-3.246093c2.605469-.265625 4.949219-1.527344 6.601562-3.554688 1.652344-2.027343 2.417969-4.578125 2.152344-7.179687l-3.242187-31.941406c-.546875-5.371094-5.363281-9.28125-10.734375-8.753907zm-23.027344 39.191407-2.1875-21.519532 21.523438-2.1875 2.1875 21.523438zm0 0"/></g><g transform="matrix(0.1171875 0 0 0.1171875 17 310.00000001464844)" id="L1_168"><path d="m259.855469 99.359375 19.78125-11.851563c3.554687-2.128906 4.710937-6.734374 2.582031-10.289062-2.128906-3.550781-6.734375-4.707031-10.289062-2.578125l-19.785157 11.851563c-3.550781 2.128906-4.707031 6.738281-2.578125 10.289062 1.40625 2.347656 3.890625 3.648438 6.441406 3.648438 1.3125 0 2.640626-.34375 3.847657-1.070313zm0 0"/><path d="m470.472656 185.855469c22.898438 0 41.527344-18.628907 41.527344-41.527344v-102.800781c0-22.898438-18.628906-41.527344-41.527344-41.527344h-428.945312c-22.898438 0-41.527344 18.628906-41.527344 41.527344v102.796875c0 22.898437 18.628906 41.53125 41.527344 41.53125h18.683594l30.066406 258.386719h-66.390625c-13.171875 0-23.886719 10.714843-23.886719 23.886718 0 24.007813 19.53125 43.539063 43.539062 43.539063h424.921876c24.007812 0 43.539062-19.53125 43.539062-43.539063 0-13.171875-10.714844-23.886718-23.886719-23.886718h-66.386719l2.625-22.570313c.480469-4.117187-2.46875-7.839844-6.582031-8.316406-4.113281-.480469-7.835937 2.46875-8.316406 6.582031l-2.828125 24.304688h-92.0625c35.765625-32.375 37.042969-93.324219 36.367188-113.804688-.1875-5.550781-4.679688-9.898438-10.234376-9.898438h-169.390624c-5.550782 0-10.046876 4.347657-10.230469 9.898438-.675781 20.480469.601562 81.425781 36.363281 113.804688h-92.058594l-30.066406-258.386719h18.417969c4.140625 0 7.5-3.359375 7.5-7.5s-3.359375-7.5-7.5-7.5h-52.203125c-14.628906 0-26.527344-11.902344-26.527344-26.527344v-102.800781c0-14.625 11.898438-26.527344 26.527344-26.527344h428.945312c14.625 0 26.527344 11.898438 26.527344 26.527344v102.796875c0 14.628906-11.898438 26.53125-26.527344 26.53125h-341.84375c-4.144531 0-7.5 3.355469-7.5 7.5 0 4.140625 3.355469 7.5 7.5 7.5h50.207032v30.613281c0 19.246094 12.421874 35.636719 29.664062 41.605469v13.652343c0 10.453126 8.507812 18.960938 18.960938 18.960938h5.421874c10.453126 0 18.960938-8.507812 18.960938-18.960938v-11.238281h8.316406v11.238281c0 10.453126 8.503906 18.960938 18.960938 18.960938h5.417968c10.457032 0 18.960938-8.507812 18.960938-18.960938v-13.652343c8.382812-2.902344 15.632812-8.257813 20.859375-15.21875h34.597656c2.730469 4.507812 7.667969 7.539062 13.3125 7.539062h56.910157l-15.664063 134.625c-.480469 4.113281 2.46875 7.835938 6.582031 8.316407.292969.03125.585938.050781.875.050781 3.753906 0 6.996094-2.816407 7.441406-6.632813l15.863282-136.359375h52.15625c8.582031 0 15.566406-6.984375 15.566406-15.570312v-26.441407c0-8.585937-6.984375-15.570312-15.566406-15.570312h-45.453125l.808593-6.957031zm-294.503906 149.683593h160.0625c.25 25.6875-3.855469 89.636719-48.972656 108.703126h-62.117188c-45.121094-19.070313-49.222656-83.015626-48.972656-108.703126zm312.144531 123.703126c4.902344 0 8.886719 3.984374 8.886719 8.886718 0 15.734375-12.804688 28.539063-28.539062 28.539063h-424.921876c-15.734374 0-28.539062-12.804688-28.539062-28.539063 0-4.902344 3.984375-8.886718 8.886719-8.886718zm-251.273437-187.515626c0 2.183594-1.777344 3.960938-3.960938 3.960938h-5.417968c-2.183594 0-3.960938-1.777344-3.960938-3.960938v-11.234374h13.339844zm51.660156 0c0 2.183594-1.777344 3.960938-3.960938 3.960938h-5.417968c-2.183594 0-3.960938-1.777344-3.960938-3.960938v-11.234374h13.339844zm29.667969-55.257812c0 16.003906-13.019531 29.023438-29.023438 29.023438h-66.289062c-16 0-29.019531-13.019532-29.019531-29.023438v-30.613281h124.332031zm38.53125 11.386719h-25.035157c.976563-3.632813 1.503907-7.449219 1.503907-11.386719v-1.113281h23.53125zm2.253906-27.5h-25.789063v-14.5h103.523438l-.808594 6.960937h-63.613281c-5.644531-.003906-10.582031 3.027344-13.3125 7.539063zm137.480469 7.457031c.3125 0 .566406.257812.566406.570312v26.441407c0 .316406-.253906.570312-.566406.570312h-124.164063c-.292969 0-.527343-.226562-.558593-.511719 0 0 0-.003906 0-.007812l-.011719-.171875v-26.316406c0-.003907 0-.003907 0-.007813 0-.3125.253906-.566406.570312-.566406zm0 0"/><path d="m310.574219 92.925781c0-30.089843-24.480469-54.570312-54.574219-54.570312s-54.574219 24.480469-54.574219 54.570312c0 30.09375 24.480469 54.574219 54.574219 54.574219s54.574219-24.480469 54.574219-54.574219zm-94.148438 0c0-21.820312 17.753907-39.570312 39.574219-39.570312s39.574219 17.75 39.574219 39.570312c0 21.820313-17.753907 39.574219-39.574219 39.574219s-39.574219-17.753906-39.574219-39.574219zm0 0"/><path d="m176.34375 110.769531v-35.683593c0-9.371094-7.621094-16.992188-16.988281-16.992188h-106.441407c-9.367187 0-16.988281 7.621094-16.988281 16.992188v35.683593c0 9.371094 7.621094 16.992188 16.988281 16.992188h106.441407c9.367187 0 16.988281-7.621094 16.988281-16.992188zm-125.421875 0v-35.683593c0-1.097657.894531-1.992188 1.992187-1.992188h106.441407c1.097656 0 1.988281.894531 1.988281 1.992188v35.683593c0 1.097657-.890625 1.992188-1.988281 1.992188h-106.441407c-1.097656 0-1.992187-.894531-1.992187-1.992188zm0 0"/><path d="m397.648438 92.925781c0-19.207031-15.625-34.832031-34.832032-34.832031-19.207031 0-34.832031 15.625-34.832031 34.832031s15.625 34.835938 34.832031 34.835938c19.207032 0 34.832032-15.628907 34.832032-34.835938zm-54.667969 0c0-10.933593 8.898437-19.832031 19.835937-19.832031 10.933594 0 19.832032 8.898438 19.832032 19.832031 0 10.9375-8.898438 19.835938-19.832032 19.835938-10.9375 0-19.835937-8.898438-19.835937-19.835938zm0 0"/><path d="m476.078125 92.925781c0-19.207031-15.628906-34.832031-34.835937-34.832031-19.207032 0-34.832032 15.625-34.832032 34.832031s15.625 34.835938 34.832032 34.835938c19.207031 0 34.835937-15.628907 34.835937-34.835938zm-54.667969 0c0-10.933593 8.898438-19.832031 19.832032-19.832031 10.9375 0 19.832031 8.898438 19.832031 19.832031 0 10.9375-8.894531 19.835938-19.832031 19.835938-10.933594 0-19.832032-8.898438-19.832032-19.835938zm0 0"/></g><g transform="matrix(0.0870335408061209 0.05918280758032826 -0.05918280758032826 0.0870335408061209 226.27793051446244 113.44640410881428)" id="L1_169"><path d="m143.527344 311.484375v69.4375c0 4.148437 3.363281 7.511719 7.511718 7.511719 4.148438 0 7.511719-3.363282 7.511719-7.511719v-69.4375c0-4.148437-3.363281-7.511719-7.511719-7.511719-4.148437 0-7.511718 3.363282-7.511718 7.511719zm0 0"/><path d="m199.9375 380.921875v-69.4375c0-4.148437-3.363281-7.511719-7.507812-7.511719-4.148438 0-7.511719 3.363282-7.511719 7.511719v69.4375c0 4.148437 3.363281 7.511719 7.511719 7.511719 4.144531 0 7.507812-3.363282 7.507812-7.511719zm0 0"/><path d="m242.816406 380.921875v-69.4375c0-4.148437-3.363281-7.511719-7.511718-7.511719-4.148438 0-7.511719 3.363282-7.511719 7.511719v69.4375c0 4.148437 3.363281 7.511719 7.511719 7.511719 4.148437 0 7.511718-3.363282 7.511718-7.511719zm0 0"/><path d="m284.203125 380.921875v-69.4375c0-4.148437-3.363281-7.511719-7.507813-7.511719-4.148437 0-7.511718 3.363282-7.511718 7.511719v69.4375c0 4.148437 3.363281 7.511719 7.511718 7.511719 4.144532 0 7.507813-3.363282 7.507813-7.511719zm0 0"/><path d="m319.570312 388.433594c4.148438 0 7.511719-3.363282 7.511719-7.511719v-69.4375c0-4.148437-3.363281-7.511719-7.511719-7.511719-4.148437 0-7.511718 3.363282-7.511718 7.511719v69.4375c0 4.148437 3.363281 7.511719 7.511718 7.511719zm0 0"/><path d="m368.472656 380.921875v-69.4375c0-4.148437-3.363281-7.511719-7.511718-7.511719-4.148438 0-7.511719 3.363282-7.511719 7.511719v69.4375c0 4.148437 3.363281 7.511719 7.511719 7.511719 4.148437 0 7.511718-3.363282 7.511718-7.511719zm0 0"/><path d="m511.914062 186.421875c-.960937-22.839844-10.332031-44.53125-26.386718-61.082031-16.058594-16.554688-37.453125-26.578125-60.25-28.226563-11.113282-.804687-22.039063.320313-32.582032 3.34375-8.386718-27.117187-25.007812-51.488281-47.398437-69.265625-25.277344-20.078125-55.742187-30.691406-88.089844-30.691406-25.503906 0-50.511719 6.851562-72.324219 19.816406-3.5625 2.117188-4.738281 6.726563-2.617187 10.292969 2.117187 3.566406 6.726563 4.738281 10.296875 2.621094 19.488281-11.585938 41.84375-17.707031 64.644531-17.707031 58.503907 0 109.113281 39.621093 123.074219 96.355468.515625 2.09375 1.90625 3.863282 3.816406 4.863282s4.15625 1.128906 6.167969.355468c10.84375-4.164062 22.253906-5.84375 33.929687-5 19.109376 1.378906 37.0625 9.796875 50.546876 23.703125 13.484374 13.902344 21.355468 32.101563 22.160156 51.25.914062 21.660157-6.820313 42.175781-21.777344 57.773438-14.964844 15.609375-35.105469 24.203125-56.722656 24.203125-12.429688 0-22.546875 10.113281-22.546875 22.546875v117.894531h-52.242188c-4.148437 0-7.511719 3.363281-7.511719 7.511719 0 4.144531 3.363282 7.507812 7.511719 7.507812h52.242188v28.445313c0 6.785156-5.515625 12.300781-12.296875 12.300781h-255.121094c-6.78125 0-12.300781-5.515625-12.300781-12.300781v-28.445313h192.527343c4.148438 0 7.507813-3.363281 7.507813-7.507812 0-4.148438-3.359375-7.511719-7.507813-7.511719h-192.523437v-120.023438c0-10.863281-7.675781-20.167968-18.242187-22.128906-23.246094-4.308594-44.40625-16.769531-59.578126-35.089844-15.375-18.554687-23.644531-42.082031-23.285156-66.246093.8125-55.035157 46.273438-99.882813 101.335938-99.964844h.160156c10.179688 0 20.234375 1.503906 29.882812 4.46875 3.066407.945313 6.390626-.164063 8.277344-2.753906 3.578125-4.910157 7.546875-9.609375 11.789063-13.960938 2.898437-2.96875 2.839843-7.722656-.128907-10.621093-2.96875-2.898438-7.726562-2.839844-10.621093.128906-3.523438 3.613281-6.875 7.433594-10 11.40625-9.503907-2.453125-19.300781-3.691406-29.199219-3.691406-.0625 0-.125 0-.183594 0-63.214844.097656-115.402344 51.582031-116.3359372 114.769531-.4101568 27.730469 9.0859372 54.742187 26.7382812 76.046875 17.414062 21.023437 41.710938 35.328125 68.40625 40.277344 3.453125.640624 5.960938 3.734374 5.960938 7.359374v163.488282c0 15.066406 12.253906 27.324218 27.320312 27.324218h255.121094c15.066406 0 27.320312-12.257812 27.320312-27.324218v-161.359375c0-4.148438 3.378906-7.523438 7.527344-7.523438 25.746094 0 49.742188-10.238281 67.566406-28.828125 17.8125-18.582031 27.027344-43.015625 25.941406-68.800781zm0 0"/></g></defs><g fi:class="KUsePattern"><pattern id="pattern_L1_161" width="350" height="350" patternUnits="userSpaceOnUse"><use xlink:href="#L1_161" x="-350" y="-350"/><use xlink:href="#L1_161" x="0" y="-350"/><use xlink:href="#L1_161" x="350" y="-350"/><use xlink:href="#L1_161" x="-350" y="0"/><use xlink:href="#L1_161" x="0" y="0"/><use xlink:href="#L1_161" x="350" y="0"/><use xlink:href="#L1_161" x="-350" y="350"/><use xlink:href="#L1_161" x="0" y="350"/><use xlink:href="#L1_161" x="350" y="350"/></pattern><rect x="0" y="0" width="100%" height="100%" fill="url(#pattern_L1_161)"/></g><g fi:class="KUsePattern"><pattern id="pattern_L1_162" width="350" height="350" patternUnits="userSpaceOnUse"><use xlink:href="#L1_162" x="-350" y="-350"/><use xlink:href="#L1_162" x="0" y="-350"/><use xlink:href="#L1_162" x="350" y="-350"/><use xlink:href="#L1_162" x="-350" y="0"/><use xlink:href="#L1_162" x="0" y="0"/><use xlink:href="#L1_162" x="350" y="0"/><use xlink:href="#L1_162" x="-350" y="350"/><use xlink:href="#L1_162" x="0" y="350"/><use xlink:href="#L1_162" x="350" y="350"/></pattern><rect x="0" y="0" width="100%" height="100%" fill="url(#pattern_L1_162)"/></g><g fi:class="KUsePattern"><pattern id="pattern_L1_163" width="350" height="350" patternUnits="userSpaceOnUse"><use xlink:href="#L1_163" x="-350" y="-350"/><use xlink:href="#L1_163" x="0" y="-350"/><use xlink:href="#L1_163" x="350" y="-350"/><use xlink:href="#L1_163" x="-350" y="0"/><use xlink:href="#L1_163" x="0" y="0"/><use xlink:href="#L1_163" x="350" y="0"/><use xlink:href="#L1_163" x="-350" y="350"/><use xlink:href="#L1_163" x="0" y="350"/><use xlink:href="#L1_163" x="350" y="350"/></pattern><rect x="0" y="0" width="100%" height="100%" fill="url(#pattern_L1_163)"/></g><g fi:class="KUsePattern"><pattern id="pattern_L1_165" width="350" height="350" patternUnits="userSpaceOnUse"><use xlink:href="#L1_165" x="-350" y="-350"/><use xlink:href="#L1_165" x="0" y="-350"/><use xlink:href="#L1_165" x="350" y="-350"/><use xlink:href="#L1_165" x="-350" y="0"/><use xlink:href="#L1_165" x="0" y="0"/><use xlink:href="#L1_165" x="350" y="0"/><use xlink:href="#L1_165" x="-350" y="350"/><use xlink:href="#L1_165" x="0" y="350"/><use xlink:href="#L1_165" x="350" y="350"/></pattern><rect x="0" y="0" width="100%" height="100%" fill="url(#pattern_L1_165)"/></g><g fi:class="KUsePattern"><pattern id="pattern_L1_166" width="350" height="350" patternUnits="userSpaceOnUse"><use xlink:href="#L1_166" x="-350" y="-350"/><use xlink:href="#L1_166" x="0" y="-350"/><use xlink:href="#L1_166" x="350" y="-350"/><use xlink:href="#L1_166" x="-350" y="0"/><use xlink:href="#L1_166" x="0" y="0"/><use xlink:href="#L1_166" x="350" y="0"/><use xlink:href="#L1_166" x="-350" y="350"/><use xlink:href="#L1_166" x="0" y="350"/><use xlink:href="#L1_166" x="350" y="350"/></pattern><rect x="0" y="0" width="100%" height="100%" fill="url(#pattern_L1_166)"/></g><g fi:class="KUsePattern"><pattern id="pattern_L1_167" width="350" height="350" patternUnits="userSpaceOnUse"><use xlink:href="#L1_167" x="-350" y="-350"/><use xlink:href="#L1_167" x="0" y="-350"/><use xlink:href="#L1_167" x="350" y="-350"/><use xlink:href="#L1_167" x="-350" y="0"/><use xlink:href="#L1_167" x="0" y="0"/><use xlink:href="#L1_167" x="350" y="0"/><use xlink:href="#L1_167" x="-350" y="350"/><use xlink:href="#L1_167" x="0" y="350"/><use xlink:href="#L1_167" x="350" y="350"/></pattern><rect x="0" y="0" width="100%" height="100%" fill="url(#pattern_L1_167)"/></g><g fi:class="KUsePattern"><pattern id="pattern_L1_168" width="350" height="350" patternUnits="userSpaceOnUse"><use xlink:href="#L1_168" x="-350" y="-350"/><use xlink:href="#L1_168" x="0" y="-350"/><use xlink:href="#L1_168" x="350" y="-350"/><use xlink:href="#L1_168" x="-350" y="0"/><use xlink:href="#L1_168" x="0" y="0"/><use xlink:href="#L1_168" x="350" y="0"/><use xlink:href="#L1_168" x="-350" y="350"/><use xlink:href="#L1_168" x="0" y="350"/><use xlink:href="#L1_168" x="350" y="350"/></pattern><rect x="0" y="0" width="100%" height="100%" fill="url(#pattern_L1_168)"/></g><g fi:class="KUsePattern"><pattern id="pattern_L1_169" width="350" height="350" patternUnits="userSpaceOnUse"><use xlink:href="#L1_169" x="-350" y="-350"/><use xlink:href="#L1_169" x="0" y="-350"/><use xlink:href="#L1_169" x="350" y="-350"/><use xlink:href="#L1_169" x="-350" y="0"/><use xlink:href="#L1_169" x="0" y="0"/><use xlink:href="#L1_169" x="350" y="0"/><use xlink:href="#L1_169" x="-350" y="350"/><use xlink:href="#L1_169" x="0" y="350"/><use xlink:href="#L1_169" x="350" y="350"/></pattern><rect x="0" y="0" width="100%" height="100%" fill="url(#pattern_L1_169)"/></g></svg>