<?xml version="1.0" encoding="iso-8859-1"?>
<!-- Generator: Adobe Illustrator 19.0.0, SVG Export Plug-In . SVG Version: 6.00 Build 0)  -->
<svg version="1.1" id="Capa_1" xmlns="http://www.w3.org/2000/svg" xmlns:xlink="http://www.w3.org/1999/xlink" x="0px" y="0px"
	 viewBox="0 0 480 480" style="enable-background:new 0 0 480 480;" xml:space="preserve">
<path style="fill:#CCCCCC;" d="M20,8h352v352H20V8z"/>
<path style="fill:#0071BC;" d="M108,312H52V40h288v80H108V312z"/>
<path style="fill:#E6E6E6;" d="M340,120h120v352H108V120H340z"/>
<path style="fill:#06AAE9;" d="M140,152h288v272H140V152z"/>
<path style="fill:#FCBED7;" d="M356,240h-24v-24c0-17.673-14.327-32-32-32s-32,14.327-32,32v3.04
	c-11.513-13.321-31.645-14.787-44.966-3.274C215.997,221.847,211.967,230.699,212,240v16h-12c-11.046,0-20,8.954-20,20
	s8.954,20,20,20h4l1.248,10.248L356,304c17.673,0,32-14.327,32-32S373.673,240,356,240z"/>
<path style="fill:#754C24;" d="M348,392H212l-8-96h152L348,392z"/>
<path d="M460,112h-80V8c0-4.418-3.582-8-8-8H20c-4.418,0-8,3.582-8,8v352c0,4.418,3.582,8,8,8h80v104c0,4.418,3.582,8,8,8h352
	c4.418,0,8-3.582,8-8V120C468,115.582,464.418,112,460,112z M100,352H28V16h336v96h-16V40c0-4.418-3.582-8-8-8H52
	c-4.418,0-8,3.582-8,8v272c0,4.418,3.582,8,8,8h48V352z M100,120v184H60V48h272v64H108C103.582,112,100,115.582,100,120z M452,464
	H116V128h336V464z"/>
<path d="M132,152v272c0,4.418,3.582,8,8,8h288c4.418,0,8-3.582,8-8V152c0-4.418-3.582-8-8-8H140C135.582,144,132,147.582,132,152z
	 M148,160h272v256H148V160z"/>
<path d="M356,232h-16v-16c0.079-22.025-17.712-39.944-39.737-40.022c-17.677-0.063-33.286,11.518-38.351,28.454
	c-5.536-2.873-11.675-4.392-17.912-4.432c-22.08,0.026-39.974,17.92-40,40v8h-4c-15.424-0.031-27.953,12.448-27.984,27.872
	c-0.028,14.155,10.538,26.093,24.592,27.784L204,392.664c0.346,4.157,3.829,7.35,8,7.336h136c4.171,0.014,7.654-3.179,8-7.336
	l6.776-81.344c21.747-3.707,36.371-24.341,32.664-46.088C392.164,246.014,375.495,231.969,356,232z M340.64,384H219.36l-6.664-80
	h134.608L340.64,384z M363.72,294.616c-0.219-1.48-0.855-2.867-1.832-4c-1.509-1.659-3.645-2.608-5.888-2.616H200
	c-6.627,0-12-5.373-12-12s5.373-12,12-12h12c4.418,0,8-3.582,8-8v-16c0-13.255,10.745-24,24-24s24,10.745,24,24c0,4.418,3.582,8,8,8
	s8-3.582,8-8c-0.027-8.595-2.849-16.949-8.04-23.8c0-0.072,0.04-0.128,0.04-0.2c0-13.255,10.745-24,24-24s24,10.745,24,24v24
	c0,4.418,3.582,8,8,8h24c13.219-0.038,23.967,10.648,24.004,23.867C380.034,282.163,373.476,291.325,363.72,294.616z"/>
<path d="M241.656,234.344c-3.178-3.07-8.242-2.982-11.312,0.196c-2.995,3.1-2.995,8.016,0,11.116l8,8
	c3.178,3.07,8.242,2.982,11.312-0.196c2.995-3.1,2.995-8.016,0-11.116L241.656,234.344z"/>
<path d="M302.344,202.344l-8,8c-3.178,3.07-3.266,8.134-0.196,11.312c3.07,3.178,8.134,3.266,11.312,0.196
	c0.067-0.064,0.132-0.13,0.196-0.196l8-8c3.069-3.178,2.982-8.243-0.196-11.312C310.359,199.35,305.444,199.35,302.344,202.344z"/>
<path d="M297.656,250.344c-3.178-3.07-8.242-2.982-11.312,0.196c-2.995,3.1-2.995,8.016,0,11.116l8,8
	c3.178,3.07,8.242,2.982,11.312-0.196c2.995-3.1,2.995-8.016,0-11.116L297.656,250.344z"/>
<path d="M350.344,258.344l-8,8c-3.178,3.07-3.266,8.134-0.196,11.312c3.07,3.178,8.134,3.266,11.312,0.196
	c0.066-0.064,0.132-0.129,0.196-0.196l8-8c3.07-3.178,2.982-8.242-0.196-11.312C358.36,255.349,353.444,255.349,350.344,258.344z"/>
<g>
</g>
<g>
</g>
<g>
</g>
<g>
</g>
<g>
</g>
<g>
</g>
<g>
</g>
<g>
</g>
<g>
</g>
<g>
</g>
<g>
</g>
<g>
</g>
<g>
</g>
<g>
</g>
<g>
</g>
</svg>
