<?xml version="1.0" encoding="iso-8859-1"?>
<!-- Generator: Adobe Illustrator 19.0.0, SVG Export Plug-In . SVG Version: 6.00 Build 0)  -->
<svg version="1.1" id="Capa_1" xmlns="http://www.w3.org/2000/svg" xmlns:xlink="http://www.w3.org/1999/xlink" x="0px" y="0px"
	 viewBox="0 0 480 480" style="enable-background:new 0 0 480 480;" xml:space="preserve">
<path style="fill:#FAC05E;" d="M352,472H64c-17.672,0-32-14.328-32-32V104c0-17.672,14.328-32,32-32h264v56h56v312
	C384,457.672,369.672,472,352,472z"/>
<path style="fill:#50D4E3;" d="M64,72c0-17.672,14.328-32,32-32h288c17.672,0,32,14.328,32,32v336c0,17.672-14.328,32-32,32V128
	l-56-56H64z"/>
<path style="fill:#EE6352;" d="M96,40c0-17.672,14.328-32,32-32h288c17.672,0,32,14.328,32,32v336c0,17.672-14.328,32-32,32V72
	c0-17.672-14.328-32-32-32H96z"/>
<path style="fill:#FFFFFF;" d="M336,168H80c-4.416,0-8,3.576-8,8v256c0,4.424,3.584,8,8,8h256c4.416,0,8-3.576,8-8V176
	C344,171.576,340.416,168,336,168z M328,224h-32v-40h32V224z M200,344v-24h32v24H200z M232,360v24h-32v-24H232z M232,280v24h-32v-24
	H232z M200,264v-24h32v24H200z M184,304h-32v-24h32V304z M184,320v24h-32v-24H184z M248,320h32v24h-32V320z M248,304v-24h32v24H248z
	 M248,264v-24h32v24H248z M248,224v-40h32v40H248z M232,224h-32v-40h32V224z M184,224h-32v-40h32V224z M184,240v24h-32v-24H184z
	 M136,264H88v-24h48V264z M136,280v24H88v-24H136z M136,320v24H88v-24H136z M136,360v24H88v-24H136z M152,360h32v24h-32V360z
	 M184,400v24h-32v-24H184z M200,400h32v24h-32V400z M248,400h32v24h-32V400z M248,384v-24h32v24H248z M296,360h32v24h-32V360z
	 M296,344v-24h32v24H296z M296,304v-24h32v24H296z M296,264v-24h32v24H296z M136,184v40H88v-40H136z M88,400h48v24H88V400z M296,424
	v-24h32v24H296z"/>
<polygon style="fill:#F79D84;" points="328,72 384,128 328,128 "/>
<g>
	<path style="fill:#0F272A;" d="M64,480h288c19.568,0,35.832-14.144,39.264-32.736c16.224-3,29-15.776,32-32
		C441.856,411.832,456,395.568,456,376V40c0-22.056-17.944-40-40-40H128c-19.568,0-35.832,14.144-39.264,32.736
		c-16.224,3-29,15.776-32,32C38.144,68.168,24,84.432,24,104v336C24,462.056,41.944,480,64,480z M336,91.312L364.688,120H336V91.312
		z M128,16h288c13.232,0,24,10.768,24,24v336c0,10.432-6.688,19.328-16,22.632V72c0-22.056-17.944-40-40-40H105.368
		C108.672,22.688,117.568,16,128,16z M96,48h288c13.232,0,24,10.768,24,24v336c0,10.432-6.688,19.328-16,22.632V128
		c0-0.176-0.088-0.328-0.104-0.504c-0.048-0.704-0.184-1.384-0.408-2.056c-0.056-0.168-0.048-0.36-0.112-0.52
		c-0.04-0.104-0.128-0.176-0.176-0.28c-0.384-0.824-0.864-1.6-1.528-2.264c-0.008-0.008-0.016-0.024-0.024-0.032L333.664,66.36
		c-0.008-0.008-0.024-0.016-0.04-0.032c-0.672-0.664-1.456-1.152-2.28-1.536c-0.096-0.04-0.168-0.12-0.264-0.16
		c-0.144-0.064-0.312-0.048-0.464-0.104c-0.704-0.248-1.424-0.392-2.176-0.432C328.288,64.08,328.152,64,328,64H73.368
		C76.672,54.688,85.568,48,96,48z M40,104c0-13.232,10.768-24,24-24h256v48c0,4.424,3.584,8,8,8h48v304c0,13.232-10.768,24-24,24H64
		c-13.232,0-24-10.768-24-24V104z"/>
	<rect x="120" y="136" style="fill:#0F272A;" width="176" height="16"/>
	<rect x="144" y="104" style="fill:#0F272A;" width="128" height="16"/>
</g>
<g>
</g>
<g>
</g>
<g>
</g>
<g>
</g>
<g>
</g>
<g>
</g>
<g>
</g>
<g>
</g>
<g>
</g>
<g>
</g>
<g>
</g>
<g>
</g>
<g>
</g>
<g>
</g>
<g>
</g>
</svg>
