<?xml version="1.0" encoding="iso-8859-1"?>
<!-- Generator: Adobe Illustrator 19.0.0, SVG Export Plug-In . SVG Version: 6.00 Build 0)  -->
<svg version="1.1" id="Capa_1" xmlns="http://www.w3.org/2000/svg" xmlns:xlink="http://www.w3.org/1999/xlink" x="0px" y="0px"
	 viewBox="0 0 464 464" style="enable-background:new 0 0 464 464;" xml:space="preserve">
<g>
	<path style="fill:#804D35;" d="M16,0c8.837,0,16,7.163,16,16v448l0,0H0l0,0V16C0,7.163,7.163,0,16,0z"/>
	<path style="fill:#804D35;" d="M448,0c8.837,0,16,7.163,16,16v448l0,0h-32l0,0V16C432,7.163,439.163,0,448,0z"/>
	<path style="fill:#804D35;" d="M432,144v32H32v-32H432z"/>
	<path style="fill:#804D35;" d="M432,336v32H32v-32H432z"/>
</g>
<path style="fill:#6F9935;" d="M64,208h72v128H64V208z"/>
<path style="fill:#658B30;" d="M64,320h72v16H64V320z"/>
<path style="fill:#EA9D2D;" d="M168,232h104v104H168V232z"/>
<path style="fill:#D68F29;" d="M168,320h104v16H168V320z"/>
<path style="fill:#6FBBC6;" d="M304,232h96v104h-96V232z"/>
<path style="fill:#63A6B0;" d="M304,320h96v16h-96V320z"/>
<path style="fill:#C75B93;" d="M64,72h72v72H64V72z"/>
<path style="fill:#BD568B;" d="M64,128h72v16H64V128z"/>
<path style="fill:#1F6C8C;" d="M168,8h104v136H168V8z"/>
<path style="fill:#289F87;" d="M304,16h96v128h-96V16z"/>
<path style="fill:#208673;" d="M304,128h96v16h-96V128z"/>
<path style="fill:#D26398;" d="M64,72h72v32H64V72z"/>
<g>
	<path style="fill:#3B869E;" d="M168,8h104v48H168V8z"/>
	<path style="fill:#3B869E;" d="M192,80h56v16h-56V80z"/>
</g>
<path style="fill:#32B39B;" d="M336,16h32v56h-32V16z"/>
<path style="fill:#FBB540;" d="M200,232h40v40h-40V232z"/>
<path style="fill:#8ACED8;" d="M304,232h96v32h-96V232z"/>
<g>
	<path style="fill:#79A73A;" d="M64,208h72v48H64V208z"/>
	<path style="fill:#79A73A;" d="M88,280h24v16H88V280z"/>
</g>
<path style="fill:#D68F29;" d="M192,296h56v16h-56V296z"/>
<path style="fill:#B3E4E8;" d="M336,264h32v32h-32V264z"/>
<path style="fill:#176177;" d="M168,128h104v16H168V128z"/>
<g>
</g>
<g>
</g>
<g>
</g>
<g>
</g>
<g>
</g>
<g>
</g>
<g>
</g>
<g>
</g>
<g>
</g>
<g>
</g>
<g>
</g>
<g>
</g>
<g>
</g>
<g>
</g>
<g>
</g>
</svg>
